<?xml version="1.0" encoding="utf-8"?>
<!-- Generator: Adobe Illustrator 26.0.0, SVG Export Plug-In . SVG Version: 6.00 Build 0)  -->
<svg version="1.1" id="Layer_1" xmlns="http://www.w3.org/2000/svg" xmlns:xlink="http://www.w3.org/1999/xlink" x="0px" y="0px"
	 viewBox="0 0 512 512" style="enable-background:new 0 0 512 512;" xml:space="preserve">
<style type="text/css">
	.st0{fill:#231F20;}
	.st1{fill:url(#SVGID_1_);}
	.st2{fill:url(#SVGID_00000113338242218278573530000002943174829429260463_);}
	.st3{fill:url(#SVGID_00000166655003951296195630000003012717228766397334_);}
	.st4{fill:url(#SVGID_00000015319318645866864890000013637126124313662337_);}
	.st5{fill:url(#SVGID_00000122692532864390352340000000981474070761752760_);}
	.st6{fill:url(#SVGID_00000157273039126279534090000008464292787103789706_);}
	.st7{fill:url(#SVGID_00000125599816601663497300000008486733638989423290_);}
	.st8{fill:url(#SVGID_00000116231679274015225080000006606756707363170981_);}
	.st9{fill:url(#SVGID_00000016774599358367716390000004575736773816247687_);}
</style>
<polygon class="st0" points="394,203 394.9,204 394,204 "/>
<polygon class="st0" points="487,203 487,204 486.1,204 "/>
<g>
	<g>
		<linearGradient id="SVGID_1_" gradientUnits="userSpaceOnUse" x1="46.667" y1="187.9366" x2="448.0287" y2="188.7025">
			<stop  offset="4.792333e-09" style="stop-color:#00D7DF"/>
			<stop  offset="1" style="stop-color:#0188E7"/>
		</linearGradient>
		<path class="st1" d="M139.5,327.2l13.7-54.3h-38.9C99.9,273,88,260.3,88,244.7v-167c0-15.6,11.8-28.2,26.3-28.2H407
			c14.5,0,26.3,12.7,26.3,28.2v167c0,15.6-11.8,28.2-26.3,28.2H227.7L139.5,327.2z M114.4,58.7c-9.8,0-17.8,8.6-17.8,19.1v167
			c0,10.5,8,19.1,17.8,19.1h50l-11.2,44.5l72.2-44.5H407c9.8,0,17.8-8.6,17.8-19.1v-167c0-10.5-8-19.1-17.8-19.1H114.4z"/>
	</g>
	<g>
		<g>
			
				<linearGradient id="SVGID_00000181778890303580604160000011305408408491594893_" gradientUnits="userSpaceOnUse" x1="46.3807" y1="337.9569" x2="447.7424" y2="338.7229">
				<stop  offset="4.792333e-09" style="stop-color:#00D7DF"/>
				<stop  offset="1" style="stop-color:#0188E7"/>
			</linearGradient>
			<path style="fill:url(#SVGID_00000181778890303580604160000011305408408491594893_);" d="M89,306.8c-17.2,0-31.2,14-31.2,31.2
				c0,17.2,14,31.2,31.2,31.2s31.2-14,31.2-31.2C120.2,320.8,106.2,306.8,89,306.8z M89,313.9c6.7,0,12.7,2.7,17,7.1H71.9
				C76.3,316.6,82.3,313.9,89,313.9z M89,362.1c-13.3,0-24.1-10.8-24.1-24.1c0-4.1,1-8,2.9-11.3h42.5c1.8,3.4,2.9,7.2,2.9,11.3
				C113.1,351.3,102.2,362.1,89,362.1z"/>
		</g>
		<g>
			
				<linearGradient id="SVGID_00000041279682348616704270000014041967630700595889_" gradientUnits="userSpaceOnUse" x1="46.2277" y1="418.1048" x2="447.5894" y2="418.8708">
				<stop  offset="4.792333e-09" style="stop-color:#00D7DF"/>
				<stop  offset="1" style="stop-color:#0188E7"/>
			</linearGradient>
			<path style="fill:url(#SVGID_00000041279682348616704270000014041967630700595889_);" d="M132.9,474.2H45v-80.6
				c0-17.3,14.1-31.4,31.4-31.4h25.2c17.3,0,31.4,14.1,31.4,31.4V474.2z M52.1,467.1h73.7v-73.6c0-13.4-10.9-24.3-24.3-24.3H76.4
				c-13.4,0-24.3,10.9-24.3,24.3V467.1z"/>
		</g>
	</g>
	<g>
		<g>
			
				<linearGradient id="SVGID_00000119097994697243049290000003009911973490593180_" gradientUnits="userSpaceOnUse" x1="46.3783" y1="339.1978" x2="447.74" y2="339.9637">
				<stop  offset="4.792333e-09" style="stop-color:#00D7DF"/>
				<stop  offset="1" style="stop-color:#0188E7"/>
			</linearGradient>
			<path style="fill:url(#SVGID_00000119097994697243049290000003009911973490593180_);" d="M398.5,308.7c-17.2,0-31.2,14-31.2,31.2
				s14,31.2,31.2,31.2s31.2-14,31.2-31.2S415.7,308.7,398.5,308.7z M398.5,315.8c6.7,0,12.7,2.7,17,7.1h-34.1
				C385.8,318.5,391.9,315.8,398.5,315.8z M398.5,364c-13.3,0-24.1-10.8-24.1-24.1c0-4.1,1-8,2.9-11.3h42.5
				c1.8,3.4,2.9,7.2,2.9,11.3C422.6,353.2,411.8,364,398.5,364z"/>
		</g>
		<g>
			
				<linearGradient id="SVGID_00000031917406275958685920000018111652847963694257_" gradientUnits="userSpaceOnUse" x1="46.2253" y1="419.3457" x2="447.587" y2="420.1117">
				<stop  offset="4.792333e-09" style="stop-color:#00D7DF"/>
				<stop  offset="1" style="stop-color:#0188E7"/>
			</linearGradient>
			<path style="fill:url(#SVGID_00000031917406275958685920000018111652847963694257_);" d="M442.5,476h-87.9v-80.6
				c0-17.3,14.1-31.4,31.4-31.4h25.2c17.3,0,31.4,14.1,31.4,31.4V476z M361.6,468.9h73.7v-73.6c0-13.4-10.9-24.3-24.3-24.3h-25.2
				c-13.4,0-24.3,10.9-24.3,24.3V468.9z"/>
		</g>
	</g>
	<g>
		
			<linearGradient id="SVGID_00000178180789170208701940000016369365132456177070_" gradientUnits="userSpaceOnUse" x1="46.7044" y1="168.3093" x2="448.0661" y2="169.0753">
			<stop  offset="4.792333e-09" style="stop-color:#00D7DF"/>
			<stop  offset="1" style="stop-color:#0188E7"/>
		</linearGradient>
		<path style="fill:url(#SVGID_00000178180789170208701940000016369365132456177070_);" d="M256.3,252l-72.7-61.7L269.5,89l65.4-3.4
			l7.4,65L256.3,252z M196.5,189.2l58.8,49.8l77.4-91.3l-6-52.5l-52.8,2.7L196.5,189.2z"/>
	</g>
	<g>
		
			<linearGradient id="SVGID_00000078734772962458844850000006291024857231579053_" gradientUnits="userSpaceOnUse" x1="46.775" y1="131.3349" x2="448.1367" y2="132.1008">
			<stop  offset="4.792333e-09" style="stop-color:#00D7DF"/>
			<stop  offset="1" style="stop-color:#0188E7"/>
		</linearGradient>
		<path style="fill:url(#SVGID_00000078734772962458844850000006291024857231579053_);" d="M295,147c-3.6,0-7.1-1.3-9.8-3.6
			c-6.4-5.4-7.2-15.1-1.8-21.5l0,0c5.4-6.4,15.1-7.2,21.5-1.8c3.1,2.6,5,6.3,5.3,10.4c0.3,4.1-0.9,8-3.6,11.1
			c-2.6,3.1-6.3,5-10.4,5.3C295.9,147,295.5,147,295,147z M290.4,127.9L290.4,127.9c-2.2,2.6-1.9,6.4,0.7,8.6
			c2.6,2.2,6.4,1.9,8.6-0.7c1.1-1.2,1.6-2.8,1.4-4.4c-0.1-1.6-0.9-3.1-2.1-4.1C296.4,125,292.6,125.3,290.4,127.9z"/>
	</g>
	<g>
		
			<linearGradient id="SVGID_00000105418748972166910100000011121492065489894064_" gradientUnits="userSpaceOnUse" x1="46.827" y1="104.0775" x2="448.1887" y2="104.8435">
			<stop  offset="4.792333e-09" style="stop-color:#00D7DF"/>
			<stop  offset="1" style="stop-color:#0188E7"/>
		</linearGradient>
		<path style="fill:url(#SVGID_00000105418748972166910100000011121492065489894064_);" d="M164.1,123.7l-19.4-14.9l-19.4,14.9
			l14.9-19.4l-14.9-19.4l19.4,14.9l19.4-14.9l-14.9,19.4L164.1,123.7z M144.6,105.4l4.7,3.6l-3.6-4.7l3.6-4.7l-4.7,3.6l-4.7-3.6
			l3.6,4.7l-3.6,4.7L144.6,105.4z"/>
	</g>
	<g>
		
			<linearGradient id="SVGID_00000052063040339377787900000006884085465344228533_" gradientUnits="userSpaceOnUse" x1="46.6076" y1="219.0318" x2="447.9693" y2="219.7977">
			<stop  offset="4.792333e-09" style="stop-color:#00D7DF"/>
			<stop  offset="1" style="stop-color:#0188E7"/>
		</linearGradient>
		<path style="fill:url(#SVGID_00000052063040339377787900000006884085465344228533_);" d="M393,239.1l-19.4-14.9l-19.4,14.9
			l14.9-19.4l-14.9-19.4l19.4,14.9l19.4-14.9l-14.9,19.4L393,239.1z M373.6,220.7l4.7,3.6l-3.6-4.7l3.6-4.7l-4.7,3.6l-4.7-3.6
			l3.6,4.7l-3.6,4.7L373.6,220.7z"/>
	</g>
</g>
</svg>
