<?xml version="1.0" encoding="utf-8"?>
<!-- Generator: Adobe Illustrator 26.0.0, SVG Export Plug-In . SVG Version: 6.00 Build 0)  -->
<svg version="1.1" id="Layer_1" xmlns="http://www.w3.org/2000/svg" xmlns:xlink="http://www.w3.org/1999/xlink" x="0px" y="0px"
	 viewBox="0 0 512 512" style="enable-background:new 0 0 512 512;" xml:space="preserve">
<style type="text/css">
	.st0{fill:url(#SVGID_1_);}
	.st1{fill:url(#SVGID_00000069400001554156240690000007589193733603456143_);}
	.st2{fill:url(#SVGID_00000140009478212087186940000016910355348033099922_);}
</style>
<g>
	<linearGradient id="SVGID_1_" gradientUnits="userSpaceOnUse" x1="92.2197" y1="258.7216" x2="412.95" y2="253.8373">
		<stop  offset="0" style="stop-color:#00D7DF"/>
		<stop  offset="1" style="stop-color:#0188E7"/>
	</linearGradient>
	<path class="st0" d="M375.2,74.1c-65.8-65.9-172.4-66-238.3-0.2c-65.8,65.8-65.9,172.4-0.1,238.3c21.1,21.2,46.4,35.4,73.2,43v20.5
		h15.2v111.7h61.2V375.7h15.5V355c26.6-7.7,52.4-22.1,73.1-42.7C440.9,246.5,440.9,139.9,375.2,74.1z M256,334.2
		c-77.9,0-141.1-63.2-141.1-141.1s63.2-141,141.1-141s141.1,63.1,141.1,141S333.9,334.2,256,334.2z"/>
	<g>
		
			<linearGradient id="SVGID_00000171699618866872789090000001202382464560271259_" gradientUnits="userSpaceOnUse" x1="91.2456" y1="194.7574" x2="411.9759" y2="189.8732">
			<stop  offset="0" style="stop-color:#00D7DF"/>
			<stop  offset="1" style="stop-color:#0188E7"/>
		</linearGradient>
		<path style="fill:url(#SVGID_00000171699618866872789090000001202382464560271259_);" d="M233.9,76.6l-5.3,28.9
			c-5.1,1.6-10,3.7-14.7,6.1l-24.3-16.7l-31.2,31.2l16.8,24.2c-2.4,4.7-4.5,9.6-6.1,14.7l-28.9,5.3v44l28.9,5.2
			c1.6,5.1,3.7,10,6.2,14.7l-16.9,24.2l31.2,31.2l24.2-16.7c4.7,2.4,9.7,4.5,14.8,6.1l5.3,28.9h44l5.3-28.9c5.1-1.6,10-3.7,14.7-6.1
			l24.2,16.7l31.2-31.2l-16.8-24.2c2.4-4.6,4.5-9.5,6.1-14.7l29-5.4v-44l-29-5.3c-1.6-5-3.6-10-6-14.7l16.7-24.3l-31.2-31.2
			L298,111.5c-4.7-2.4-9.6-4.5-14.7-6.1L278,76.5L233.9,76.6L233.9,76.6z M256,142.7c27.4,0,49.6,22.2,49.6,49.6
			s-22.2,49.6-49.6,49.6s-49.6-22.2-49.6-49.6S228.6,142.7,256,142.7L256,142.7z"/>
	</g>
	<g>
		
			<linearGradient id="SVGID_00000088852201406660671930000003163474111452782218_" gradientUnits="userSpaceOnUse" x1="91.2818" y1="197.1335" x2="412.0121" y2="192.2493">
			<stop  offset="0" style="stop-color:#00D7DF"/>
			<stop  offset="1" style="stop-color:#0188E7"/>
		</linearGradient>
		<path style="fill:url(#SVGID_00000088852201406660671930000003163474111452782218_);" d="M249.7,203.3l-2.6-37H263l-2.6,37H249.7z
			 M260.6,220.8c-1.5,1.5-3.4,2.3-5.6,2.3c-2.2,0-4.1-0.7-5.6-2.3c-1.5-1.5-2.3-3.4-2.3-5.6c0-2.2,0.7-4.1,2.3-5.6
			c1.5-1.5,3.4-2.3,5.6-2.3s4.1,0.7,5.6,2.3s2.3,3.4,2.3,5.6C262.9,217.3,262.2,219.2,260.6,220.8z"/>
	</g>
</g>
</svg>
