<?xml version="1.0" encoding="utf-8"?>
<!-- Generator: Adobe Illustrator 26.0.0, SVG Export Plug-In . SVG Version: 6.00 Build 0)  -->
<svg version="1.1" id="Layer_1" xmlns="http://www.w3.org/2000/svg" xmlns:xlink="http://www.w3.org/1999/xlink" x="0px" y="0px"
	 viewBox="0 0 512 512" style="enable-background:new 0 0 512 512;" xml:space="preserve">
<style type="text/css">
	.st0{fill:url(#SVGID_1_);}
	.st1{fill:url(#SVGID_00000148638048790395977490000011640559216395672996_);}
	.st2{fill:url(#SVGID_00000167398151001623913260000002882136963507907971_);}
	.st3{fill:url(#SVGID_00000158019329853682148080000016911285463044113293_);}
	.st4{fill:url(#SVGID_00000042018249398549560940000010248700130521277619_);}
</style>
<g>
	<linearGradient id="SVGID_1_" gradientUnits="userSpaceOnUse" x1="31.3561" y1="184.638" x2="456.3704" y2="183.866">
		<stop  offset="0" style="stop-color:#00D6DF"/>
		<stop  offset="1" style="stop-color:#0189E7"/>
	</linearGradient>
	<ellipse class="st0" cx="73.87" cy="184.56" rx="61.69" ry="60.01"/>
	
		<linearGradient id="SVGID_00000055702216529662919630000003219260115347414158_" gradientUnits="userSpaceOnUse" x1="31.5996" y1="318.7009" x2="456.6139" y2="317.929">
		<stop  offset="0" style="stop-color:#00D6DF"/>
		<stop  offset="1" style="stop-color:#0189E7"/>
	</linearGradient>
	<path style="fill:url(#SVGID_00000055702216529662919630000003219260115347414158_);" d="M114.03,347.12l0.06,32.11
		c0.85,6.4-2.81,8.72-9.59,8.21l-83.07,0.06c-5.6,0.65-8.35-2.13-8.27-8.3l-0.02-105.84c1.7-9.45,5.51-17.39,11.77-23.58
		c29.47,20.19,61.76,23.7,98.65,0l42.69,33.29l42.08,0c21,0.29,27.59,18.23,26.99,32.86c0.61,12.37-6.51,31.73-27.6,31.29
		L114.03,347.12z"/>
	
		<linearGradient id="SVGID_00000021836016461203093770000006025932028379543692_" gradientUnits="userSpaceOnUse" x1="31.3571" y1="185.1636" x2="456.3713" y2="184.3917">
		<stop  offset="0" style="stop-color:#00D6DF"/>
		<stop  offset="1" style="stop-color:#0189E7"/>
	</linearGradient>
	
		<ellipse style="fill:url(#SVGID_00000021836016461203093770000006025932028379543692_);" cx="438.13" cy="184.42" rx="61.69" ry="60.01"/>
	
		<linearGradient id="SVGID_00000133494876484611727230000015685355317563074451_" gradientUnits="userSpaceOnUse" x1="31.6007" y1="319.285" x2="456.615" y2="318.513">
		<stop  offset="0" style="stop-color:#00D6DF"/>
		<stop  offset="1" style="stop-color:#0189E7"/>
	</linearGradient>
	<path style="fill:url(#SVGID_00000133494876484611727230000015685355317563074451_);" d="M397.97,346.98l-0.06,32.11
		c-0.85,6.4,2.81,8.72,9.59,8.21l83.07,0.06c5.6,0.65,8.35-2.13,8.27-8.3l0.02-105.84c-1.7-9.45-5.51-17.39-11.77-23.58
		c-29.47,20.19-61.76,23.7-98.65,0l-42.69,33.29h-42.08c-21,0.29-27.59,18.23-26.99,32.86c-0.61,12.37,6.51,31.73,27.6,31.29
		L397.97,346.98z"/>
	
		<linearGradient id="SVGID_00000110470161910533500220000011376415191002097341_" gradientUnits="userSpaceOnUse" x1="31.6706" y1="357.8047" x2="456.6849" y2="357.0327">
		<stop  offset="0" style="stop-color:#00D6DF"/>
		<stop  offset="1" style="stop-color:#0189E7"/>
	</linearGradient>
	<path style="fill:url(#SVGID_00000110470161910533500220000011376415191002097341_);" d="M134.08,387.59v-20.25h74.99
		c22.82-0.55,38.82-13.39,46.99-40.35c3.67,22.67,22.47,40.29,45.52,40.69l76-0.34v20.25H134.08z"/>
</g>
</svg>
