<?xml version="1.0" encoding="utf-8"?>
<!-- Generator: Adobe Illustrator 26.0.0, SVG Export Plug-In . SVG Version: 6.00 Build 0)  -->
<svg version="1.1" id="Layer_1" xmlns="http://www.w3.org/2000/svg" xmlns:xlink="http://www.w3.org/1999/xlink" x="0px" y="0px"
	 viewBox="0 0 512 512" style="enable-background:new 0 0 512 512;" xml:space="preserve">
<style type="text/css">
	.st0{fill:url(#SVGID_1_);}
	.st1{fill:url(#SVGID_00000169560043720002268640000012162812872238397615_);}
	.st2{fill:url(#SVGID_00000136388104908196229150000010584732444385835692_);}
	.st3{fill:url(#SVGID_00000100367946496250144910000009855347943526278052_);}
	.st4{fill:url(#SVGID_00000110441106639419193780000007638198380488802945_);}
	.st5{fill:url(#SVGID_00000055669482428876179400000006527883555205836175_);}
	.st6{fill:url(#SVGID_00000029732803262569506020000010753484535831096707_);}
</style>
<g>
	<linearGradient id="SVGID_1_" gradientUnits="userSpaceOnUse" x1="32.0517" y1="263.2037" x2="472.222" y2="261.1612">
		<stop  offset="0" style="stop-color:#00D7DF"/>
		<stop  offset="1" style="stop-color:#0188E7"/>
	</linearGradient>
	<path class="st0" d="M230.26,223.44v78.46H63.6c-18.76,0-34.1-17.65-34.1-39.23c0-10.81,3.84-20.61,10.01-27.71
		c6.18-7.11,14.7-11.52,24.09-11.52H230.26z"/>
	
		<linearGradient id="SVGID_00000039855025904018245630000013058066015021771164_" gradientUnits="userSpaceOnUse" x1="32.0563" y1="264.1954" x2="472.2266" y2="262.1528">
		<stop  offset="0" style="stop-color:#00D7DF"/>
		<stop  offset="1" style="stop-color:#0188E7"/>
	</linearGradient>
	<path style="fill:url(#SVGID_00000039855025904018245630000013058066015021771164_);" d="M482.5,262.67
		c0,10.81-3.84,20.61-10.01,27.71c-6.18,7.11-14.7,11.52-24.09,11.52H272.73v-78.46H448.4C467.16,223.44,482.5,241.09,482.5,262.67z
		"/>
	<g>
		
			<linearGradient id="SVGID_00000097497973715415657310000007544394251001919164_" gradientUnits="userSpaceOnUse" x1="31.4633" y1="136.3977" x2="471.6335" y2="134.3551">
			<stop  offset="0" style="stop-color:#00D7DF"/>
			<stop  offset="1" style="stop-color:#0188E7"/>
		</linearGradient>
		<path style="fill:url(#SVGID_00000097497973715415657310000007544394251001919164_);" d="M481.86,135.36
			c0,10.81-3.84,20.61-10.01,27.71c-6.18,7.11-14.7,11.52-24.09,11.52H63.6V96.13h384.15C466.52,96.13,481.86,113.77,481.86,135.36z
			"/>
		
			<linearGradient id="SVGID_00000048494370731768066220000014895756460389354135_" gradientUnits="userSpaceOnUse" x1="31.4553" y1="134.6645" x2="471.6255" y2="132.622">
			<stop  offset="0" style="stop-color:#00D7DF"/>
			<stop  offset="1" style="stop-color:#0188E7"/>
		</linearGradient>
		
			<rect x="30.14" y="73.92" style="fill:url(#SVGID_00000048494370731768066220000014895756460389354135_);" width="23.16" height="121.39"/>
	</g>
	<g>
		
			<linearGradient id="SVGID_00000028302647018202933410000004629050214646159020_" gradientUnits="userSpaceOnUse" x1="32.6449" y1="391.0223" x2="472.8151" y2="388.9798">
			<stop  offset="0" style="stop-color:#00D7DF"/>
			<stop  offset="1" style="stop-color:#0188E7"/>
		</linearGradient>
		<path style="fill:url(#SVGID_00000028302647018202933410000004629050214646159020_);" d="M30.14,389.98
			c0,10.81,3.84,20.61,10.01,27.71c6.18,7.11,14.7,11.52,24.09,11.52H448.4v-78.46H64.25C45.48,350.75,30.14,368.4,30.14,389.98z"/>
		
			<linearGradient id="SVGID_00000078034717091892879230000005955395356195429255_" gradientUnits="userSpaceOnUse" x1="32.6421" y1="390.4212" x2="472.8123" y2="388.3786">
			<stop  offset="0" style="stop-color:#00D7DF"/>
			<stop  offset="1" style="stop-color:#0188E7"/>
		</linearGradient>
		
			<rect x="457.94" y="327.7" style="fill:url(#SVGID_00000078034717091892879230000005955395356195429255_);" width="23.16" height="121.39"/>
	</g>
	
		<linearGradient id="SVGID_00000024713985364630172810000009752529781566966410_" gradientUnits="userSpaceOnUse" x1="32.059" y1="264.776" x2="472.2292" y2="262.7335">
		<stop  offset="0" style="stop-color:#00D7DF"/>
		<stop  offset="1" style="stop-color:#0188E7"/>
	</linearGradient>
	
		<rect x="239.98" y="203.06" style="fill:url(#SVGID_00000024713985364630172810000009752529781566966410_);" width="23.16" height="121.39"/>
</g>
</svg>
