<?xml version="1.0" encoding="utf-8"?>
<!-- Generator: Adobe Illustrator 26.0.0, SVG Export Plug-In . SVG Version: 6.00 Build 0)  -->
<svg version="1.1" id="Layer_1" xmlns="http://www.w3.org/2000/svg" xmlns:xlink="http://www.w3.org/1999/xlink" x="0px" y="0px"
	 viewBox="0 0 512 512" style="enable-background:new 0 0 512 512;" xml:space="preserve">
<style type="text/css">
	.st0{fill:url(#SVGID_1_);}
	.st1{fill:url(#SVGID_00000099638776193453335990000004421069915341058970_);}
	.st2{fill:url(#SVGID_00000083067967024951513510000002727917327279675565_);}
	.st3{fill:url(#SVGID_00000032613766007158292120000010532003854360550334_);}
	.st4{fill:url(#SVGID_00000165228389059173714800000006404723338643655841_);}
	.st5{fill:url(#SVGID_00000084501343233972004430000010074313026547268002_);}
	.st6{fill:url(#SVGID_00000085943870564793569650000014780904659055217312_);}
	.st7{fill:url(#SVGID_00000127012527638966817740000005989979409306846602_);}
	.st8{fill:url(#SVGID_00000172408300860383113960000017020739969007777444_);}
</style>
<g>
	<g>
		<g>
			
				<linearGradient id="SVGID_1_" gradientUnits="userSpaceOnUse" x1="55.3667" y1="279.5023" x2="456.7984" y2="276.5176" gradientTransform="matrix(1 0 0 -1 0 512)">
				<stop  offset="0" style="stop-color:#00D7DF"/>
				<stop  offset="1" style="stop-color:#0188E7"/>
			</linearGradient>
			<path class="st0" d="M122.7,167.3c-3.1,13.1-4.6,26.9-3.8,40.8l1.6,31.7c-15.7,15.4-24,38.6-18.2,63.3
				c4.1,17.8,16.5,32.9,32.5,41.9c11.1,6.2,21.6,8.7,31.7,8.7c8.3,0,15.2,6.3,15.2,14.8v18c0,14.8,10,24.6,22.2,24.6h18.7V389
				c0-6.1,5-11.1,11.1-11.1c6.1,0,11.1,5,11.1,11.1v22.2h22.2V389c0-6.1,5-11.1,11.1-11.1c6.1,0,11.1,5,11.1,11.1v22.2h18.7
				c12.2,0,22.2-10,22.2-22.2v-20.4c0-8.3,6.9-14.8,15.2-14.8c10.1,0,20.6-2.5,31.7-8.7c16-9,28.4-24,32.5-41.9
				c5.7-24.7-2.5-47.9-18.2-63.3l1.6-31.7c0.7-14-0.7-27.7-3.8-40.8l-7.2-22.2c-20.4-49.8-67.2-86.6-123.9-88.7h-4
				c-56.6,2.1-103.4,38.9-123.9,88.7L122.7,167.3z M311.2,189.4c12.2,0,22.2,10,22.2,22.2c0,12.2-10,22.2-22.2,22.2
				c-12.2,0-22.2-10-22.2-22.2S299,189.4,311.2,189.4z M223.7,306.4l6.1-12.2c4.9-10,14.8-16,26-16s21,6.1,26,16l6.1,12.2
				c2.8,5.5,0.5,12.2-4.9,14.8l0,0c-1.6,0.9-3.4,1.2-5,1.2c-4.1,0-8-2.2-9.8-6.1l-6.2-12.3c-2.3-4.6-9.8-4.6-12.2,0l-6.2,12.3
				c-2.7,5.4-9.3,7.7-14.8,4.9C223.1,318.6,221,312,223.7,306.4z M200.3,189.4c12.2,0,22.2,10,22.2,22.2c0,12.2-10,22.2-22.2,22.2
				c-12.2,0-22.2-10-22.2-22.2S188.1,189.4,200.3,189.4z"/>
			
				<linearGradient id="SVGID_00000010288600146319244360000002062439062289624224_" gradientUnits="userSpaceOnUse" x1="53.9691" y1="91.5373" x2="455.4008" y2="88.5527" gradientTransform="matrix(1 0 0 -1 0 512)">
				<stop  offset="0" style="stop-color:#00D7DF"/>
				<stop  offset="1" style="stop-color:#0188E7"/>
			</linearGradient>
			<path style="fill:url(#SVGID_00000010288600146319244360000002062439062289624224_);" d="M277.9,433.3c6.1,0,11.1-5,11.1-11.1
				v-11.1h-22.2v11.1C266.9,428.3,271.9,433.3,277.9,433.3z"/>
			
				<linearGradient id="SVGID_00000109713222354637432550000002609703427680673168_" gradientUnits="userSpaceOnUse" x1="53.9667" y1="91.2078" x2="455.3984" y2="88.2231" gradientTransform="matrix(1 0 0 -1 0 512)">
				<stop  offset="0" style="stop-color:#00D7DF"/>
				<stop  offset="1" style="stop-color:#0188E7"/>
			</linearGradient>
			<path style="fill:url(#SVGID_00000109713222354637432550000002609703427680673168_);" d="M233.6,433.3c6.1,0,11.1-5,11.1-11.1
				v-11.1h-22.2v11.1C222.5,428.3,227.5,433.3,233.6,433.3z"/>
		</g>
		<g>
			
				<linearGradient id="SVGID_00000085245955890965426600000002606633240154202280_" gradientUnits="userSpaceOnUse" x1="56.3167" y1="407.2873" x2="457.7485" y2="404.3027" gradientTransform="matrix(1 0 0 -1 0 512)">
				<stop  offset="0" style="stop-color:#00D7DF"/>
				<stop  offset="1" style="stop-color:#0188E7"/>
			</linearGradient>
			<path style="fill:url(#SVGID_00000085245955890965426600000002606633240154202280_);" d="M463.9,44c0,7.9-4.9,14.6-11.9,17.3
				v128.2h-41v-12.1h28.9V61.6c-7.5-2.3-13-9.3-13-17.7c0-10.2,8.3-18.5,18.5-18.5C455.6,25.5,463.9,33.8,463.9,44z"/>
			
				<linearGradient id="SVGID_00000111188671896953249580000017589515700322738857_" gradientUnits="userSpaceOnUse" x1="56.2966" y1="404.5785" x2="457.7283" y2="401.5939" gradientTransform="matrix(1 0 0 -1 0 512)">
				<stop  offset="0" style="stop-color:#00D7DF"/>
				<stop  offset="1" style="stop-color:#0188E7"/>
			</linearGradient>
			<path style="fill:url(#SVGID_00000111188671896953249580000017589515700322738857_);" d="M48.6,44c0,7.9,4.9,14.6,11.9,17.3
				v128.2h41v-12.1H72.6V61.6c7.5-2.3,13-9.3,13-17.7c0-10.2-8.3-18.5-18.5-18.5C56.9,25.5,48.6,33.8,48.6,44z"/>
			
				<linearGradient id="SVGID_00000061463652420846242220000015519223997342855076_" gradientUnits="userSpaceOnUse" x1="54.1092" y1="110.37" x2="455.5409" y2="107.3854" gradientTransform="matrix(1 0 0 -1 0 512)">
				<stop  offset="0" style="stop-color:#00D7DF"/>
				<stop  offset="1" style="stop-color:#0188E7"/>
			</linearGradient>
			<path style="fill:url(#SVGID_00000061463652420846242220000015519223997342855076_);" d="M463.4,468c0-7.9-4.9-14.6-11.9-17.3
				V322.6h-41v12.1h28.9v115.7c-7.5,2.3-13,9.3-13,17.7c0,10.2,8.3,18.5,18.5,18.5C455.1,486.5,463.4,478.2,463.4,468z"/>
			
				<linearGradient id="SVGID_00000058554710927064917240000016251674867476617603_" gradientUnits="userSpaceOnUse" x1="54.089" y1="107.6612" x2="455.5208" y2="104.6766" gradientTransform="matrix(1 0 0 -1 0 512)">
				<stop  offset="0" style="stop-color:#00D7DF"/>
				<stop  offset="1" style="stop-color:#0188E7"/>
			</linearGradient>
			<path style="fill:url(#SVGID_00000058554710927064917240000016251674867476617603_);" d="M48.1,468c0-7.9,4.9-14.6,11.9-17.3
				V322.6h41v12.1H72.1v115.7c7.5,2.3,13,9.3,13,17.7c0,10.2-8.3,18.5-18.5,18.5C56.4,486.5,48.1,478.2,48.1,468z"/>
		</g>
	</g>
	
		<linearGradient id="SVGID_00000089564176817836900170000009889307611942878626_" gradientUnits="userSpaceOnUse" x1="55.5299" y1="301.4665" x2="456.9617" y2="298.4819" gradientTransform="matrix(1 0 0 -1 0 512)">
		<stop  offset="0" style="stop-color:#00D7DF"/>
		<stop  offset="1" style="stop-color:#0188E7"/>
	</linearGradient>
	<circle style="fill:url(#SVGID_00000089564176817836900170000009889307611942878626_);" cx="199.5" cy="211.6" r="12.3"/>
	
		<linearGradient id="SVGID_00000000187375870866163140000014454093819580563125_" gradientUnits="userSpaceOnUse" x1="55.5361" y1="302.2969" x2="456.9678" y2="299.3123" gradientTransform="matrix(1 0 0 -1 0 512)">
		<stop  offset="0" style="stop-color:#00D7DF"/>
		<stop  offset="1" style="stop-color:#0188E7"/>
	</linearGradient>
	<circle style="fill:url(#SVGID_00000000187375870866163140000014454093819580563125_);" cx="311.2" cy="211.6" r="12.3"/>
</g>
</svg>
