<?xml version="1.0" encoding="utf-8"?>
<!-- Generator: Adobe Illustrator 26.0.0, SVG Export Plug-In . SVG Version: 6.00 Build 0)  -->
<svg version="1.1" id="Layer_1" xmlns="http://www.w3.org/2000/svg" xmlns:xlink="http://www.w3.org/1999/xlink" x="0px" y="0px"
	 viewBox="0 0 512 512" style="enable-background:new 0 0 512 512;" xml:space="preserve">
<style type="text/css">
	.st0{fill-rule:evenodd;clip-rule:evenodd;fill:url(#SVGID_1_);}
	.st1{fill-rule:evenodd;clip-rule:evenodd;fill:url(#SVGID_00000091716609734114794920000017679226969906805431_);}
</style>
<g>
	<linearGradient id="SVGID_1_" gradientUnits="userSpaceOnUse" x1="30.5734" y1="263.1889" x2="487.084" y2="247.8698">
		<stop  offset="0" style="stop-color:#00D7DF"/>
		<stop  offset="1" style="stop-color:#0188E7"/>
	</linearGradient>
	<path class="st0" d="M475,141.1L397.9,64c-16.2-16.1-42.8-16.1-58.9,0l-94.1,94.1c-16.2,16.2-16.2,42.8,0,58.9
		c3.5,3.5,8.7,9.8,13.3,11.4l17.8-17.8c-1.6-4.6-7.9-9.8-11.4-13.3c-5.4-5.4-5.4-14.3,0-19.7l94.1-94.1c5.4-5.4,14.3-5.4,19.7,0
		l77.1,77.1c5.4,5.4,5.4,14.3,0,19.7l-94.1,94.1c-5.4,5.4-14.3,5.4-19.7,0c-3.5-3.5-8.7-9.8-13.3-11.4l-17.8,17.8
		c1.6,4.6,7.9,9.8,11.4,13.3c16.2,16.2,42.8,16.2,58.9,0L475,200C491.2,183.8,491.2,157.2,475,141.1z M369.5,397.1l-25.9-19.5
		l15.1,28.3C364.6,413.9,376.8,404,369.5,397.1z M296.4,420.2l-3.4-32.2l-10.4,30.4C280.7,428,296.3,430.2,296.4,420.2z M394,329.2
		l-32.3,2.9l30.2,10.8C401.6,345,404,329.5,394,329.2z M272.4,331.1c-2.5-4.3-5.9-11.7-9.9-14.5l-21.8,12.6
		c0.4,4.8,5.1,11.5,7.6,15.8c3.8,6.6,1.6,15.1-5.1,19l-115.3,66.6c-6.6,3.8-15.2,1.5-19-5.1l-54.5-94.4c-3.8-6.6-1.5-15.2,5.1-19
		l115.3-66.6c6.6-3.8,15.2-1.5,19,5.1c2.5,4.3,5.9,11.7,9.9,14.5l21.8-12.6c-0.4-4.8-5.1-11.5-7.6-15.8
		c-11.4-19.8-37.1-26.7-56.9-15.3L45.6,288c-19.8,11.4-26.7,37.1-15.2,56.9l54.5,94.4c11.4,19.8,37.1,26.7,56.9,15.3l115.3-66.6
		C277,376.6,283.8,351,272.4,331.1z"/>
	
		<linearGradient id="SVGID_00000143590809335329491740000006607651599054739843_" gradientUnits="userSpaceOnUse" x1="30.8011" y1="269.9736" x2="487.3117" y2="254.6544">
		<stop  offset="0" style="stop-color:#00D7DF"/>
		<stop  offset="1" style="stop-color:#0188E7"/>
	</linearGradient>
	<path style="fill-rule:evenodd;clip-rule:evenodd;fill:url(#SVGID_00000143590809335329491740000006607651599054739843_);" d="
		M344,215.3l-67.3,67.3l-0.8,0.8c-0.8,0.8-1.7,1.5-2.6,2.1l-1.7,1L198.8,331c-6.7,4.1-15.5,1.9-19.4-4.9l0,0
		c-3.8-6.6-1.6-15,4.9-18.9l70.3-42.6c1-0.6,1.8-1.3,2.6-2.1l67-67c5.5-5.5,14.4-5.5,19.8,0C349.5,200.9,349.5,209.8,344,215.3z"/>
</g>
</svg>
