<?xml version="1.0" encoding="utf-8"?>
<!-- Generator: Adobe Illustrator 26.0.0, SVG Export Plug-In . SVG Version: 6.00 Build 0)  -->
<svg version="1.1" id="Layer_1" xmlns="http://www.w3.org/2000/svg" xmlns:xlink="http://www.w3.org/1999/xlink" x="0px" y="0px"
	 viewBox="0 0 512 512" style="enable-background:new 0 0 512 512;" xml:space="preserve">
<style type="text/css">
	.st0{fill:url(#SVGID_1_);}
	.st1{fill:url(#SVGID_00000128485503285125128710000009399855065562607747_);}
	.st2{fill:url(#SVGID_00000038413875214813090040000013349573075932581284_);}
	.st3{fill:url(#SVGID_00000023996364018353293260000013485480068918264450_);}
	.st4{fill:url(#SVGID_00000069387846157685930370000004860688767089252791_);}
	.st5{fill:url(#SVGID_00000018921722029605819280000011177369101494732731_);}
	.st6{fill:url(#SVGID_00000006698385876865044490000004172009575240732815_);}
	.st7{fill:url(#SVGID_00000106105965033985278690000010948433777364218771_);}
	.st8{fill:url(#SVGID_00000020369305766674221750000002198227566518286235_);}
	.st9{fill:url(#SVGID_00000040559698868726030760000007081258530660003230_);}
</style>
<g>
	<g>
		
			<linearGradient id="SVGID_1_" gradientUnits="userSpaceOnUse" x1="21.7818" y1="369.9146" x2="488.907" y2="367.6579" gradientTransform="matrix(1 0 0 -1 0 512)">
			<stop  offset="0" style="stop-color:#00D7DF"/>
			<stop  offset="1" style="stop-color:#0188E7"/>
		</linearGradient>
		<path class="st0" d="M376.7,202c15.1,0,27.4-12.3,27.4-27.4V113c0-15.1-12.3-27.4-27.4-27.4c-15.2,0-27.4,12.3-27.4,27.4v61.5
			C349.3,189.6,361.6,202,376.7,202z"/>
		
			<linearGradient id="SVGID_00000040547379439971466940000016532928083464129923_" gradientUnits="userSpaceOnUse" x1="21.8044" y1="374.5966" x2="488.9296" y2="372.3399" gradientTransform="matrix(1 0 0 -1 0 512)">
			<stop  offset="0" style="stop-color:#00D7DF"/>
			<stop  offset="1" style="stop-color:#0188E7"/>
		</linearGradient>
		<path style="fill:url(#SVGID_00000040547379439971466940000016532928083464129923_);" d="M310.9,200.3c15.2,0,27.5-12.3,27.5-27.4
			v-68.2c0-15.2-12.3-27.4-27.5-27.4c-15.1,0-27.4,12.3-27.4,27.4v68.2C283.5,188.1,295.9,200.3,310.9,200.3z"/>
		
			<linearGradient id="SVGID_00000075149932845512008920000008231236192899709867_" gradientUnits="userSpaceOnUse" x1="21.8302" y1="379.9295" x2="488.9554" y2="377.6729" gradientTransform="matrix(1 0 0 -1 0 512)">
			<stop  offset="0" style="stop-color:#00D7DF"/>
			<stop  offset="1" style="stop-color:#0188E7"/>
		</linearGradient>
		<path style="fill:url(#SVGID_00000075149932845512008920000008231236192899709867_);" d="M217.8,152.1
			c10.3,6.9,17.1,18.6,17.1,31.9c0,2.9-0.3,5.8-1,8.5c3.6,1.6,7.4,2.5,11.4,2.5c15.2,0,27.4-12.3,27.4-27.4V98.7
			c0-15.1-12.3-27.4-27.4-27.4s-27.4,12.3-27.4,27.4h-0.1c0.1,0.7,0.1,1.3,0.1,2L217.8,152.1z"/>
		
			<linearGradient id="SVGID_00000137839439332322159340000005272883876407579814_" gradientUnits="userSpaceOnUse" x1="21.9301" y1="400.6276" x2="489.0554" y2="398.371" gradientTransform="matrix(1 0 0 -1 0 512)">
			<stop  offset="0" style="stop-color:#00D7DF"/>
			<stop  offset="1" style="stop-color:#0188E7"/>
		</linearGradient>
		<path style="fill:url(#SVGID_00000137839439332322159340000005272883876407579814_);" d="M206.9,147.2v-46.5
			c0-12.9-12.3-23.5-27.4-23.5c-15.1,0-27.4,10.5-27.4,23.5v45h44.5C200.2,145.7,203.7,146.2,206.9,147.2L206.9,147.2z"/>
		
			<linearGradient id="SVGID_00000145049809901549340790000008913508346377033883_" gradientUnits="userSpaceOnUse" x1="20.3972" y1="83.3181" x2="487.5225" y2="81.0615" gradientTransform="matrix(1 0 0 -1 0 512)">
			<stop  offset="0" style="stop-color:#00D7DF"/>
			<stop  offset="1" style="stop-color:#0188E7"/>
		</linearGradient>
		<path style="fill:url(#SVGID_00000145049809901549340790000008913508346377033883_);" d="M342.4,419H182v21.7h160.4V419z"/>
		
			<linearGradient id="SVGID_00000165212234195406226780000016476655157561722757_" gradientUnits="userSpaceOnUse" x1="21.1083" y1="230.5125" x2="488.2336" y2="228.2558" gradientTransform="matrix(1 0 0 -1 0 512)">
			<stop  offset="0" style="stop-color:#00D7DF"/>
			<stop  offset="1" style="stop-color:#0188E7"/>
		</linearGradient>
		<path style="fill:url(#SVGID_00000165212234195406226780000016476655157561722757_);" d="M363.9,353.1c-2.1,1.6-4.5,2.9-6.7,4.3
			c-6.6,3.8-14.7,8.5-14.7,19.3V408H182v-31.3c0-10.8-8.1-15.5-14.6-19.3c-2.3-1.4-4.7-2.7-6.8-4.3C85.1,295,99.2,191.4,100.2,185.2
			c5.6-19.3,14.7-28.6,27.5-28.6h68.8c15.2,0,27.4,12.3,27.4,27.4c0,15.1-12.3,27.4-27.4,27.4h-34.4c-3,0-5.4,2.4-5.4,5.4
			s2.4,5.4,5.4,5.4c15.1,0,27.4,12.3,27.4,27.4v30.6c0,3,2.4,5.4,5.4,5.4s5.4-2.4,5.4-5.4v-30.6c0-10.8-4.5-20.5-11.6-27.4h7.7
			c14.3,0,26.8-7.9,33.4-19.6c4.8,2.1,10,3.2,15.3,3.2c13,0,24.4-6.5,31.3-16.3c6.2,12.8,19.3,21.6,34.4,21.6
			c13.6,0,25.6-7.2,32.4-17.9c6.6,11.7,19.1,19.6,33.4,19.6c14.2,0,26.6-7.8,33.2-19.3C416.4,233.4,420.1,310.2,363.9,353.1
			L363.9,353.1z M143.7,314.2c2.6-1.6,3.4-4.9,1.8-7.5l-0.3-0.5c-1.1-1.9-3.3-5.4-4.7-8.3c-1.4-2.7-4.6-3.7-7.3-2.3
			c-2.7,1.4-3.7,4.6-2.4,7.3c1.6,3.2,3.9,7,5.1,8.9l0.3,0.5c1,1.7,2.8,2.6,4.7,2.6C141.8,314.9,142.7,314.7,143.7,314.2L143.7,314.2
			z M173.5,336.3c-6.9-5.3-13.3-11.4-18.9-17.9c-1.9-2.3-5.4-2.6-7.7-0.7c-2.3,2-2.6,5.4-0.6,7.7c6.1,7.2,13,13.7,20.5,19.5
			c1,0.8,2.2,1.1,3.3,1.1c1.6,0,3.3-0.7,4.3-2.1C176.3,341.6,175.9,338.1,173.5,336.3L173.5,336.3z"/>
	</g>
	
		<linearGradient id="SVGID_00000124162711004296514090000016962533288751201178_" gradientUnits="userSpaceOnUse" x1="21.817" y1="377.2014" x2="488.9422" y2="374.9448" gradientTransform="matrix(1 0 0 -1 0 512)">
		<stop  offset="0" style="stop-color:#00D7DF"/>
		<stop  offset="1" style="stop-color:#0188E7"/>
	</linearGradient>
	<polygon style="fill:url(#SVGID_00000124162711004296514090000016962533288751201178_);" points="75.8,157.7 21.1,136.5 
		30.5,112.2 85.2,133.5 	"/>
	
		<linearGradient id="SVGID_00000079472228788084442990000001692331419586109622_" gradientUnits="userSpaceOnUse" x1="21.4474" y1="300.7068" x2="488.5727" y2="298.4501" gradientTransform="matrix(1 0 0 -1 0 512)">
		<stop  offset="0" style="stop-color:#00D7DF"/>
		<stop  offset="1" style="stop-color:#0188E7"/>
	</linearGradient>
	<polygon style="fill:url(#SVGID_00000079472228788084442990000001692331419586109622_);" points="76.5,188.7 21.8,210 31.3,234.2 
		86,213 	"/>
	
		<linearGradient id="SVGID_00000108990161630180434740000008777491060404148641_" gradientUnits="userSpaceOnUse" x1="21.761" y1="365.6116" x2="488.8863" y2="363.3549" gradientTransform="matrix(1 0 0 -1 0 512)">
		<stop  offset="0" style="stop-color:#00D7DF"/>
		<stop  offset="1" style="stop-color:#0188E7"/>
	</linearGradient>
	<polygon style="fill:url(#SVGID_00000108990161630180434740000008777491060404148641_);" points="436.2,171.3 490.9,150 
		481.5,125.7 426.8,147 	"/>
	
		<linearGradient id="SVGID_00000047749753889689538880000016587651647885463454_" gradientUnits="userSpaceOnUse" x1="21.3917" y1="289.1597" x2="488.5169" y2="286.9031" gradientTransform="matrix(1 0 0 -1 0 512)">
		<stop  offset="0" style="stop-color:#00D7DF"/>
		<stop  offset="1" style="stop-color:#0188E7"/>
	</linearGradient>
	<polygon style="fill:url(#SVGID_00000047749753889689538880000016587651647885463454_);" points="435.5,202.2 490.2,223.5 
		480.7,247.7 426,226.5 	"/>
</g>
</svg>
