<?xml version="1.0" encoding="utf-8"?>
<!-- Generator: Adobe Illustrator 26.0.0, SVG Export Plug-In . SVG Version: 6.00 Build 0)  -->
<svg version="1.1" id="Layer_1" xmlns="http://www.w3.org/2000/svg" xmlns:xlink="http://www.w3.org/1999/xlink" x="0px" y="0px"
	 viewBox="0 0 512 512" style="enable-background:new 0 0 512 512;" xml:space="preserve">
<style type="text/css">
	.st0{fill:url(#SVGID_1_);}
	.st1{fill:url(#SVGID_00000132079478607640858400000011749023356246830224_);}
</style>
<g>
	<g>
		<linearGradient id="SVGID_1_" gradientUnits="userSpaceOnUse" x1="41.3375" y1="382.4877" x2="466.9116" y2="385.2693">
			<stop  offset="0" style="stop-color:#00D7DF"/>
			<stop  offset="1" style="stop-color:#0188E7"/>
		</linearGradient>
		<path class="st0" d="M303,397.2h-84.4c-7.1,0-12.9-5.8-12.9-12.9v-0.9c0-7.1,5.8-12.9,12.9-12.9H303c7.1,0,12.9,5.8,12.9,12.9
			l0,0.8C315.9,391.4,310.1,397.2,303,397.2z M218.6,378.8c-2.6,0-4.7,2.1-4.7,4.7v0.8c0,2.7,2.1,4.8,4.7,4.8H303
			c2.6,0,4.7-2.1,4.7-4.7l0-0.9c0-2.6-2.1-4.7-4.7-4.7H218.6z"/>
	</g>
	
		<linearGradient id="SVGID_00000065069403789527928370000005420694671040741535_" gradientUnits="userSpaceOnUse" x1="42.1762" y1="254.1668" x2="467.7503" y2="256.9483">
		<stop  offset="0" style="stop-color:#00D7DF"/>
		<stop  offset="1" style="stop-color:#0188E7"/>
	</linearGradient>
	<path style="fill:url(#SVGID_00000065069403789527928370000005420694671040741535_);" d="M451.6,139.9h-31.3V50.8
		c0-16.6-15.9-30.1-35.5-30.1H127.2c-19.6,0-35.5,13.5-35.5,30.1v65.6H60.4c-9.9,0-18,6.1-18,13.5v244.2c0,7.5,8.1,13.5,18,13.5
		h92.8c2.1,57.5,49.5,103.6,107.5,103.6s105.4-46.1,107.5-103.6h83.3c9.9,0,18-6.1,18-13.5V153.5C469.6,146,461.5,139.9,451.6,139.9
		z M101.5,50.8c0-12,11.5-21.8,25.8-21.8h257.5c14.2,0,25.8,9.8,25.8,21.8v89.1h-215c-2.1,0-4.1-0.5-5.6-1.4L158,119.4
		c-3.2-1.9-7.2-3-11.2-3h-45.2V50.8z M260.8,482.2c-53,0-96.3-42.1-98.4-94.5c-0.1-1.3-0.1-2.7-0.1-4c0-1.4,0-2.9,0.1-4.3
		c2.3-52.3,45.5-94.2,98.4-94.2s96.2,41.9,98.4,94.2c0.1,1.4,0.1,2.9,0.1,4.3c0,1.3,0,2.7-0.1,4
		C357.1,440.1,313.7,482.2,260.8,482.2z M459.8,374.1c0,2.9-3.8,5.2-8.3,5.2h-83.3C366,322,318.6,276.1,260.8,276.1
		S155.5,322,153.3,379.4H60.5c-4.5,0-8.3-2.4-8.3-5.2V130c0-2.8,3.8-5.2,8.2-5.2h86.3c2.1,0,4.1,0.5,5.6,1.4l32,19.1
		c3.2,1.9,7.2,2.9,11.2,2.9h256c4.5,0,8.3,2.4,8.3,5.3V374.1z"/>
</g>
</svg>
