<?xml version="1.0" encoding="utf-8"?>
<!-- Generator: Adobe Illustrator 26.0.0, SVG Export Plug-In . SVG Version: 6.00 Build 0)  -->
<svg version="1.1" id="Layer_1" xmlns="http://www.w3.org/2000/svg" xmlns:xlink="http://www.w3.org/1999/xlink" x="0px" y="0px"
	 viewBox="0 0 512 512" style="enable-background:new 0 0 512 512;" xml:space="preserve">
<style type="text/css">
	.st0{fill:url(#SVGID_1_);}
	.st1{fill:url(#SVGID_00000134943348207559180820000013686798337840546476_);}
	.st2{fill:url(#SVGID_00000039111759715170113700000005192651299095028148_);}
	.st3{fill:url(#SVGID_00000157304179992027197420000011241510552287475867_);}
	.st4{fill:url(#SVGID_00000162321063098398189520000017332774210096843182_);}
	.st5{fill:url(#SVGID_00000054965963942561906950000002867739789869444534_);}
	.st6{fill:url(#SVGID_00000177468879345673024290000008043881858181757591_);}
	.st7{fill:url(#SVGID_00000139974303732570527240000011787986763962689206_);}
</style>
<g>
	
		<linearGradient id="SVGID_1_" gradientUnits="userSpaceOnUse" x1="13.2885" y1="60.2458" x2="493.5247" y2="58.4704" gradientTransform="matrix(1 0 0 -1 0 512)">
		<stop  offset="0" style="stop-color:#00D7DF"/>
		<stop  offset="1" style="stop-color:#0188E7"/>
	</linearGradient>
	<path class="st0" d="M377.9,472.9H133.9c2.6-22.8,22.1-40.6,45.5-40.6h153C355.9,432.3,375.3,450.1,377.9,472.9L377.9,472.9z"/>
	
		<linearGradient id="SVGID_00000110471415820230961980000007481869927441790906_" gradientUnits="userSpaceOnUse" x1="13.4778" y1="111.4374" x2="493.7141" y2="109.6621" gradientTransform="matrix(1 0 0 -1 0 512)">
		<stop  offset="0" style="stop-color:#00D7DF"/>
		<stop  offset="1" style="stop-color:#0188E7"/>
	</linearGradient>
	<path style="fill:url(#SVGID_00000110471415820230961980000007481869927441790906_);" d="M224.9,381.3h62.1v40.4h-62.1V381.3z"/>
	
		<linearGradient id="SVGID_00000047061434035678185330000005087970573233998774_" gradientUnits="userSpaceOnUse" x1="13.6959" y1="170.4432" x2="493.9322" y2="168.6678" gradientTransform="matrix(1 0 0 -1 0 512)">
		<stop  offset="0" style="stop-color:#00D7DF"/>
		<stop  offset="1" style="stop-color:#0188E7"/>
	</linearGradient>
	<path style="fill:url(#SVGID_00000047061434035678185330000005087970573233998774_);" d="M497.1,314.3v39c0,9.6-7.7,17.3-17.3,17.3
		H32.1c-9.6,0-17.3-7.7-17.3-17.3v-39H497.1z"/>
	
		<linearGradient id="SVGID_00000110438371779025965640000002738262716195398815_" gradientUnits="userSpaceOnUse" x1="14.2073" y1="308.7639" x2="494.4435" y2="306.9886" gradientTransform="matrix(1 0 0 -1 0 512)">
		<stop  offset="0" style="stop-color:#00D7DF"/>
		<stop  offset="1" style="stop-color:#0188E7"/>
	</linearGradient>
	<path style="fill:url(#SVGID_00000110438371779025965640000002738262716195398815_);" d="M254.7,195.9l9.6,16.5h-18.1L254.7,195.9z
		"/>
	
		<linearGradient id="SVGID_00000090277821671951530070000007638822272979999921_" gradientUnits="userSpaceOnUse" x1="14.3765" y1="354.5379" x2="494.6126" y2="352.7626" gradientTransform="matrix(1 0 0 -1 0 512)">
		<stop  offset="0" style="stop-color:#00D7DF"/>
		<stop  offset="1" style="stop-color:#0188E7"/>
	</linearGradient>
	<path style="fill:url(#SVGID_00000090277821671951530070000007638822272979999921_);" d="M218.4,143.5c8.1,0,14.7,6.6,14.7,14.7
		s-6.6,14.7-14.7,14.7s-14.7-6.6-14.7-14.7C203.7,150.1,210.3,143.5,218.4,143.5z"/>
	
		<linearGradient id="SVGID_00000168813016762442114210000001716342890586321847_" gradientUnits="userSpaceOnUse" x1="14.3674" y1="354.8155" x2="494.6037" y2="353.0402" gradientTransform="matrix(1 0 0 -1 0 512)">
		<stop  offset="0" style="stop-color:#00D7DF"/>
		<stop  offset="1" style="stop-color:#0188E7"/>
	</linearGradient>
	<path style="fill:url(#SVGID_00000168813016762442114210000001716342890586321847_);" d="M293.5,143.5c8.1,0,14.7,6.6,14.7,14.7
		s-6.6,14.7-14.7,14.7c-8.1,0-14.7-6.6-14.7-14.7C278.8,150.1,285.4,143.5,293.5,143.5z"/>
	
		<linearGradient id="SVGID_00000019668062503788152650000002570413062336963769_" gradientUnits="userSpaceOnUse" x1="14.328" y1="341.4251" x2="494.5642" y2="339.6497" gradientTransform="matrix(1 0 0 -1 0 512)">
		<stop  offset="0" style="stop-color:#00D7DF"/>
		<stop  offset="1" style="stop-color:#0188E7"/>
	</linearGradient>
	<path style="fill:url(#SVGID_00000019668062503788152650000002570413062336963769_);" d="M255.9,88.8c-15,0-29.1,2.6-41.5,7.2
		c3.7,5,9,12.5,9.8,13.6h-9.6l16.7,18.3c-2.3-2-23.6-20.4-25.3-21.8h11.3l-6.3-8.8c-27.9,11.4-46.8,33.1-46.8,58
		c0,23,16.1,44.1,43.1,56.4c1.9,0.9,3.1,2.8,3.1,4.8V254h88.5v-36.4c0-2.1,1.3-4.1,3.2-4.9c28.1-11.9,45.5-34,45.5-57.5
		C347.6,118.7,306.5,88.8,255.9,88.8z M193.1,158.2c0-13.9,11.3-25.3,25.3-25.3c13.9,0,25.3,11.3,25.3,25.3
		c0,13.9-11.3,25.3-25.3,25.3C204.5,183.4,193.1,172.1,193.1,158.2z M275.3,218.7c-1.5,2.6-4.3,4.3-7.3,4.3h-25.2
		c-3,0-5.6-1.6-7.2-4.1c-1.6-2.5-1.7-5.6-0.3-8.3l11.9-23c0.7-1.4,1.7-2.5,3-3.3c1.3-0.8,2.8-1.2,4.3-1.3c3.1-0.1,6,1.6,7.6,4.3
		l13.4,23C276.8,212.8,276.8,216.1,275.3,218.7z M293.5,183.4c-13.9,0-25.3-11.3-25.3-25.3c0-13.9,11.3-25.3,25.3-25.3
		c13.9,0,25.3,11.3,25.3,25.3C318.8,172.1,307.4,183.4,293.5,183.4z"/>
	
		<linearGradient id="SVGID_00000094592229854915663640000010980679519861000579_" gradientUnits="userSpaceOnUse" x1="14.3779" y1="341.4333" x2="494.6142" y2="339.6579" gradientTransform="matrix(1 0 0 -1 0 512)">
		<stop  offset="0" style="stop-color:#00D7DF"/>
		<stop  offset="1" style="stop-color:#0188E7"/>
	</linearGradient>
	<path style="fill:url(#SVGID_00000094592229854915663640000010980679519861000579_);" d="M497.1,56.4c0-9.6-7.8-17.3-17.3-17.3
		H32.1c-9.6,0-17.3,7.7-17.3,17.3v247.3h482.4L497.1,56.4L497.1,56.4z M343.6,195.2c-8.4,10.6-20.2,19.5-34.1,25.9v38.3
		c0,3-2.3,5.3-5.3,5.3h-99.1c-3,0-5.3-2.3-5.3-5.3v-39.5c-13.3-6.5-24.4-15.4-32.4-25.7c-9-11.7-13.8-25.1-13.8-38.8
		c0-10.6,2.8-20.9,8.3-30.6c5.2-9.2,12.7-17.4,22.3-24.5c19.2-14.3,44.7-22.1,71.7-22.1s52.5,7.8,71.7,22.1
		c9.5,7,16.9,15.3,22.3,24.5c5.6,9.6,8.3,20,8.3,30.6C358.2,169.4,353.2,183.2,343.6,195.2z"/>
</g>
</svg>
