<?xml version="1.0" encoding="utf-8"?>
<!-- Generator: Adobe Illustrator 26.0.0, SVG Export Plug-In . SVG Version: 6.00 Build 0)  -->
<svg version="1.1" id="Layer_1" xmlns="http://www.w3.org/2000/svg" xmlns:xlink="http://www.w3.org/1999/xlink" x="0px" y="0px"
	 viewBox="0 0 512 512" style="enable-background:new 0 0 512 512;" xml:space="preserve">
<style type="text/css">
	.st0{fill:url(#SVGID_1_);}
	.st1{fill:url(#SVGID_00000111173426007801291640000013045153736737499287_);}
	.st2{fill:url(#SVGID_00000162313458389425326910000001256699841151885502_);}
	.st3{fill:url(#SVGID_00000062871066899387103110000006413154494466167945_);}
	.st4{fill:url(#SVGID_00000158010033869244537200000006078974282826838912_);}
	.st5{fill:url(#SVGID_00000050623195492772508760000015373089913885024140_);}
</style>
<g>
	<g>
		
			<linearGradient id="SVGID_1_" gradientUnits="userSpaceOnUse" x1="9.9717" y1="257.1355" x2="490.4595" y2="254.6965" gradientTransform="matrix(1 0 0 -1 0 512)">
			<stop  offset="0" style="stop-color:#00D7DF"/>
			<stop  offset="1" style="stop-color:#0188E7"/>
		</linearGradient>
		<path class="st0" d="M436.5,128.5L436.5,128.5c-0.1-2.8-1.8-5.4-4.4-6.5L226.7,32.9c-1.8-0.8-3.9-0.8-5.8,0L15.5,122
			c-2.6,1.1-4.3,3.7-4.3,6.5c0,2-0.1,4-0.1,6c0,145.4,80.2,277.3,209.4,344.3c1,0.5,2.2,0.8,3.3,0.8s2.3-0.3,3.3-0.8
			c56.2-29.1,103.1-70.5,138.1-120l-3.6-3.1l15-17.5l-9.7-8.3c-34.2,55.7-83.1,102.4-143.3,134.3c-122.4-65-198.3-191.1-198.3-329.8
			v-1.2l198.3-86.1l198.3,86.1v1.2c0,48.7-9.3,95.8-26.8,139.3l0,0c-2.7,12.1-7.6,23.8-14.6,34.2l10.4,8.9
			c29.3-55.1,45.4-117.4,45.4-182.5C436.6,132.5,436.5,130.5,436.5,128.5z"/>
	</g>
	<g>
		<g>
			
				<linearGradient id="SVGID_00000091714291639687075890000000606551342879786904_" gradientUnits="userSpaceOnUse" x1="9.9949" y1="261.7003" x2="490.4828" y2="259.2613" gradientTransform="matrix(1 0 0 -1 0 512)">
				<stop  offset="0" style="stop-color:#00D7DF"/>
				<stop  offset="1" style="stop-color:#0188E7"/>
			</linearGradient>
			<path style="fill:url(#SVGID_00000091714291639687075890000000606551342879786904_);" d="M295.6,314.4L295.6,314.4
				c-2.8,0-5.4-1.8-6.4-4.4c-2-5.4-3.6-10-4.8-13.7c-1.2-3.7-2.5-7.5-3.4-9.4c-1.9,0.7-5.1,2.3-8.3,3.8c-3.7,1.8-8.3,4.1-14.1,6.7
				c-2.6,1.2-5.6,0.6-7.6-1.4s-2.5-5.1-1.3-7.6c2.5-5.3,4.6-9.6,6.4-13c1.7-3.4,3.5-6.9,4.2-8.9c-1.8-0.8-5.2-2-8.5-3.1
				c-3.9-1.3-8.8-2.9-14.7-5.1c-2.7-1-4.4-3.5-4.4-6.4c0-2.8,1.8-5.4,4.4-6.4c5.4-2,10-3.6,13.7-4.8s7.5-2.5,9.4-3.4
				c-0.7-1.9-2.3-5.1-3.8-8.3c-1.8-3.7-4.1-8.3-6.7-14.1c-1.2-2.6-0.6-5.6,1.4-7.6s5.1-2.5,7.6-1.3c5.2,2.5,9.5,4.6,13,6.4
				c3.5,1.8,7,3.6,9.1,4.3c0.9-1.8,2.1-5.3,3.3-8.7c1.3-3.9,3-8.7,5.3-14.6c1-2.6,3.5-4.3,6.3-4.3h0.1c2.8,0,5.3,1.8,6.3,4.5
				c2,5.5,3.5,10.1,4.7,13.8c1.2,3.6,2.4,7.2,3.2,9.1c1.9-0.7,5.1-2.3,8.2-3.8c3.7-1.8,8.3-4.1,14.1-6.7c2.6-1.2,5.6-0.6,7.6,1.4
				s2.5,5.1,1.3,7.6c-2.5,5.2-4.6,9.5-6.4,13s-3.6,7-4.3,9.1c1.8,0.9,5.3,2.1,8.7,3.3c3.9,1.3,8.7,3,14.6,5.3c2.6,1,4.4,3.6,4.3,6.4
				c0,2.8-1.8,5.3-4.5,6.3c-5.5,2-10.1,3.5-13.8,4.7c-3.6,1.2-7.2,2.4-9.1,3.2c0.7,1.9,2.3,5.1,3.8,8.2c1.8,3.7,4.1,8.3,6.7,14.1
				c1.2,2.6,0.6,5.6-1.4,7.6s-5.1,2.5-7.6,1.3c-5.3-2.5-9.6-4.6-13-6.4c-3.4-1.7-6.9-3.5-8.9-4.2c-0.8,1.8-2,5.2-3.1,8.5
				c-1.3,3.9-2.9,8.8-5.1,14.7C301,312.6,298.4,314.4,295.6,314.4z M282.2,273c1.4,0,2.8,0.3,4.2,0.9c4.6,1.9,6.7,6,9.2,13.1
				c2.5-7.2,4.5-11.4,9.2-13.3c4.6-1.9,8.9-0.4,15.6,2.8c-3.3-6.8-4.8-11.2-2.8-15.8c1.9-4.5,6-6.6,13.1-9
				c-7.3-2.6-11.4-4.7-13.4-9.4c-1.8-4.6-0.4-8.9,2.9-15.6c-6.8,3.3-11.2,4.8-15.8,2.8c-4.5-1.9-6.6-6-9-13.1
				c-2.6,7.3-4.7,11.4-9.4,13.4c-4.6,1.8-8.9,0.4-15.6-2.9c3.3,6.8,4.8,11.2,2.8,15.8c-1.9,4.6-6,6.7-13.1,9.2
				c7.2,2.5,11.4,4.5,13.3,9.2c1.9,4.6,0.4,8.9-2.8,15.6C275.3,274.4,278.9,273,282.2,273z M310.6,217.5L310.6,217.5L310.6,217.5z"
				/>
		</g>
	</g>
	<g>
		
			<linearGradient id="SVGID_00000154425445047135011370000007132413128887223720_" gradientUnits="userSpaceOnUse" x1="9.789" y1="221.1391" x2="490.2768" y2="218.7001" gradientTransform="matrix(1 0 0 -1 0 512)">
			<stop  offset="0" style="stop-color:#00D7DF"/>
			<stop  offset="1" style="stop-color:#0188E7"/>
		</linearGradient>
		<path style="fill:url(#SVGID_00000154425445047135011370000007132413128887223720_);" d="M489.7,376L489.7,376l-80.9-69.5
			l-15,17.5L376,308.7c12.9-18.2,19.8-40.7,18-64.6c-4.1-54.3-51.7-95.1-106-91s-95.1,51.7-91,106s51.7,95.1,106,91
			c23.9-1.8,45.1-12,61.1-27.5l17.8,15.3l-15,17.5l80.9,69.5c6.8,5.8,15.2,8.3,23.4,7.7c8.2-0.6,16.2-4.4,22-11.1
			C504.7,408,503.2,387.6,489.7,376z M301.5,331.9c-44.2,3.4-83-29.9-86.4-74.2s29.9-83,74.2-86.4c44.2-3.4,83,29.9,86.4,74.2
			C379,289.8,345.8,328.6,301.5,331.9z M479.3,409.6c-5,5.8-13.8,6.5-19.7,1.5l-67-57.6l18.2-21.2l67,57.5
			C483.6,394.9,484.3,403.7,479.3,409.6z"/>
	</g>
	
		<linearGradient id="SVGID_00000078022271437475949100000009220959358922649515_" gradientUnits="userSpaceOnUse" x1="10.7" y1="400.5959" x2="491.1878" y2="398.1569" gradientTransform="matrix(1 0 0 -1 0 512)">
		<stop  offset="0" style="stop-color:#00D7DF"/>
		<stop  offset="1" style="stop-color:#0188E7"/>
	</linearGradient>
	<circle style="fill:url(#SVGID_00000078022271437475949100000009220959358922649515_);" cx="206.9" cy="112.4" r="17"/>
	
		<linearGradient id="SVGID_00000096775703369402344460000012373830573046860943_" gradientUnits="userSpaceOnUse" x1="10.3608" y1="333.7657" x2="490.8486" y2="331.3267" gradientTransform="matrix(1 0 0 -1 0 512)">
		<stop  offset="0" style="stop-color:#00D7DF"/>
		<stop  offset="1" style="stop-color:#0188E7"/>
	</linearGradient>
	<circle style="fill:url(#SVGID_00000096775703369402344460000012373830573046860943_);" cx="82.4" cy="178.6" r="17"/>
	
		<linearGradient id="SVGID_00000123438395653610934210000002657870266318354069_" gradientUnits="userSpaceOnUse" x1="9.6263" y1="189.0872" x2="490.1142" y2="186.6482" gradientTransform="matrix(1 0 0 -1 0 512)">
		<stop  offset="0" style="stop-color:#00D7DF"/>
		<stop  offset="1" style="stop-color:#0188E7"/>
	</linearGradient>
	<circle style="fill:url(#SVGID_00000123438395653610934210000002657870266318354069_);" cx="145" cy="323.6" r="17"/>
</g>
</svg>
