<?xml version="1.0" encoding="utf-8"?>
<!-- Generator: Adobe Illustrator 26.0.0, SVG Export Plug-In . SVG Version: 6.00 Build 0)  -->
<svg version="1.1" id="Layer_1" xmlns="http://www.w3.org/2000/svg" xmlns:xlink="http://www.w3.org/1999/xlink" x="0px" y="0px"
	 viewBox="0 0 700 700" style="enable-background:new 0 0 700 700;" xml:space="preserve">
<style type="text/css">
	.st0{fill-rule:evenodd;clip-rule:evenodd;fill:url(#SVGID_1_);}
	.st1{fill-rule:evenodd;clip-rule:evenodd;fill:url(#SVGID_00000008832674963885809830000013951749563107399066_);}
</style>
<g>
	<g>
		<linearGradient id="SVGID_1_" gradientUnits="userSpaceOnUse" x1="82.0588" y1="502.2852" x2="553.8885" y2="503.817">
			<stop  offset="4.792333e-09" style="stop-color:#00D7DF"/>
			<stop  offset="1" style="stop-color:#0188E7"/>
		</linearGradient>
		<path class="st0" d="M417.6,416.6l101.1-34.3l101.1,34.3v85.2c0,61.1-43.6,112.2-101.1,123.4c-57.5-11.2-101.1-62.3-101.1-123.4
			V416.6z M464.8,503.7l38.4,35.6c2.5,2.3,6.3,2.2,8.6-0.2l68.7-66.4c2.4-2.4,2.5-6.3,0.2-8.7c-2.3-2.5-6.2-2.5-8.7-0.2l-64.7,62.5
			l-34.2-31.6c-2.5-2.3-6.4-2.2-8.7,0.4C462.1,497.5,462.3,501.4,464.8,503.7L464.8,503.7z"/>
	</g>
	
		<linearGradient id="SVGID_00000024681444320539469280000016281986230059539377_" gradientUnits="userSpaceOnUse" x1="82.5087" y1="363.7053" x2="554.3385" y2="365.2372">
		<stop  offset="4.792333e-09" style="stop-color:#00D7DF"/>
		<stop  offset="1" style="stop-color:#0188E7"/>
	</linearGradient>
	<path style="fill-rule:evenodd;clip-rule:evenodd;fill:url(#SVGID_00000024681444320539469280000016281986230059539377_);" d="
		M325.9,118.8c-135.7,0-245.7,110-245.7,245.7s110,245.7,245.7,245.7c39.5,0,76.9-9.3,109.9-25.9c-17.1-22.7-27.2-51-27.2-81.5
		v-92.3l110.4-37.2l51.1,17.2c0.9-8.6,1.4-17.2,1.4-26C571.6,228.8,461.6,118.8,325.9,118.8z M335.4,475.8v40.4H311V477
		c-22.5-0.4-45.8-7.4-59.4-17.1l9.3-26c14,9.3,34.1,16.7,55.9,16.7c27.6,0,46.2-15.9,46.2-38c0-21.3-15.1-34.5-43.8-46.2
		c-39.6-15.5-64-33.4-64-67.1c0-32.2,22.9-56.6,58.6-62.5v-39.2h24v37.6c23.3,0.8,39.2,7,50.4,13.6l-9.7,25.6
		c-8.1-4.7-24-13.2-48.9-13.2c-29.9,0-41.1,17.8-41.1,33.4c0,20.2,14.4,30.3,48.1,44.2c40,16.3,60.1,36.5,60.1,71
		C396.7,440.5,375.4,469.3,335.4,475.8z"/>
</g>
</svg>
