<?xml version="1.0" encoding="utf-8"?>
<!-- Generator: Adobe Illustrator 26.0.0, SVG Export Plug-In . SVG Version: 6.00 Build 0)  -->
<svg version="1.1" id="Layer_1" xmlns="http://www.w3.org/2000/svg" xmlns:xlink="http://www.w3.org/1999/xlink" x="0px" y="0px"
	 viewBox="0 0 512 512" style="enable-background:new 0 0 512 512;" xml:space="preserve">
<style type="text/css">
	.st0{display:none;}
	.st1{display:inline;fill:#DDFF1C;}
	.st2{fill:url(#SVGID_1_);}
	.st3{fill:url(#SVGID_00000139255210096980773540000015478474370932672390_);}
	.st4{fill:url(#SVGID_00000178913394814999846810000018229455867279243697_);}
	.st5{fill:url(#SVGID_00000138545440842027931010000017901239581668038315_);}
	.st6{fill:url(#SVGID_00000056427187083345504220000005984132203752082850_);}
	.st7{fill:url(#SVGID_00000047777298363987028450000012575950740464343954_);}
	.st8{fill:url(#SVGID_00000112620169894659749700000004093303693381921952_);}
	.st9{fill:url(#SVGID_00000181797785273954863150000014776678216664047286_);}
	.st10{fill:url(#SVGID_00000161608910963252505000000005145918379088770731_);}
	.st11{fill:url(#SVGID_00000160174086075738955840000007844557492202565563_);}
	.st12{fill:url(#SVGID_00000109742150373958261760000006786696007492576396_);}
</style>
<g class="st0">
	<path class="st1" d="M377.9,190.8c10.8,0,19.5-8.7,19.5-19.5c0-10.8-8.7-19.5-19.5-19.5c-1,0-2,0.1-3.1,0.2c-0.5,0.1-1,0.4-1.2,0.9
		c-0.2,0.5-0.2,1.1,0,1.5c0.4,0.8,0.6,1.6,0.6,2.5c0,2.9-2.4,5.3-5.3,5.3c-1.7,0-3.3-0.8-4.3-2.2c-0.3-0.4-0.8-0.7-1.4-0.7
		c-0.5,0-1.1,0.3-1.4,0.7c-2.3,3.3-3.6,7.2-3.6,11.3C358.4,182,367.2,190.8,377.9,190.8L377.9,190.8z"/>
	<path class="st1" d="M466,170.2c-9.3-11.5-22.1-21-37.1-27.7c-15.5-6.8-33.1-10.4-50.9-10.4s-35.5,3.6-50.9,10.4
		c-15,6.6-27.9,16.2-37.1,27.7c-0.5,0.6-0.5,1.5,0,2.1c9.3,11.5,22.1,21,37.1,27.7c15.5,6.8,33.1,10.4,50.9,10.4s35.5-3.6,50.9-10.4
		c15-6.6,27.9-16.2,37.1-27.7C466.5,171.7,466.5,170.8,466,170.2z M377.9,137c18.9,0,34.2,15.4,34.2,34.2
		c0,18.9-15.4,34.2-34.2,34.2s-34.2-15.4-34.2-34.2C343.7,152.4,359.1,137,377.9,137z"/>
</g>
<g>
	<g>
		<linearGradient id="SVGID_1_" gradientUnits="userSpaceOnUse" x1="99.4043" y1="255.9984" x2="414.9787" y2="255.9984">
			<stop  offset="4.792333e-09" style="stop-color:#00D7DF"/>
			<stop  offset="1" style="stop-color:#0188E7"/>
		</linearGradient>
		<path class="st2" d="M397.5,210.5c-16.9,0-33.5-3.2-48.3-9.3l-29.6,17.1c-0.7,0.4-1.4,0.6-2.1,0.6c-1.5,0-2.9-0.8-3.7-2.1
			c-1.2-2-0.5-4.6,1.6-5.8l24.5-14.1c-12.1-6.3-22.5-14.7-30.3-24.4c-0.5-0.6-0.5-1.5,0-2.1c9.3-11.5,22.1-21,37.1-27.7
			c7-3.1,14.4-5.5,22.2-7.3l-70-70c-3.4-3.4-6.4-4.3-8.4-3c-1.1-0.4-2.2-0.6-3.4-0.6H116.7c-6.1,0-11.1,5-11.1,11.1v366.4
			c0,6.1,5,11.1,11.1,11.1h275.2c6.1,0,11-5,11-11.1V210.3C401.1,210.4,399.3,210.5,397.5,210.5z M150.5,136.6H264v13.3H150.5V136.6
			z M151.8,182.7h113.5v13.3H151.8V182.7z M352.4,375.4H152.7v-13.3h199.8V375.4z M352.4,331.2H152.7v-13.2h199.8V331.2z M352.4,287
			H152.7v-13.3h199.8V287z M352.4,242.7H152.7v-13.3h199.8V242.7z"/>
		
			<linearGradient id="SVGID_00000054988782059917078840000011868985603538000532_" gradientUnits="userSpaceOnUse" x1="99.4043" y1="162.935" x2="414.9787" y2="162.935">
			<stop  offset="4.792333e-09" style="stop-color:#00D7DF"/>
			<stop  offset="1" style="stop-color:#0188E7"/>
		</linearGradient>
		<path style="fill:url(#SVGID_00000054988782059917078840000011868985603538000532_);" d="M378.2,174.5l-13.2,7.6
			c-1.1-3.4-1.8-7.1-1.8-10.8c0-11.3,5.5-21.3,13.9-27.5l15.9,15.9c-0.9,1.5-2.6,2.5-4.5,2.5c-1.7,0-3.3-0.8-4.3-2.2
			c-0.3-0.4-0.8-0.7-1.4-0.7c-0.5,0-1.1,0.3-1.4,0.7c-2.3,3.3-3.6,7.2-3.6,11.2C377.9,172.4,378,173.4,378.2,174.5z"/>
		
			<linearGradient id="SVGID_00000025421033935342168060000006925833881161195964_" gradientUnits="userSpaceOnUse" x1="99.4043" y1="193.995" x2="414.9787" y2="193.995">
			<stop  offset="4.792333e-09" style="stop-color:#00D7DF"/>
			<stop  offset="1" style="stop-color:#0188E7"/>
		</linearGradient>
		<path style="fill:url(#SVGID_00000025421033935342168060000006925833881161195964_);" d="M402.9,190v15.1
			c-1.8,0.3-3.6,0.4-5.5,0.4c-12,0-22.7-6.2-28.8-15.7l12.8-7.4c3.5,5,9.4,8.3,16,8.3C399.4,190.8,401.2,190.5,402.9,190z"/>
	</g>
	<g>
		
			<linearGradient id="SVGID_00000147929718918357970680000011453667751775051913_" gradientUnits="userSpaceOnUse" x1="99.4043" y1="157.695" x2="414.9787" y2="157.695">
			<stop  offset="4.792333e-09" style="stop-color:#00D7DF"/>
			<stop  offset="1" style="stop-color:#0188E7"/>
		</linearGradient>
		<path style="fill:url(#SVGID_00000147929718918357970680000011453667751775051913_);" d="M409.9,156.2l-12.8,7.4l-4-4
			c0.5-0.8,0.8-1.7,0.8-2.7c0-0.9-0.2-1.7-0.6-2.5c-0.2-0.5-0.3-1.1,0-1.5c0.2-0.5,0.7-0.8,1.2-0.9c1-0.2,2-0.2,3.1-0.2
			C402.2,151.8,406.5,153.4,409.9,156.2z"/>
		
			<linearGradient id="SVGID_00000000917027255334340940000004568811028644331197_" gradientUnits="userSpaceOnUse" x1="99.4043" y1="176.52" x2="414.9787" y2="176.52">
			<stop  offset="4.792333e-09" style="stop-color:#00D7DF"/>
			<stop  offset="1" style="stop-color:#0188E7"/>
		</linearGradient>
		<path style="fill:url(#SVGID_00000000917027255334340940000004568811028644331197_);" d="M417,171.3c0,8.9-5.9,16.4-14,18.7v-12.1
			c0-1.8-0.5-3.5-1.2-5.1c0.2-0.6,0.3-1.4,0.2-2.1l13.3-7.7C416.3,165.5,417,168.3,417,171.3z"/>
		
			<linearGradient id="SVGID_00000168800901529029735320000015487838438358103181_" gradientUnits="userSpaceOnUse" x1="99.4043" y1="171.23" x2="414.9787" y2="171.23">
			<stop  offset="4.792333e-09" style="stop-color:#00D7DF"/>
			<stop  offset="1" style="stop-color:#0188E7"/>
		</linearGradient>
		<path style="fill:url(#SVGID_00000168800901529029735320000015487838438358103181_);" d="M485.5,170.2
			c-9-11.1-21.4-20.5-35.9-27.1l-21.7,12.5c2.4,4.7,3.8,10,3.8,15.6c0,17-12.5,31.2-28.8,33.8v5.3c16-0.7,31.6-4.2,45.5-10.3
			c15-6.6,27.9-16.2,37.1-27.7C486,171.7,486,170.8,485.5,170.2z M423.1,148.6l16.5-9.5c-13.2-4.6-27.6-7-42.1-7
			c-9.8,0-19.5,1.1-28.8,3.2l8.5,8.5c5.7-4.2,12.7-6.7,20.3-6.7C407.6,137,416.8,141.5,423.1,148.6z"/>
	</g>
	
		<linearGradient id="SVGID_00000029018040924864956720000000843032264748211589_" gradientUnits="userSpaceOnUse" x1="99.4043" y1="182.165" x2="414.9787" y2="182.165">
		<stop  offset="4.792333e-09" style="stop-color:#00D7DF"/>
		<stop  offset="1" style="stop-color:#0188E7"/>
	</linearGradient>
	<path style="fill:url(#SVGID_00000029018040924864956720000000843032264748211589_);" d="M381.5,182.5l-12.8,7.4
		c-1.5-2.4-2.8-5-3.7-7.7l13.2-7.6C378.7,177.4,379.8,180.1,381.5,182.5z"/>
	
		<linearGradient id="SVGID_00000115475812241728264980000006434903435184260744_" gradientUnits="userSpaceOnUse" x1="99.4043" y1="191.625" x2="414.9787" y2="191.625">
		<stop  offset="4.792333e-09" style="stop-color:#00D7DF"/>
		<stop  offset="1" style="stop-color:#0188E7"/>
	</linearGradient>
	<path style="fill:url(#SVGID_00000115475812241728264980000006434903435184260744_);" d="M368.7,189.8l-19.5,11.3
		c-0.9-0.3-1.8-0.7-2.6-1.1c-2.3-1-4.6-2.1-6.8-3.3l25.2-14.6C365.9,184.9,367.2,187.5,368.7,189.8z"/>
	
		<linearGradient id="SVGID_00000147211292691016531480000005559719711593894028_" gradientUnits="userSpaceOnUse" x1="99.4043" y1="173.045" x2="414.9787" y2="173.045">
		<stop  offset="4.792333e-09" style="stop-color:#00D7DF"/>
		<stop  offset="1" style="stop-color:#0188E7"/>
	</linearGradient>
	<path style="fill:url(#SVGID_00000147211292691016531480000005559719711593894028_);" d="M401.9,170.7l-20.4,11.8
		c-1.6-2.3-2.8-5-3.3-8l18.8-10.9l1.4,1.4C400.5,167.1,401.6,169,401.9,170.7z"/>
	
		<linearGradient id="SVGID_00000000924598565017127230000005165905170306303105_" gradientUnits="userSpaceOnUse" x1="99.4043" y1="155.805" x2="414.9787" y2="155.805">
		<stop  offset="4.792333e-09" style="stop-color:#00D7DF"/>
		<stop  offset="1" style="stop-color:#0188E7"/>
	</linearGradient>
	<path style="fill:url(#SVGID_00000000924598565017127230000005165905170306303105_);" d="M427.9,155.6l-12.8,7.4
		c-1.2-2.6-3-5-5.3-6.8l13.2-7.6C425,150.7,426.6,153.1,427.9,155.6z"/>
	
		<linearGradient id="SVGID_00000002348133507124047360000004842246005776141732_" gradientUnits="userSpaceOnUse" x1="99.4043" y1="133.0433" x2="414.9787" y2="133.0433">
		<stop  offset="4.792333e-09" style="stop-color:#00D7DF"/>
		<stop  offset="1" style="stop-color:#0188E7"/>
	</linearGradient>
	<path style="fill:url(#SVGID_00000002348133507124047360000004842246005776141732_);" d="M470.7,130.9l-21.1,12.2
		c-0.4-0.2-0.8-0.4-1.2-0.6c-2.9-1.3-5.8-2.4-8.8-3.5l26.9-15.5c2-1.2,4.6-0.5,5.8,1.6C473.5,127.2,472.8,129.8,470.7,130.9z"/>
</g>
</svg>
