<?xml version="1.0" encoding="utf-8"?>
<!-- Generator: Adobe Illustrator 27.0.0, SVG Export Plug-In . SVG Version: 6.00 Build 0)  -->
<svg version="1.1" id="Layer_1" xmlns="http://www.w3.org/2000/svg" xmlns:xlink="http://www.w3.org/1999/xlink" x="0px" y="0px"
	 viewBox="0 0 512 512" style="enable-background:new 0 0 512 512;" xml:space="preserve">
<style type="text/css">
	.st0{fill:url(#SVGID_1_);}
	.st1{fill:url(#SVGID_00000079471795979942745010000004375380208464192929_);}
	.st2{fill:url(#SVGID_00000090266336855799304180000018026906871794638732_);}
	.st3{fill:url(#SVGID_00000034769725597818868260000006462277680386638476_);}
	.st4{fill:url(#SVGID_00000100371367154726524370000015103186688591696304_);}
	.st5{fill:url(#SVGID_00000114779155595939066740000010188654706787225494_);}
	.st6{fill:url(#SVGID_00000111187818239315455220000006279765490188406936_);}
	.st7{fill:url(#SVGID_00000057836124306918709550000001093212870754112675_);}
	.st8{fill:url(#SVGID_00000004542989383407803920000013633083438858823581_);}
	.st9{fill:url(#SVGID_00000033338167709132872180000013637993197653866922_);}
	.st10{fill:url(#SVGID_00000013906742687790766040000003870431107315634586_);}
	.st11{fill:url(#SVGID_00000017506024845808099460000001462770360874134178_);}
</style>
<g>
	<linearGradient id="SVGID_1_" gradientUnits="userSpaceOnUse" x1="35.8802" y1="273.8345" x2="475.5397" y2="276.8984">
		<stop  offset="0" style="stop-color:#00D7DF"/>
		<stop  offset="1" style="stop-color:#0188E7"/>
	</linearGradient>
	<path class="st0" d="M309.4,110.5c0-8.7-1.5-10.3-10.2-10.3c-81.6,0-163.3,0-244.9,0c-3.9,0-7.8,0.1-11.4-1.7
		c-2.8-1.4-5.1-1-7.4,0.8v346.1c1.9,3.9,5.3,4.6,9.3,4.6c71.6-0.1,143.2-0.1,214.8-0.1c8.3,0,9.9-1.6,9.9-10.2
		c0-42.6,0-85.2,0.1-127.8c0-12.8,3.8-24.6,10.5-35.4c5.4-8.6,11.1-17,16.9-25.4c8.4-12.3,12.5-25.8,12.4-40.8
		C309.3,177.1,309.4,143.8,309.4,110.5z M211.5,339.4c0,20.5-12.5,32.8-33,32.9h-28.8c-9.9,0-19.8,0-29.7,0
		c-17.9-0.1-31-12.2-31.4-30c-0.5-21.5-0.1-43-0.2-64.5c0-3.6,1.8-5.2,5.3-5.1c10.3,0.2,8.8,0.3,9-9.5c0.2-10-0.8-20.1,0.6-30.1
		c3.3-22.9,21.9-39.3,45.4-40.4c21.4-0.9,41.6,14.7,46.9,36.2c2.2,8.9,1.4,18,1.5,27c0.1,4.3,0.1,8.6,0,12.9
		c-0.1,2.7,0.7,3.8,3.6,3.9c10.7,0.3,10.7,0.4,10.7,11.2C211.6,302.4,211.6,320.9,211.5,339.4z"/>
	
		<linearGradient id="SVGID_00000155835714174817675240000014188508253573857700_" gradientUnits="userSpaceOnUse" x1="37.256" y1="76.4093" x2="476.9155" y2="79.4732">
		<stop  offset="0" style="stop-color:#00D7DF"/>
		<stop  offset="1" style="stop-color:#0188E7"/>
	</linearGradient>
	<path style="fill:url(#SVGID_00000155835714174817675240000014188508253573857700_);" d="M293,85.3c0,5.4-1.8,7.1-7.2,7.1
		c-29.7,0-59.4,0-89.1,0c-47.3,0-94.7-0.1-142,0.1c-9.3,0-15.7-3.3-19-12.1v-6.9C39.1,64.8,45.7,62,54.9,62
		c76.5,0.2,152.9,0.1,229.4,0.1c7.7,0,8.7,1,8.7,8.6C293,75.6,293,80.5,293,85.3z"/>
	
		<linearGradient id="SVGID_00000057860750636949772820000005044590849723495821_" gradientUnits="userSpaceOnUse" x1="37.0099" y1="111.7111" x2="476.6695" y2="114.7749">
		<stop  offset="0" style="stop-color:#00D7DF"/>
		<stop  offset="1" style="stop-color:#0188E7"/>
	</linearGradient>
	<path style="fill:url(#SVGID_00000057860750636949772820000005044590849723495821_);" d="M475.7,66.3c-0.5-0.2-1-0.5-1.5-0.5
		c-22.6,0-45.3,0-67.9-0.1c-3.5,0-3.1,2-3.1,4.1c0,29.7,0.1,59.3-0.1,89c0,3.3,0.7,4.4,4.2,4.3c15.5-0.2,31-0.1,46.4-0.1
		c7.3,0,14.6-0.2,21.9-0.3c0.3,0.1,0.6,0.2,0.9,0.3V66.6C476.2,66.5,475.9,66.4,475.7,66.3z M457.2,128.8c-5.9,0-11.7,0-17.6,0
		c-5.9,0-11.7-0.1-17.6,0c-2.6,0-4.7-0.9-4.8-3.7c-0.1-3,2-4.2,4.8-4.2c11.7,0,23.4,0,35.1,0c2.8,0,4.9,1,4.8,4.2
		C461.9,128,459.8,128.8,457.2,128.8z M457.5,108c-11.9,0-23.8,0-35.7,0c-2.8,0-4.6-1.3-4.5-4c0.1-2.7,2.1-3.8,4.8-3.8
		c5.9,0.1,11.8,0,17.6,0c5.9,0,11.8,0,17.6,0c2.7,0,4.6,1,4.7,3.8C462.1,106.8,460.2,108,457.5,108z"/>
	
		<linearGradient id="SVGID_00000008129268338587750510000003527085933927271868_" gradientUnits="userSpaceOnUse" x1="36.0235" y1="253.2613" x2="475.6831" y2="256.3251">
		<stop  offset="0" style="stop-color:#00D7DF"/>
		<stop  offset="1" style="stop-color:#0188E7"/>
	</linearGradient>
	<path style="fill:url(#SVGID_00000008129268338587750510000003527085933927271868_);" d="M475.5,207.9c-0.7-0.2-1.3-0.5-2-0.5
		c-22.3,0-44.7,0-67-0.1c-3.5,0-3.5,1.8-3.5,4.3c0.1,29.6,0.1,59.3,0,88.9c0,3.5,1,4.3,4.4,4.3c21.6-0.1,43.3-0.1,64.9-0.1
		c1.1,0,2.3,0.4,3.3-0.5c0.3,0,0.6,0,0.9,0.1v-96.4C476.1,207.8,475.8,207.8,475.5,207.9z M457,270.4h-17.2c-5.7,0-11.5,0-17.2,0
		c-2.7,0-5.1-0.8-5.2-3.8c-0.1-3.4,2.4-4.1,5.3-4.1c11.5,0,23,0,34.4,0c2.7,0,5,0.7,5,4C462,269.7,459.7,270.4,457,270.4z
		 M457.4,249.4h-18.1c-5.7,0-11.5,0-17.2,0c-2.6,0-4.8-0.8-4.9-3.7c-0.1-3,2-4.2,4.9-4.2c11.8,0,23.5,0,35.3,0c2.6,0,4.6,1,4.6,3.9
		C462,248.5,460.1,249.4,457.4,249.4z"/>
	
		<linearGradient id="SVGID_00000034778183796252888970000003103394695577909638_" gradientUnits="userSpaceOnUse" x1="35.0372" y1="394.794" x2="474.6968" y2="397.8578">
		<stop  offset="0" style="stop-color:#00D7DF"/>
		<stop  offset="1" style="stop-color:#0188E7"/>
	</linearGradient>
	<path style="fill:url(#SVGID_00000034778183796252888970000003103394695577909638_);" d="M475.5,349.2c-1.1-0.1-2.3-0.3-3.4-0.3
		c-21.6,0-43.3,0.1-64.9-0.1c-3.5,0-4.2,1-4.2,4.3c0.1,29.5,0.1,59,0,88.5c0,3.5,0.8,4.6,4.5,4.6c21.5-0.2,43-0.1,64.5-0.1
		c1.2,0,2.6,0.5,3.7-0.5c0.3-0.1,0.5-0.2,0.8-0.2V349C476.1,349.1,475.8,349.2,475.5,349.2z M422.3,383.2c5.9,0.1,11.7,0,17.6,0
		c5.7,0,11.4,0,17.1,0c2.7,0,5,0.6,5,3.8c0,3.1-2.2,4-4.9,4c-11.6,0-23.1,0-34.7,0c-2.8,0-5-1-5.1-4
		C417.2,384.1,419.5,383.2,422.3,383.2z M457.5,411.9c-11.8,0-23.5,0-35.3,0c-2.9,0-5-1.1-4.9-4.1c0.1-2.7,2.1-3.7,4.8-3.7
		c5.9,0.1,11.8,0,17.6,0c5.9,0,11.8,0,17.6,0c2.7,0,4.6,1,4.6,3.8C462.1,410.7,460.2,411.9,457.5,411.9z"/>
	
		<linearGradient id="SVGID_00000010312558351810810560000007938964773369575601_" gradientUnits="userSpaceOnUse" x1="35.7962" y1="285.8859" x2="475.4557" y2="288.9497">
		<stop  offset="0" style="stop-color:#00D7DF"/>
		<stop  offset="1" style="stop-color:#0188E7"/>
	</linearGradient>
	<path style="fill:url(#SVGID_00000010312558351810810560000007938964773369575601_);" d="M395.6,254.8c-0.3,7.1,0.8,6.1-6.2,6.2
		c-7.9,0.1-15.8,0-23.7,0c-5.1,0-7,1.8-7,7c-0.1,13.2,0,26.4,0,39.6c0,11.3-6,17.3-17.2,17.3c-10,0-20.1,0-30.1,0
		c-10.3,0-20.6-0.1-31,0.1c-3,0.1-4-0.7-3.9-3.8c0.3-7.2-0.9-6.1,6.2-6.1c19.4-0.1,38.7,0,58.1,0c6.6,0,8.2-1.5,8.2-8
		c0-13,0-26.1,0-39.1c0-10.5,6.3-16.8,16.9-16.8c8.6,0,17.2,0.1,25.8-0.1C394.6,251,395.7,251.7,395.6,254.8z"/>
	
		<linearGradient id="SVGID_00000000904202474203593310000017051524183380150162_" gradientUnits="userSpaceOnUse" x1="36.7832" y1="144.2542" x2="476.4427" y2="147.318">
		<stop  offset="0" style="stop-color:#00D7DF"/>
		<stop  offset="1" style="stop-color:#0188E7"/>
	</linearGradient>
	<path style="fill:url(#SVGID_00000000904202474203593310000017051524183380150162_);" d="M395.8,113c0,6.3,0.1,6.3-6.4,6.3
		c-7.7,0-15.5,0-23.2,0c-5.6,0-7.5,1.9-7.5,7.5c-0.1,6.9,0,13.8,0,20.6c0,6.7,0.1,13.5,0,20.2c-0.2,9.2-6.1,15.3-15.4,15.6
		c-7.9,0.2-15.8,0-23.7,0.1c-2.5,0-3.2-0.8-3.2-3.3c-0.1-6.6-0.2-6.6,6.2-6.6c6.5,0,12.9,0,19.4,0c5.1,0,6.9-1.9,7-7
		c0-13.3,0-26.7,0-40c0-10.6,6.2-16.8,16.8-16.8c8.9,0,17.8,0.1,26.7-0.1C395.2,109.5,395.8,110.4,395.8,113z"/>
	
		<linearGradient id="SVGID_00000167384719596020245790000012524063944931249829_" gradientUnits="userSpaceOnUse" x1="35.0064" y1="399.2143" x2="474.666" y2="402.2781">
		<stop  offset="0" style="stop-color:#00D7DF"/>
		<stop  offset="1" style="stop-color:#0188E7"/>
	</linearGradient>
	<path style="fill:url(#SVGID_00000167384719596020245790000012524063944931249829_);" d="M395.9,401.3c-0.1,2.8,0.5,5.1-3.9,5
		c-18.6-0.3-37.3-0.1-55.9-0.1c-18.5,0-37-0.1-55.4,0.1c-4.3,0.1-4.1-2.1-4-5c0.1-2.7-0.6-5.1,3.9-5c37.1,0.2,74.2,0.2,111.3,0
		C396.1,396.3,395.9,398.4,395.9,401.3z"/>
	
		<linearGradient id="SVGID_00000027601397571171512720000010324832880364226444_" gradientUnits="userSpaceOnUse" x1="35.5473" y1="321.6053" x2="475.2068" y2="324.6691">
		<stop  offset="0" style="stop-color:#00D7DF"/>
		<stop  offset="1" style="stop-color:#0188E7"/>
	</linearGradient>
	<path style="fill:url(#SVGID_00000027601397571171512720000010324832880364226444_);" d="M203.7,287.2c0-5.8-1-6.8-6.7-6.8
		c-15.6,0-31.3,0-46.9,0c-15.8,0-31.6,0-47.3,0c-5.2,0-6.3,1.2-6.3,6.3c0,18.1-0.1,36.1,0,54.2c0.1,14.3,9.6,23.5,24,23.5
		c19.8,0,39.6,0.1,59.4,0c14.6,0,23.9-9.3,23.9-23.9C203.8,322.8,203.7,305,203.7,287.2z M164.5,322c-2.8,3-3.8,6-3.6,9.9
		c0.2,3.4,0.1,6.9,0,10.3c0,5.5-1,6.5-6.5,6.5c-1.4,0-2.9,0-4.3,0c-11,0-11,0-11-11.1c0-1.7-0.1-3.5,0-5.2c0.3-4.1-0.5-7.4-3.6-10.7
		c-6.7-7.2-5.6-18.8,1.6-25.5c7.4-6.9,18.8-6.8,26.1,0.2C170.4,303.3,171.2,314.8,164.5,322z"/>
	
		<linearGradient id="SVGID_00000008848615578096570870000004857055619552803981_" gradientUnits="userSpaceOnUse" x1="36.1446" y1="235.8813" x2="475.8042" y2="238.9451">
		<stop  offset="0" style="stop-color:#00D7DF"/>
		<stop  offset="1" style="stop-color:#0188E7"/>
	</linearGradient>
	<path style="fill:url(#SVGID_00000008848615578096570870000004857055619552803981_);" d="M189.5,269.3c0.1,2.3-1.1,3.4-3.5,3.3
		c-12.3-0.1-10.3,1.3-10.4-9.6c-0.1-7.6,0.2-15.2-0.1-22.8c-1-20.9-22.1-32.7-39-21.9c-8.1,5.2-11.9,12.9-12,22.5
		c-0.1,9.2-0.2,18.3,0.1,27.5c0.1,3.5-1.1,4.4-4.5,4.3c-11.2-0.3-9.3,1.4-9.5-9.6c-0.1-3.3,0-6.6,0-10.9c0.3-6.9-0.6-14.7,1.5-22.5
		c4.8-17.8,21.8-30.3,39.7-29.1c19.4,1.3,34.9,15.6,37.1,34.4C190.3,246.3,189.2,257.8,189.5,269.3z"/>
	
		<linearGradient id="SVGID_00000073702242820252330870000004885662413974835601_" gradientUnits="userSpaceOnUse" x1="36.0692" y1="246.7082" x2="475.7288" y2="249.772">
		<stop  offset="0" style="stop-color:#00D7DF"/>
		<stop  offset="1" style="stop-color:#0188E7"/>
	</linearGradient>
	<path style="fill:url(#SVGID_00000073702242820252330870000004885662413974835601_);" d="M167.7,268.5c0.1,3.2-1.2,4.2-4.3,4.2
		c-8.9-0.1-17.8-0.1-26.7,0c-3,0-4.5-0.8-4.4-4.1c0.1-9.5-0.1-18.9,0.1-28.4c0.3-10.5,7.7-17.9,17.5-17.9
		c9.8-0.1,17.3,7.3,17.7,17.8c0.2,4.7,0,9.5,0,14.2h0C167.7,259,167.6,263.7,167.7,268.5z"/>
	
		<linearGradient id="SVGID_00000070078170584586755520000006355955665209920955_" gradientUnits="userSpaceOnUse" x1="35.564" y1="319.201" x2="475.2236" y2="322.2648">
		<stop  offset="0" style="stop-color:#00D7DF"/>
		<stop  offset="1" style="stop-color:#0188E7"/>
	</linearGradient>
	<path style="fill:url(#SVGID_00000070078170584586755520000006355955665209920955_);" d="M156.1,319.3c-4.8,3.3-2.1,7.8-3,11.1
		c0,2.9,0,5.2,0,7.5c0.1,2.2-0.8,3.1-3.1,3.1c-2.1,0-3.1-0.9-3.1-3.1c0.1-4.3-0.1-8.6,0-12.9c0.1-2.5-0.8-4.2-2.9-5.7
		c-6-4.4-6.8-11.7-2.2-16.8c4.4-4.8,12-4.8,16.4,0C162.9,307.7,162.2,315.1,156.1,319.3z"/>
</g>
</svg>
