<?xml version="1.0" encoding="utf-8"?>
<!-- Generator: Adobe Illustrator 26.0.0, SVG Export Plug-In . SVG Version: 6.00 Build 0)  -->
<svg version="1.1" id="Layer_1" xmlns="http://www.w3.org/2000/svg" xmlns:xlink="http://www.w3.org/1999/xlink" x="0px" y="0px"
	 viewBox="0 0 700 700" style="enable-background:new 0 0 700 700;" xml:space="preserve">
<style type="text/css">
	.st0{fill:url(#SVGID_1_);}
	.st1{fill:url(#SVGID_00000036949534599949874310000017639758453662121368_);}
	.st2{fill:url(#SVGID_00000148658309082077978420000001210790664672327824_);}
	.st3{fill:url(#SVGID_00000180334007692264640830000008039422474595365271_);}
	.st4{fill:url(#SVGID_00000145047749630919176710000011675169193937373367_);}
	.st5{fill:url(#SVGID_00000130616285941639134940000010735555461831332741_);}
	.st6{fill:url(#SVGID_00000150070584713534300790000012509991577238360451_);}
	.st7{fill:url(#SVGID_00000013151266669946263710000001566560054582122406_);}
</style>
<g>
	<linearGradient id="SVGID_1_" gradientUnits="userSpaceOnUse" x1="169.9212" y1="636.2883" x2="528.6157" y2="636.2883">
		<stop  offset="2.492013e-07" style="stop-color:#00D7DF"/>
		<stop  offset="1" style="stop-color:#0188E7"/>
	</linearGradient>
	<path class="st0" d="M506.7,619.8H197.5c-9.1,0-16.4,7.3-16.4,16.4c0,9.1,7.3,16.5,16.4,16.5h309.2c9.1,0,16.4-7.3,16.4-16.4
		C523.1,627.3,515.8,619.8,506.7,619.8z"/>
	
		<linearGradient id="SVGID_00000140007232031625262700000001336220772306645919_" gradientUnits="userSpaceOnUse" x1="169.9212" y1="452.4272" x2="528.6157" y2="452.4272">
		<stop  offset="2.492013e-07" style="stop-color:#00D7DF"/>
		<stop  offset="1" style="stop-color:#0188E7"/>
	</linearGradient>
	<path style="fill:url(#SVGID_00000140007232031625262700000001336220772306645919_);" d="M166.9,451.2
		c-1.4-12.3,2.5-24.5,10.7-33.7c8.2-9.2,19.9-14.4,32.3-14.4h105.2c-32.7-12.9-59.2-41.7-75.6-75.9h-3.9
		c-34.2,0-63.7,23.9-70.8,57.3l-24,112.4c-7.3,34.4,10.9,67.2,40.5,80.9L166.9,451.2z"/>
	
		<linearGradient id="SVGID_00000091004503127647756200000014347593384493706393_" gradientUnits="userSpaceOnUse" x1="169.9212" y1="452.4745" x2="528.6157" y2="452.4745">
		<stop  offset="2.492013e-07" style="stop-color:#00D7DF"/>
		<stop  offset="1" style="stop-color:#0188E7"/>
	</linearGradient>
	<path style="fill:url(#SVGID_00000091004503127647756200000014347593384493706393_);" d="M563.4,496.8l-24-112.4
		c-7.1-33.4-36.7-57.3-70.8-57.3h-3.9c-16.3,34.3-42.8,63.1-75.6,75.9h105.2c12.3,0,24.1,5.2,32.3,14.5c8.2,9.3,12.1,21.4,10.7,33.7
		l-14.5,126.5C552.5,564.1,570.8,531.2,563.4,496.8L563.4,496.8z"/>
	
		<linearGradient id="SVGID_00000033355915675959646140000003018229637470666116_" gradientUnits="userSpaceOnUse" x1="169.9212" y1="520.1978" x2="528.6157" y2="520.1978">
		<stop  offset="2.492013e-07" style="stop-color:#00D7DF"/>
		<stop  offset="1" style="stop-color:#0188E7"/>
	</linearGradient>
	<path style="fill:url(#SVGID_00000033355915675959646140000003018229637470666116_);" d="M352.1,531.2c21.9,0,33.9-8.3,33.9-11
		c0-2.7-12.1-11-33.9-11c-21.8,0-33.9,8.3-33.9,11C318.2,522.9,330.2,531.2,352.1,531.2z"/>
	
		<linearGradient id="SVGID_00000029753648759496772400000001616706154141939620_" gradientUnits="userSpaceOnUse" x1="169.9212" y1="511.457" x2="528.6157" y2="511.457">
		<stop  offset="2.492013e-07" style="stop-color:#00D7DF"/>
		<stop  offset="1" style="stop-color:#0188E7"/>
	</linearGradient>
	<path style="fill:url(#SVGID_00000029753648759496772400000001616706154141939620_);" d="M186,449l17.3,151.5h297.5L518.1,449
		c1.6-14.2-9.5-26.6-23.8-26.6l-284.5,0C195.5,422.4,184.5,434.9,186,449L186,449z M352.1,489.9c30.8,0,53.2,12.8,53.2,30.3
		c0,17.6-22.4,30.3-53.2,30.3s-53.2-12.8-53.2-30.3C298.9,502.6,321.3,489.9,352.1,489.9z"/>
	
		<linearGradient id="SVGID_00000169536860686811623240000018132997210285862049_" gradientUnits="userSpaceOnUse" x1="169.9212" y1="186.8714" x2="528.6157" y2="186.8714">
		<stop  offset="2.492013e-07" style="stop-color:#00D7DF"/>
		<stop  offset="1" style="stop-color:#0188E7"/>
	</linearGradient>
	<path style="fill:url(#SVGID_00000169536860686811623240000018132997210285862049_);" d="M236.2,319.9
		c-9.2-21.5-14.3-44.8-14.3-67.2c0-18.1,10-34.8,25.3-42.6c31-15.8,67.2-24.2,104.9-24.2c37.8,0,74.1,8.3,105,24.2
		c15.4,7.8,25.2,24.4,25.3,42.4c0,22.6-5.1,45.9-14.3,67.5c16.1-13.9,25.7-34.4,25.7-64.5c-0.1-78.3-63.6-201.7-141.7-201.7
		S210.5,177.2,210.5,255.5C210.6,285.6,220.1,306,236.2,319.9L236.2,319.9z"/>
	
		<linearGradient id="SVGID_00000164483502877627215920000002151721155935548316_" gradientUnits="userSpaceOnUse" x1="169.9212" y1="298.1219" x2="528.6157" y2="298.1219">
		<stop  offset="2.492013e-07" style="stop-color:#00D7DF"/>
		<stop  offset="1" style="stop-color:#0188E7"/>
	</linearGradient>
	<path style="fill:url(#SVGID_00000164483502877627215920000002151721155935548316_);" d="M448.3,227.3c-27.2-13.9-60.4-22-96.2-22
		c-35.7,0-68.9,8.1-96.1,22c-8.9,4.5-14.8,14.4-14.8,25.2v0.2c0,67.3,49.7,138.4,110.8,138.4c61.3,0,110.9-71,110.9-138.4v-0.2
		C463,241.6,457.1,231.8,448.3,227.3z M442.3,272.3c-11.1,24.2-35.5,40.1-68.6,44.8c-1.1,0.2-2.2,0.2-3.3,0.2c-6,0-11.8-2.3-16-6.6
		c-1.6-1.6-2.9-1.6-4.5,0c-5,5-12.2,7.3-19.3,6.4c-33-4.7-57.5-20.7-68.6-44.8c-3.6-7.8-2.5-16.9,2.8-23.6c5.2-6.7,13.7-9.8,22-8
		c19.2,3.9,41.3,5.8,65.3,5.8c24.1,0,46.1-1.9,65.3-5.8c8.3-1.6,16.8,1.5,22,8C444.8,255.4,445.8,264.4,442.3,272.3L442.3,272.3z"/>
	
		<linearGradient id="SVGID_00000080184252343285689400000001328136222235476865_" gradientUnits="userSpaceOnUse" x1="169.9212" y1="278.8173" x2="528.6157" y2="278.8173">
		<stop  offset="2.492013e-07" style="stop-color:#00D7DF"/>
		<stop  offset="1" style="stop-color:#0188E7"/>
	</linearGradient>
	<path style="fill:url(#SVGID_00000080184252343285689400000001328136222235476865_);" d="M421.3,259.6c-20.5,4.2-43.8,6.2-69.2,6.2
		c-25.4,0-48.7-2.1-69.2-6.2c-1.5-0.3-2.5,0.4-3.1,1.1c-0.5,0.6-1.2,1.8-0.4,3.6c10.6,23.1,35.1,31.1,53.7,33.8
		c1.2,0.2,2.2-0.2,2.9-0.9c4.3-4.3,10-6.6,15.9-6.6c6,0,11.7,2.3,15.9,6.6c0.7,0.7,1.7,1.1,2.9,0.9c18.6-2.7,43.1-10.7,53.7-33.8
		c0.8-1.7,0.1-3-0.4-3.6C423.8,260,422.8,259.2,421.3,259.6L421.3,259.6z M336.5,279.9c-1.2,5.5-9.8,8.4-19.1,6.5
		c-9.5-1.9-16.1-8-15-13.5v-0.1c3.8-3.2,10.8-4.4,18.4-2.9C328.3,271.4,334.2,275.4,336.5,279.9L336.5,279.9z M387,286.3
		c-9.5,1.9-18.1-1-19.1-6.5v-0.1c2.1-4.4,8.1-8.4,15.8-10c7.5-1.5,14.6-0.3,18.4,2.9c0.1,0,0,0.1,0,0.1
		C403.1,278.4,396.5,284.4,387,286.3L387,286.3z"/>
</g>
</svg>
