<?xml version="1.0" encoding="utf-8"?>
<!-- Generator: Adobe Illustrator 26.0.0, SVG Export Plug-In . SVG Version: 6.00 Build 0)  -->
<svg version="1.1" id="Layer_1" xmlns="http://www.w3.org/2000/svg" xmlns:xlink="http://www.w3.org/1999/xlink" x="0px" y="0px"
	 viewBox="0 0 512 512" style="enable-background:new 0 0 512 512;" xml:space="preserve">
<style type="text/css">
	.st0{fill-rule:evenodd;clip-rule:evenodd;fill:url(#SVGID_1_);}
	.st1{fill:url(#SVGID_00000038412284112079511460000005545463938559112624_);}
	.st2{fill:url(#SVGID_00000129169876331559565090000004203324139641504945_);}
	.st3{fill:url(#SVGID_00000036938650809915657970000011012741641259069072_);}
	.st4{fill:url(#SVGID_00000073679465945571671580000016000840299082037661_);}
	.st5{fill:url(#SVGID_00000144296713386022770780000000346245871746738325_);}
	.st6{fill:url(#SVGID_00000157270399036784643700000002465138919003103158_);}
	.st7{fill:url(#SVGID_00000154387402693582923110000011542229843525867430_);}
	.st8{fill:url(#SVGID_00000091704933079118900780000012848625152578208187_);}
	.st9{fill:url(#SVGID_00000176725412861642017660000005846506029018832794_);}
	.st10{fill:url(#SVGID_00000180329637946893245270000004618045407613529790_);}
	.st11{fill:url(#SVGID_00000181800684422298441420000007534983566827724184_);}
	.st12{fill:url(#SVGID_00000142892234178731477910000017801387182074113179_);}
	.st13{fill:url(#SVGID_00000029728926856230806790000006639553845489279162_);}
	.st14{fill:url(#SVGID_00000109736011924338378320000000018735548168132742_);}
	.st15{fill:url(#SVGID_00000124163869303758228890000014721052494380261792_);}
</style>
<g>
	<g>
		<linearGradient id="SVGID_1_" gradientUnits="userSpaceOnUse" x1="18.0779" y1="314.8513" x2="494.6456" y2="318.0767">
			<stop  offset="0" style="stop-color:#00D7DF"/>
			<stop  offset="1" style="stop-color:#0188E7"/>
		</linearGradient>
		<path class="st0" d="M475.5,323.8c-15.3-14.1-35.1-22.5-55.8-23.7c-1.9-15.4-9.2-29.6-20.5-40.2c-11.4-10.7-26.1-17.5-41.6-19.4
			c-6-19.9-18.1-37.4-34.7-50.1c-18.3-14-40.6-21.8-63.6-22.5c-23.1-0.7-45.7,5.8-64.8,18.6c-15.1,10.1-27.2,24.1-34.9,40.4
			c-1-0.2-2.1-0.4-3.1-0.5c-4.3-0.6-8.6-0.9-12.9-0.9c-21.3-0.1-41.9,7.9-57.6,22.3c-15.4,14.1-24.2,34-24.3,54.8
			c0,1.4,0.1,3,0.2,4.7c-13.6,5.8-25.5,14.9-34.6,26.6c-10.7,13.7-16.6,30.6-16.7,48.1c0.2,22.2,9.6,43.3,25.9,58.2
			c16.7,15.4,38.6,23.9,61.3,23.8h316.5c22.7,0.1,44.6-8.4,61.3-23.8c16.3-14.9,25.7-36,25.9-58.2
			C501.2,359.9,491.9,338.7,475.5,323.8z M345.7,381.3c-1.4,9-6.1,17.3-13,23.2c-6.9,5.9-15.8,9.2-25,9.2H204.3
			c-9.2,0-18-3.2-25-9.2s-11.6-14.1-13-23.2c-1.4-9,0.4-18.3,5.2-26.1l51.9-84.2c6.9-11.4,19.3-18.2,32.7-18.2
			c13.3,0,25.7,6.9,32.7,18.2l31.1,50.8c1.5,2.5,1.5,5.6,0.2,8.1c-1.4,2.5-4,4.2-6.9,4.3c-2.9,0.1-5.6-1.3-7.2-3.8l-31.2-50.8
			c-4-6.5-11.1-10.4-18.7-10.4c-7.7,0-14.7,3.9-18.7,10.4l-51.7,84.2c-2.8,4.4-3.8,9.7-3,14.9c0.8,5.1,3.5,9.9,7.4,13.3
			s9,5.3,14.2,5.3h103.5c5.2,0,10.3-1.9,14.2-5.3c3.9-3.4,6.6-8.1,7.4-13.3c0.8-5.1-0.2-10.4-3-14.9c-1.2-1.9-1.6-4.1-1-6.2
			c0.5-2.1,1.8-4,3.7-5.1c1.9-1.1,4.1-1.5,6.2-0.9s3.9,1.9,5.1,3.8h0.2C345.3,362.9,347.1,372.3,345.7,381.3z M255.9,361.2
			c5.7,0,10.3,4.6,10.3,10.3c0,5.7-4.6,10.3-10.3,10.3s-10.3-4.6-10.3-10.3C245.7,365.8,250.3,361.2,255.9,361.2z M247.7,344.4
			v-43.1c0-2.9,1.6-5.6,4.1-7.1s5.7-1.5,8.2,0s4.1,4.2,4.1,7.1v43.1c0,2.2-0.9,4.3-2.4,5.8s-3.6,2.4-5.8,2.4s-4.3-0.9-5.8-2.4
			C248.6,348.7,247.7,346.5,247.7,344.4z"/>
	</g>
	<g>
		
			<linearGradient id="SVGID_00000021806384640127047480000015876933388141052308_" gradientUnits="userSpaceOnUse" x1="19.2342" y1="143.9975" x2="495.8019" y2="147.223">
			<stop  offset="0" style="stop-color:#00D7DF"/>
			<stop  offset="1" style="stop-color:#0188E7"/>
		</linearGradient>
		<polygon style="fill:url(#SVGID_00000021806384640127047480000015876933388141052308_);" points="252.8,186.3 252.1,105 
			259.2,104.9 259.9,186.2 		"/>
	</g>
	<g>
		
			<linearGradient id="SVGID_00000129900413217254023670000008493142227251647371_" gradientUnits="userSpaceOnUse" x1="19.5788" y1="93.0923" x2="496.1465" y2="96.3178">
			<stop  offset="0" style="stop-color:#00D7DF"/>
			<stop  offset="1" style="stop-color:#0188E7"/>
		</linearGradient>
		<path style="fill:url(#SVGID_00000129900413217254023670000008493142227251647371_);" d="M164.3,90.5l23.1,0.2v7.1l-23.1-0.2
			c0.1-1.3,0.2-2.5,0.2-3.9C164.4,92.6,164.4,91.6,164.3,90.5z"/>
		
			<linearGradient id="SVGID_00000116924829679468414410000013760755760672912025_" gradientUnits="userSpaceOnUse" x1="19.5789" y1="93.0806" x2="496.1465" y2="96.3061">
			<stop  offset="0" style="stop-color:#00D7DF"/>
			<stop  offset="1" style="stop-color:#0188E7"/>
		</linearGradient>
		<polygon style="fill:url(#SVGID_00000116924829679468414410000013760755760672912025_);" points="193.4,90.7 206.1,90.8 
			206.1,97.9 193.4,97.8 		"/>
		
			<linearGradient id="SVGID_00000142166850868690274410000013274639604266149760_" gradientUnits="userSpaceOnUse" x1="19.579" y1="93.0537" x2="496.1466" y2="96.2792">
			<stop  offset="0" style="stop-color:#00D7DF"/>
			<stop  offset="1" style="stop-color:#0188E7"/>
		</linearGradient>
		<polygon style="fill:url(#SVGID_00000142166850868690274410000013274639604266149760_);" points="212.2,90.8 224.8,90.9 224.8,98 
			212.2,97.9 		"/>
		
			<linearGradient id="SVGID_00000040543009295772316780000005817361208582703027_" gradientUnits="userSpaceOnUse" x1="19.5793" y1="93.0267" x2="496.1468" y2="96.2523">
			<stop  offset="0" style="stop-color:#00D7DF"/>
			<stop  offset="1" style="stop-color:#0188E7"/>
		</linearGradient>
		<polygon style="fill:url(#SVGID_00000040543009295772316780000005817361208582703027_);" points="230.9,90.9 243.6,91 243.6,98.1 
			230.9,98 		"/>
		
			<linearGradient id="SVGID_00000005231347151271321760000001585920825405850022_" gradientUnits="userSpaceOnUse" x1="19.5791" y1="93.0499" x2="496.1467" y2="96.2754">
			<stop  offset="0" style="stop-color:#00D7DF"/>
			<stop  offset="1" style="stop-color:#0188E7"/>
		</linearGradient>
		<polygon style="fill:url(#SVGID_00000005231347151271321760000001585920825405850022_);" points="249.7,91 262.3,91.2 262.3,98.3 
			249.7,98.2 		"/>
		
			<linearGradient id="SVGID_00000119832122891499173420000016611542131719556742_" gradientUnits="userSpaceOnUse" x1="19.5789" y1="93.073" x2="496.1466" y2="96.2984">
			<stop  offset="0" style="stop-color:#00D7DF"/>
			<stop  offset="1" style="stop-color:#0188E7"/>
		</linearGradient>
		<polygon style="fill:url(#SVGID_00000119832122891499173420000016611542131719556742_);" points="268.4,91.2 281.1,91.3 
			281.1,98.4 268.4,98.3 		"/>
		
			<linearGradient id="SVGID_00000165941565073916623950000012334555856890232975_" gradientUnits="userSpaceOnUse" x1="19.5791" y1="93.046" x2="496.1468" y2="96.2716">
			<stop  offset="0" style="stop-color:#00D7DF"/>
			<stop  offset="1" style="stop-color:#0188E7"/>
		</linearGradient>
		<polygon style="fill:url(#SVGID_00000165941565073916623950000012334555856890232975_);" points="287.2,91.3 299.8,91.4 
			299.8,98.5 287.2,98.4 		"/>
		
			<linearGradient id="SVGID_00000179631158729692670350000012034390912336629400_" gradientUnits="userSpaceOnUse" x1="19.579" y1="93.0692" x2="496.1467" y2="96.2946">
			<stop  offset="0" style="stop-color:#00D7DF"/>
			<stop  offset="1" style="stop-color:#0188E7"/>
		</linearGradient>
		<polygon style="fill:url(#SVGID_00000179631158729692670350000012034390912336629400_);" points="305.9,91.4 318.6,91.6 
			318.6,98.7 305.9,98.5 		"/>
		
			<linearGradient id="SVGID_00000163773267784135719490000009472773830924894095_" gradientUnits="userSpaceOnUse" x1="19.5788" y1="93.0911" x2="496.1464" y2="96.3166">
			<stop  offset="0" style="stop-color:#00D7DF"/>
			<stop  offset="1" style="stop-color:#0188E7"/>
		</linearGradient>
		<path style="fill:url(#SVGID_00000163773267784135719490000009472773830924894095_);" d="M352.5,98.9l-27.9-0.2v-7.1l27.8,0.2
			c-0.1,0.9-0.1,1.9-0.1,2.9C352.3,96.1,352.4,97.5,352.5,98.9z"/>
	</g>
	
		<linearGradient id="SVGID_00000029023177283322729750000010394353530861510815_" gradientUnits="userSpaceOnUse" x1="19.5792" y1="93.0291" x2="496.1469" y2="96.2546">
		<stop  offset="0" style="stop-color:#00D7DF"/>
		<stop  offset="1" style="stop-color:#0188E7"/>
	</linearGradient>
	<path style="fill:url(#SVGID_00000029023177283322729750000010394353530861510815_);" d="M164.3,90.5
		c-1.7-23.8-21.5-42.6-45.6-42.6c-25.3,0-45.8,20.5-45.8,45.8s20.5,45.8,45.8,45.8c24,0,43.7-18.5,45.6-41.9
		c0.1-1.3,0.2-2.5,0.2-3.9C164.4,92.6,164.4,91.6,164.3,90.5z M110.2,94.7l13.2,7.4c2.5-2.5,6.2-3.6,9.6-2.9
		c3.5,0.7,6.4,3.1,7.7,6.4s0.9,7-1,10s-5.3,4.7-8.8,4.7c-3.3,0-6.4-1.5-8.4-4.1c-2.1-2.6-2.8-5.9-2-9.1l-13.2-7.4
		c-2,2-4.7,3.1-7.6,3.1s-5.5-1.1-7.5-3.2c-2-2-3.2-4.7-3.2-7.6s1.1-5.5,3.2-7.6c2-2,4.7-3.2,7.5-3.2s5.5,1.1,7.6,3.1l13.2-7.4
		c-0.9-3.4,0-7,2.4-9.6c2.3-2.6,5.8-4,9.2-3.6s6.6,2.4,8.3,5.4s1.8,6.8,0.3,9.9c-1.5,3.2-4.5,5.4-7.9,6c-3.5,0.6-6.9-0.6-9.5-3
		l-13.2,7.4C110.6,91.4,110.6,93.1,110.2,94.7z"/>
	
		<linearGradient id="SVGID_00000103970562178383249830000017320867791220878238_" gradientUnits="userSpaceOnUse" x1="19.5882" y1="91.7064" x2="496.1559" y2="94.9319">
		<stop  offset="0" style="stop-color:#00D7DF"/>
		<stop  offset="1" style="stop-color:#0188E7"/>
	</linearGradient>
	<path style="fill:url(#SVGID_00000103970562178383249830000017320867791220878238_);" d="M103.3,88.8c0.9,0.9,1.4,2.1,1.4,3.5
		c0,1.3-0.5,2.5-1.4,3.4s-2.1,1.4-3.4,1.4s-2.5-0.5-3.5-1.4c-0.9-0.9-1.4-2.1-1.4-3.4s0.6-2.5,1.4-3.5c0.9-0.9,2.1-1.4,3.5-1.4
		C101.2,87.4,102.4,87.9,103.3,88.8z"/>
	
		<linearGradient id="SVGID_00000059273684186875149590000000191733899894649521_" gradientUnits="userSpaceOnUse" x1="19.4711" y1="108.9951" x2="496.0388" y2="112.2206">
		<stop  offset="0" style="stop-color:#00D7DF"/>
		<stop  offset="1" style="stop-color:#0188E7"/>
	</linearGradient>
	<path style="fill:url(#SVGID_00000059273684186875149590000000191733899894649521_);" d="M134.4,106.3c0.9,0.9,1.4,2.1,1.4,3.4
		s-0.5,2.5-1.4,3.5c-0.9,0.9-2.1,1.4-3.4,1.4c-1.3,0-2.5-0.6-3.5-1.4c-0.9-0.9-1.4-2.1-1.4-3.5c0-1.3,0.5-2.5,1.4-3.4
		c0.9-0.9,2.1-1.4,3.5-1.4S133.5,105.4,134.4,106.3z"/>
	
		<linearGradient id="SVGID_00000050659041161281664310000003146816479115808432_" gradientUnits="userSpaceOnUse" x1="19.7077" y1="74.0468" x2="496.2753" y2="77.2723">
		<stop  offset="0" style="stop-color:#00D7DF"/>
		<stop  offset="1" style="stop-color:#0188E7"/>
	</linearGradient>
	<path style="fill:url(#SVGID_00000050659041161281664310000003146816479115808432_);" d="M127.5,78.2c-0.9-0.9-1.4-2.1-1.4-3.4
		s0.5-2.5,1.4-3.4c0.9-0.9,2.1-1.4,3.5-1.4c1.3,0,2.5,0.6,3.4,1.4c0.9,0.9,1.4,2.1,1.4,3.4s-0.5,2.5-1.4,3.4s-2.1,1.4-3.4,1.4
		C129.7,79.6,128.5,79.1,127.5,78.2z"/>
	
		<linearGradient id="SVGID_00000116200215337444266520000006372691430995147656_" gradientUnits="userSpaceOnUse" x1="19.5853" y1="92.1381" x2="496.153" y2="95.3636">
		<stop  offset="0" style="stop-color:#00D7DF"/>
		<stop  offset="1" style="stop-color:#0188E7"/>
	</linearGradient>
	<path style="fill:url(#SVGID_00000116200215337444266520000006372691430995147656_);" d="M398.1,48.9c-24.3,0-44.2,18.9-45.7,42.9
		c-0.1,0.9-0.1,1.9-0.1,2.9c0,1.4,0.1,2.8,0.2,4.2c2.1,23.3,21.7,41.6,45.6,41.6c25.3,0,45.8-20.5,45.8-45.8S423.4,48.9,398.1,48.9z
		 M423.2,108.2l-11.6,11.6l-13.5-13.6l-13.5,13.5L373,108.1l13.5-13.5L373,81.1l11.6-11.6L398.1,83l13.5-13.5l11.6,11.6l-13.5,13.5
		L423.2,108.2z"/>
</g>
</svg>
