<?xml version="1.0" encoding="utf-8"?>
<!-- Generator: Adobe Illustrator 26.0.0, SVG Export Plug-In . SVG Version: 6.00 Build 0)  -->
<svg version="1.1" id="Layer_1" xmlns="http://www.w3.org/2000/svg" xmlns:xlink="http://www.w3.org/1999/xlink" x="0px" y="0px"
	 viewBox="0 0 512 512" style="enable-background:new 0 0 512 512;" xml:space="preserve">
<style type="text/css">
	.st0{fill:url(#SVGID_1_);}
	.st1{fill:url(#SVGID_00000003104787232011381620000007169134614483836068_);}
	.st2{fill:url(#SVGID_00000113331127928062434340000017975758431826342306_);}
	.st3{fill:url(#SVGID_00000060721275983948881470000006401475876459026577_);}
	.st4{fill:url(#SVGID_00000157281304217017281800000017770043121142397827_);}
	.st5{fill:url(#SVGID_00000018237582271878265320000016265859553190780345_);}
	.st6{fill:url(#SVGID_00000136372678091999086890000016262389205120042637_);}
	.st7{fill:url(#SVGID_00000006665505701862014340000004846327789466278300_);}
	.st8{fill:url(#SVGID_00000170993906654977909150000003116693506788097706_);}
	.st9{fill:url(#SVGID_00000137120196386087867810000009760335467798324361_);}
	.st10{fill:url(#SVGID_00000150090367500296211910000016747776326331339919_);}
	.st11{fill:url(#SVGID_00000128486257636471366010000016923783956265116093_);}
	.st12{fill:url(#SVGID_00000156582715418851787410000006581786878289198254_);}
	.st13{fill:url(#SVGID_00000103267450696744225160000008509666163480523156_);}
	.st14{fill:url(#SVGID_00000039131663635686567900000009015628277709309357_);}
</style>
<g>
	
		<linearGradient id="SVGID_1_" gradientUnits="userSpaceOnUse" x1="19.9506" y1="434.4369" x2="487.5919" y2="437.4884" gradientTransform="matrix(1 0 0 -1 0 512)">
		<stop  offset="2.492013e-07" style="stop-color:#00D7DF"/>
		<stop  offset="1" style="stop-color:#0188E7"/>
	</linearGradient>
	<path class="st0" d="M168,79.7c4.4,3.6,7.4,8.9,7.4,15c0,10.7-8.7,19.3-19.3,19.3c-1.9,0-3.7-0.4-5.4-0.8c-2.5,6-4.9,12.1-7.1,18.4
		c33.7-10.1,71.9-15.9,112.4-15.9c40.6,0,78.8,5.7,112.4,15.9C345.1,64.6,303.5,19.7,256,19.7C222.2,19.7,191.4,42.4,168,79.7
		L168,79.7z"/>
	
		<linearGradient id="SVGID_00000023271956123411532070000011260237012077179785_" gradientUnits="userSpaceOnUse" x1="20.7459" y1="312.5633" x2="488.3872" y2="315.6148" gradientTransform="matrix(1 0 0 -1 0 512)">
		<stop  offset="2.492013e-07" style="stop-color:#00D7DF"/>
		<stop  offset="1" style="stop-color:#0188E7"/>
	</linearGradient>
	<path style="fill:url(#SVGID_00000023271956123411532070000011260237012077179785_);" d="M256,174.2c-39.8,0-44.9,22.7-45.4,47.1
		h90.8C300.9,196.9,295.8,174.2,256,174.2L256,174.2z"/>
	
		<linearGradient id="SVGID_00000146481131246272179330000004422377791313943209_" gradientUnits="userSpaceOnUse" x1="21.1194" y1="255.3164" x2="488.7607" y2="258.3679" gradientTransform="matrix(1 0 0 -1 0 512)">
		<stop  offset="2.492013e-07" style="stop-color:#00D7DF"/>
		<stop  offset="1" style="stop-color:#0188E7"/>
	</linearGradient>
	<path style="fill:url(#SVGID_00000146481131246272179330000004422377791313943209_);" d="M131.7,368.4
		c-10.1-33.6-15.9-71.9-15.9-112.4c0-40.6,5.7-78.8,15.9-112.4c-67.1,23.3-112,65-112,112.4l0,0C19.7,303.4,64.6,345.1,131.7,368.4
		L131.7,368.4z"/>
	
		<linearGradient id="SVGID_00000011711604032827221670000012163636230314697353_" gradientUnits="userSpaceOnUse" x1="22.0166" y1="117.8247" x2="489.6579" y2="120.8762" gradientTransform="matrix(1 0 0 -1 0 512)">
		<stop  offset="2.492013e-07" style="stop-color:#00D7DF"/>
		<stop  offset="1" style="stop-color:#0188E7"/>
	</linearGradient>
	<path style="fill:url(#SVGID_00000011711604032827221670000012163636230314697353_);" d="M134.6,377.4
		c-52.1-17.2-92.2-45.2-110.8-78.6c17.6,96,93.5,171.8,189.5,189.4C179.8,469.6,151.9,429.5,134.6,377.4L134.6,377.4z"/>
	
		<linearGradient id="SVGID_00000122718158206055268430000007059645039467498664_" gradientUnits="userSpaceOnUse" x1="22.2988" y1="74.5742" x2="489.9401" y2="77.6257" gradientTransform="matrix(1 0 0 -1 0 512)">
		<stop  offset="2.492013e-07" style="stop-color:#00D7DF"/>
		<stop  offset="1" style="stop-color:#0188E7"/>
	</linearGradient>
	<path style="fill:url(#SVGID_00000122718158206055268430000007059645039467498664_);" d="M368.4,380.2
		c-33.6,10.1-71.9,15.9-112.4,15.9c-13.8,0-27.4-0.7-40.6-2c-2.6,7.6-9.8,13.2-18.2,13.2c-10.5,0-18.9-8.3-19.2-18.6
		c-11.9-2.3-23.4-5.1-34.4-8.5c23.3,67.2,65.1,112.1,112.5,112.1C303.5,492.2,345.1,447.4,368.4,380.2L368.4,380.2z"/>
	
		<linearGradient id="SVGID_00000165206226290242961060000010809048700866154400_" gradientUnits="userSpaceOnUse" x1="21.2967" y1="228.1422" x2="488.938" y2="231.1937" gradientTransform="matrix(1 0 0 -1 0 512)">
		<stop  offset="2.492013e-07" style="stop-color:#00D7DF"/>
		<stop  offset="1" style="stop-color:#0188E7"/>
	</linearGradient>
	<path style="fill:url(#SVGID_00000165206226290242961060000010809048700866154400_);" d="M256,281.2c-1.2,0-2.2,1-2.2,2.2h4.4
		C258.2,282.2,257.2,281.2,256,281.2z"/>
	
		<linearGradient id="SVGID_00000036237615156699529770000004082221557507378321_" gradientUnits="userSpaceOnUse" x1="22.0283" y1="116.0295" x2="489.6696" y2="119.081" gradientTransform="matrix(1 0 0 -1 0 512)">
		<stop  offset="2.492013e-07" style="stop-color:#00D7DF"/>
		<stop  offset="1" style="stop-color:#0188E7"/>
	</linearGradient>
	<path style="fill:url(#SVGID_00000036237615156699529770000004082221557507378321_);" d="M377.4,377.4
		c-17.2,52.1-45.2,92.2-78.6,110.9c96-17.7,171.8-93.5,189.4-189.6C469.6,332.2,429.6,360.2,377.4,377.4L377.4,377.4z"/>
	
		<linearGradient id="SVGID_00000164497375811189398590000007707322939953596829_" gradientUnits="userSpaceOnUse" x1="20.2213" y1="392.9435" x2="487.8627" y2="395.995" gradientTransform="matrix(1 0 0 -1 0 512)">
		<stop  offset="2.492013e-07" style="stop-color:#00D7DF"/>
		<stop  offset="1" style="stop-color:#0188E7"/>
	</linearGradient>
	<path style="fill:url(#SVGID_00000164497375811189398590000007707322939953596829_);" d="M134.6,134.5c2.8-8.5,6-16.9,9.3-24.7
		c-4.3-3.6-7.2-8.9-7.2-15c0-10.7,8.7-19.3,19.3-19.3c1.8,0,3.6,0.4,5.3,0.8c14.7-23.6,32.3-41.7,51.9-52.7
		c-96,17.6-171.8,93.5-189.4,189.5C42.4,179.8,82.4,151.8,134.6,134.5L134.6,134.5z"/>
	
		<linearGradient id="SVGID_00000149371883350527008890000011797052678875579294_" gradientUnits="userSpaceOnUse" x1="21.13" y1="253.6952" x2="488.7713" y2="256.7466" gradientTransform="matrix(1 0 0 -1 0 512)">
		<stop  offset="2.492013e-07" style="stop-color:#00D7DF"/>
		<stop  offset="1" style="stop-color:#0188E7"/>
	</linearGradient>
	<path style="fill:url(#SVGID_00000149371883350527008890000011797052678875579294_);" d="M380.2,143.5
		c10.1,33.6,15.9,71.9,15.9,112.4c0,18.6-1.2,36.7-3.5,54.1c7.2,2.7,12.4,9.8,12.4,18c0,10.6-8.6,19.2-19.2,19.3
		c-1.7,7.2-3.6,14.3-5.6,21.1c67.2-23.3,112.1-65,112.1-112.4l0,0C492.3,208.5,447.4,166.9,380.2,143.5L380.2,143.5z"/>
	
		<linearGradient id="SVGID_00000123418089965076980930000009667543185692105900_" gradientUnits="userSpaceOnUse" x1="21.1247" y1="254.5055" x2="488.766" y2="257.557" gradientTransform="matrix(1 0 0 -1 0 512)">
		<stop  offset="2.492013e-07" style="stop-color:#00D7DF"/>
		<stop  offset="1" style="stop-color:#0188E7"/>
	</linearGradient>
	<path style="fill:url(#SVGID_00000123418089965076980930000009667543185692105900_);" d="M256,123.6c-41.9,0-81.2,6.2-115.4,16.9
		c-10.8,34.2-16.9,73.5-16.9,115.4s6.2,81.2,16.9,115.4c12.2,3.9,25.1,7.1,38.6,9.7c2.8-7.2,9.8-12.4,18-12.4
		c10.1,0,18.4,7.9,19.1,17.8c12.9,1.2,26.2,1.9,39.7,1.9c41.9,0,81.2-6.2,115.4-16.9c2.6-8.2,4.9-16.7,6.9-25.5
		c-7-2.9-12-9.8-12-17.9c0-10.4,8.2-18.8,18.6-19.2c2.2-17,3.4-34.6,3.4-52.9c0-41.9-6.2-81.2-16.9-115.4
		C337.2,129.8,297.9,123.6,256,123.6L256,123.6z M330.8,345.5H181.2V221.3h21.6c0.2-20.1,3.4-54.9,53.2-54.9
		c49.7,0,52.9,34.8,53.2,54.9h21.6V345.5z"/>
	
		<linearGradient id="SVGID_00000125563163047467722100000002441120094403940744_" gradientUnits="userSpaceOnUse" x1="21.3039" y1="227.0435" x2="488.9453" y2="230.095" gradientTransform="matrix(1 0 0 -1 0 512)">
		<stop  offset="2.492013e-07" style="stop-color:#00D7DF"/>
		<stop  offset="1" style="stop-color:#0188E7"/>
	</linearGradient>
	<path style="fill:url(#SVGID_00000125563163047467722100000002441120094403940744_);" d="M188.9,337.7h134V229.1h-134V337.7z
		 M256,273.4c5.5,0,10,4.5,10,10c0,4.1-2.5,7.6-6.1,9.2v20h-7.8v-20c-3.6-1.5-6.1-5-6.1-9.2C246,277.9,250.5,273.4,256,273.4
		L256,273.4z"/>
	
		<linearGradient id="SVGID_00000084491092476257838010000011850084594981090489_" gradientUnits="userSpaceOnUse" x1="21.9833" y1="122.9176" x2="489.6247" y2="125.9691" gradientTransform="matrix(1 0 0 -1 0 512)">
		<stop  offset="2.492013e-07" style="stop-color:#00D7DF"/>
		<stop  offset="1" style="stop-color:#0188E7"/>
	</linearGradient>
	<path style="fill:url(#SVGID_00000084491092476257838010000011850084594981090489_);" d="M197.2,376.3c-4.4,0-8.2,2.5-10.1,6.2
		c-0.8,1.6-1.4,3.4-1.4,5.4c0,0.8,0.1,1.4,0.2,2.1c1,5.3,5.7,9.5,11.4,9.5c4.5,0,8.3-2.6,10.2-6.3c0.8-1.6,1.4-3.4,1.4-5.3
		c0-0.8-0.1-1.6-0.2-2.4C207.4,380.3,202.8,376.3,197.2,376.3L197.2,376.3z"/>
	
		<linearGradient id="SVGID_00000181789413476154657390000000148158372274645663_" gradientUnits="userSpaceOnUse" x1="21.6009" y1="181.5324" x2="489.2422" y2="184.5839" gradientTransform="matrix(1 0 0 -1 0 512)">
		<stop  offset="2.492013e-07" style="stop-color:#00D7DF"/>
		<stop  offset="1" style="stop-color:#0188E7"/>
	</linearGradient>
	<path style="fill:url(#SVGID_00000181789413476154657390000000148158372274645663_);" d="M374.1,328.1c0,4.3,2.4,8.1,6,10.1
		c1.7,0.9,3.6,1.5,5.6,1.5c0.7,0,1.3-0.1,1.9-0.2c5.5-0.9,9.7-5.6,9.7-11.4c0-4.3-2.4-8-5.8-10c-1.7-1-3.7-1.6-5.7-1.6
		c-0.6,0-1.2,0.1-1.8,0.2C378.4,317.5,374.1,322.3,374.1,328.1L374.1,328.1z"/>
	
		<linearGradient id="SVGID_00000147906802772224601550000011078998263931777196_" gradientUnits="userSpaceOnUse" x1="20.0691" y1="416.2701" x2="487.7104" y2="419.3216" gradientTransform="matrix(1 0 0 -1 0 512)">
		<stop  offset="2.492013e-07" style="stop-color:#00D7DF"/>
		<stop  offset="1" style="stop-color:#0188E7"/>
	</linearGradient>
	<path style="fill:url(#SVGID_00000147906802772224601550000011078998263931777196_);" d="M156,106.4c6.4,0,11.6-5.2,11.6-11.6
		c0-3.3-1.4-6.3-3.7-8.4c-1.8-1.8-4.2-2.8-6.9-3.1c-0.4,0-0.7-0.1-1.1-0.1c-6.4,0-11.6,5.2-11.6,11.6c0,2.9,1.1,5.5,2.8,7.6
		c1.7,1.9,3.9,3.3,6.5,3.8C154.5,106.4,155.2,106.4,156,106.4L156,106.4z"/>
	
		<linearGradient id="SVGID_00000137091229000914649110000000145623340818342043_" gradientUnits="userSpaceOnUse" x1="20.2331" y1="391.1483" x2="487.8743" y2="394.1997" gradientTransform="matrix(1 0 0 -1 0 512)">
		<stop  offset="2.492013e-07" style="stop-color:#00D7DF"/>
		<stop  offset="1" style="stop-color:#0188E7"/>
	</linearGradient>
	<path style="fill:url(#SVGID_00000137091229000914649110000000145623340818342043_);" d="M298.8,23.7
		c33.4,18.8,61.3,58.7,78.6,110.9c52.1,17.2,92.2,45.2,110.9,78.6C470.7,117.1,394.8,41.3,298.8,23.7L298.8,23.7z"/>
</g>
</svg>
