<?xml version="1.0" encoding="utf-8"?>
<!-- Generator: Adobe Illustrator 27.0.0, SVG Export Plug-In . SVG Version: 6.00 Build 0)  -->
<svg version="1.1" id="Layer_1" xmlns="http://www.w3.org/2000/svg" xmlns:xlink="http://www.w3.org/1999/xlink" x="0px" y="0px"
	 viewBox="0 0 512 512" style="enable-background:new 0 0 512 512;" xml:space="preserve">
<style type="text/css">
	.st0{fill:url(#SVGID_1_);}
	.st1{fill:url(#SVGID_00000013890415106639261700000014498683529827124633_);}
</style>
<g>
	<linearGradient id="SVGID_1_" gradientUnits="userSpaceOnUse" x1="13" y1="199.5949" x2="512" y2="199.5949">
		<stop  offset="0" style="stop-color:#00D7DF"/>
		<stop  offset="1" style="stop-color:#0188E7"/>
	</linearGradient>
	<path class="st0" d="M157.5,206l-49,4.1l111.9,132.7L492.7,56.5L220.3,272.9L157.5,206z"/>
	
		<linearGradient id="SVGID_00000096060677620139386600000006066532688801968792_" gradientUnits="userSpaceOnUse" x1="13" y1="256" x2="512" y2="256">
		<stop  offset="0" style="stop-color:#00D7DF"/>
		<stop  offset="1" style="stop-color:#0188E7"/>
	</linearGradient>
	<path style="fill:url(#SVGID_00000096060677620139386600000006066532688801968792_);" d="M471.2,245.5c-0.2-12.8-1.5-25.6-3.8-38.2
		l-0.3,0.1c-1.3-6.8-2.8-13.6-4.7-20.3l-26.8,7.8c1.8,5.9,3.3,11.8,4.5,17.7H440c2.2,10.8,3.6,21.7,4,32.8l0.1,1.2
		c0.1,1.2,0,2.4,0,3.6h-0.4c0.2,11.2-0.5,22.6-2.2,33.7c-0.7,5.6-2.2,11.1-3.4,16.6l-1.9,8.3c-0.7,2.7-1.7,5.4-2.6,8
		c-6.8,21.6-17.2,42-31.1,60.1c-27.4,36-67.1,63.6-111.6,74.7c-22.1,5.8-45.2,7.8-68.2,6.3c-23-1.9-45.6-7.7-66.8-16.8
		c-42.7-17.9-78.2-51.7-100.4-92.6c-22.7-40.9-29.5-89.7-21.9-136c8.7-46.1,32-90,67.9-121.2c35.5-31.2,81.5-51.5,129.3-53.7
		c5.9-0.7,11.9-0.4,17.9-0.3l8.9,0.2c3,0.1,5.9,0.6,8.9,1c5.9,0.8,11.9,1.3,17.8,2.4c5.9,1.1,11.7,2.5,17.5,4.1
		c23.1,6.4,45.2,16.8,64.9,30.5c-19.4-14.2-41.3-25.1-64.4-32.2c-5.8-1.8-11.7-3.3-17.5-4.6c-5.9-1.3-11.9-1.9-17.9-2.9
		c-3-0.4-6-1-9-1.2l-9.1-0.4c-6.1-0.3-12.1-0.8-18.2-0.1c-48.7,1-96.4,20.5-133.7,51.9c-37.8,31.4-63.4,76.3-73.6,124.5
		c-9.2,48.3-3.4,100.2,19.8,144.5c22.6,44.1,59.8,81.5,105.6,102.1c22.8,10.4,47.2,17.3,72.2,20c25.1,2.4,50.5,0.7,75.1-5
		c49.4-11.1,94.1-40.4,125.8-80c16.1-19.8,28.4-42.5,36.7-66.7c1-3,2.3-6,3.1-9l2.4-9.3c1.5-6.2,3.4-12.4,4.3-18.6
		c2.2-12.6,3.3-25.4,3.4-38.2h-0.6C471.1,248.6,471.2,247.1,471.2,245.5L471.2,245.5z"/>
</g>
</svg>
