<?xml version="1.0" encoding="utf-8"?>
<!-- Generator: Adobe Illustrator 26.0.0, SVG Export Plug-In . SVG Version: 6.00 Build 0)  -->
<svg version="1.1" id="Layer_1" xmlns="http://www.w3.org/2000/svg" xmlns:xlink="http://www.w3.org/1999/xlink" x="0px" y="0px"
	 viewBox="0 0 512 512" style="enable-background:new 0 0 512 512;" xml:space="preserve">
<style type="text/css">
	.st0{fill:url(#SVGID_1_);}
	.st1{fill:url(#SVGID_00000096773127572557349950000017428339063994090423_);}
	.st2{fill-rule:evenodd;clip-rule:evenodd;fill:url(#SVGID_00000096017637241114236640000017124178476791200140_);}
	.st3{fill:url(#SVGID_00000121966372162912637870000003174880762897089193_);}
	.st4{fill:url(#SVGID_00000029743771224544736000000010251716348955885724_);}
	.st5{fill:url(#SVGID_00000001633760868836196310000016824230557996161180_);}
</style>
<g>
	<g>
		
			<linearGradient id="SVGID_1_" gradientUnits="userSpaceOnUse" x1="59.8579" y1="305.9656" x2="463.5175" y2="305.1997" gradientTransform="matrix(1 0 0 -1 0 512)">
			<stop  offset="0" style="stop-color:#00D7DF"/>
			<stop  offset="1" style="stop-color:#0188E7"/>
		</linearGradient>
		<path class="st0" d="M337.9,188.9c-0.2-1.2-0.4-2.4-0.9-3.6c-1.3-0.1-2.5-0.1-3.6-0.2l-63.6-1.6c-2,0-3.9,0.6-5.5,1.7
			c2.1,6.6,3.2,13.6,3.2,20.9c0,19.6-8.2,37.4-21.4,50c1.1,0.8,2.3,1.5,3.6,1.9c4.6,1.4,10,0.1,11.9-6.1l15.2-49.1l45.9,1.1
			l-5.7,32.9h7.2c7.4,0,13.6-6.2,13.6-13.6L337.9,188.9z M268.3,254c-3.1,10.1-12.6,13-20.5,10.6c-2.5-0.8-4.9-2.1-6.8-3.9
			c-11.8,9.3-26.7,14.8-42.8,14.8c-38.2,0-69.4-31.1-69.4-69.4s31.1-69.4,69.4-69.4c28.5,0,53.1,17.3,63.7,42c2.5-1.4,5.3-2.1,8.3-2
			l4.3,0.1l0,0l57.3,1.4c-2.4-1.8-5.3-2.9-8.4-2.9h-13.6c-2.5-9.2-6.2-18.2-10.8-26.5l9.6-9.6c5.2-5.2,5.2-13.9,0-19.1l-24.7-24.7
			c-5.2-5.2-13.9-5.2-19.1,0l-9.6,9.6c-8.3-4.6-17-8.3-26.5-10.8V80.9c0.3-7.4-5.9-13.6-13.3-13.6H181c-7.4,0-13.6,6.2-13.6,13.6
			v13.6c-9.2,2.5-18.2,6.2-26.5,10.8l-9.6-9.6c-5.2-5.2-13.9-5.2-19.1,0l-24.7,24.7c-5.2,5.2-5.2,13.9,0,19.1l9.6,9.6
			c-4.6,8.3-8.3,17-10.8,26.5H73.1c-7.4-0.3-13.6,5.9-13.6,13.3v34.8c0,7.4,6.2,13.3,13.6,13.3h13.6c2.5,9.2,6.2,18.2,10.8,26.5
			l-9.6,9.6c-5.2,5.2-5.2,13.9,0,19.1l24.7,24.7c5.2,5.2,13.9,5.2,19.1,0l9.6-9.6c8.3,4.6,17,8.3,26.5,10.8v13.6
			c0,7.4,6.2,13.6,13.6,13.6h34.8c7.4,0,13.6-6.2,13.6-13.6v-13.6c9.2-2.5,18.2-6.2,26.5-10.8l9.6,9.6c5.2,5.2,13.9,5.2,19.1,0
			l13.7-13.7l0.3-0.5l5.9-34.2l-4.8-4.8c3.8-6.9,7-13.9,9.4-21.6l5.4-31.2l-32.8-0.8L268.3,254z M307.2,294.5l2.3-2.3
			c4.8-4.8,5.2-12.5,1.2-17.8L307.2,294.5z"/>
	</g>
	<g>
		
			<linearGradient id="SVGID_00000160873001239415436440000018056332118204046216_" gradientUnits="userSpaceOnUse" x1="59.657" y1="200.1209" x2="463.3166" y2="199.3549" gradientTransform="matrix(1 0 0 -1 0 512)">
			<stop  offset="0" style="stop-color:#00D7DF"/>
			<stop  offset="1" style="stop-color:#0188E7"/>
		</linearGradient>
		<path style="fill:url(#SVGID_00000160873001239415436440000018056332118204046216_);" d="M270.2,180.1c-6-0.1-11.1,3.8-12.7,9.2
			l-17.3,56c-5,16.2,19.9,23.9,24.9,7.7l14.4-46.6l39.4,1l-16.6,96.3L272,358.1l-72.9,3.2c-21.2,0.9-19.8,33.4,1.4,32.5l82-3.6
			c5.5-0.2,10.7-3.2,13.5-8.3l30.6-55.2l65.7,34.9l4.4,68.2c1.3,21.2,33.9,19.2,32.5-2l-4.9-76.4c0-5.8-3.2-11.4-8.7-14.3
			l-60.7-32.3l14.1-82l28.8,27.5c4.2,4,10.5,4.6,15.3,2l55.2-26.5c15.3-7.3,4.1-30.8-11.2-23.5l-47.8,22.9l-38.1-36.1
			c-6.3-4.3-28.8-7.2-37.6-7.4L270.2,180.1L270.2,180.1z"/>
		
			<linearGradient id="SVGID_00000133497450755576351300000016139086024711290548_" gradientUnits="userSpaceOnUse" x1="59.9725" y1="366.364" x2="463.6321" y2="365.5981" gradientTransform="matrix(1 0 0 -1 0 512)">
			<stop  offset="0" style="stop-color:#00D7DF"/>
			<stop  offset="1" style="stop-color:#0188E7"/>
		</linearGradient>
		<path style="fill-rule:evenodd;clip-rule:evenodd;fill:url(#SVGID_00000133497450755576351300000016139086024711290548_);" d="
			M355.8,118.8c15.1,0,27.4,12.3,27.4,27.4c0,15.1-12.3,27.4-27.4,27.4s-27.4-12.3-27.4-27.4C328.3,131.1,340.6,118.8,355.8,118.8z"
			/>
	</g>
	<g>
		
			<linearGradient id="SVGID_00000176006400761765330210000003683935876961493167_" gradientUnits="userSpaceOnUse" x1="59.5345" y1="135.5599" x2="463.1941" y2="134.794" gradientTransform="matrix(1 0 0 -1 0 512)">
			<stop  offset="0" style="stop-color:#00D7DF"/>
			<stop  offset="1" style="stop-color:#0188E7"/>
		</linearGradient>
		<path style="fill:url(#SVGID_00000176006400761765330210000003683935876961493167_);" d="M161.7,381.9H69.9
			c-1.7,0-3.1-1.4-3.1-3.1v-4.5c0-1.7,1.4-3.1,3.1-3.1h91.8c1.7,0,3.1,1.4,3.1,3.1v4.5C164.8,380.5,163.4,381.9,161.7,381.9z"/>
		
			<linearGradient id="SVGID_00000105412125685004662620000012333653079169480383_" gradientUnits="userSpaceOnUse" x1="59.4933" y1="113.8101" x2="463.1528" y2="113.0441" gradientTransform="matrix(1 0 0 -1 0 512)">
			<stop  offset="0" style="stop-color:#00D7DF"/>
			<stop  offset="1" style="stop-color:#0188E7"/>
		</linearGradient>
		<path style="fill:url(#SVGID_00000105412125685004662620000012333653079169480383_);" d="M176.7,403.6H55c-1.7,0-3.1-1.4-3.1-3.1
			v-4.4c0-1.7,1.4-3.1,3.1-3.1h121.7c1.7,0,3.1,1.4,3.1,3.1v4.5C179.7,402.3,178.4,403.6,176.7,403.6z"/>
		
			<linearGradient id="SVGID_00000036211806742649513480000015495283122389748927_" gradientUnits="userSpaceOnUse" x1="59.452" y1="92.0602" x2="463.1115" y2="91.2943" gradientTransform="matrix(1 0 0 -1 0 512)">
			<stop  offset="0" style="stop-color:#00D7DF"/>
			<stop  offset="1" style="stop-color:#0188E7"/>
		</linearGradient>
		<path style="fill:url(#SVGID_00000036211806742649513480000015495283122389748927_);" d="M192.2,425.4H39.5
			c-1.7,0-3.1-1.4-3.1-3.1v-4.5c0-1.7,1.4-3.1,3.1-3.1h152.7c1.7,0,3.1,1.4,3.1,3.1v4.5C195.3,424,193.9,425.4,192.2,425.4z"/>
	</g>
</g>
</svg>
