<?xml version="1.0" encoding="utf-8"?>
<!-- Generator: Adobe Illustrator 26.0.0, SVG Export Plug-In . SVG Version: 6.00 Build 0)  -->
<svg version="1.1" id="Layer_1" xmlns="http://www.w3.org/2000/svg" xmlns:xlink="http://www.w3.org/1999/xlink" x="0px" y="0px"
	 viewBox="0 0 512 512" style="enable-background:new 0 0 512 512;" xml:space="preserve">
<style type="text/css">
	.st0{fill:url(#SVGID_1_);}
	.st1{fill:url(#SVGID_00000078004192499371818160000014945186623401568905_);}
	.st2{fill:url(#SVGID_00000068641926166423493910000017266101739819425948_);}
	.st3{fill:url(#SVGID_00000000917772218375609690000013314598979133574283_);}
	.st4{fill:url(#SVGID_00000098941576816327647570000005705961037462344864_);}
</style>
<g>
	<g>
		
			<linearGradient id="SVGID_1_" gradientUnits="userSpaceOnUse" x1="66.7733" y1="210.5218" x2="437.0861" y2="215.3837" gradientTransform="matrix(1 0 0 -1 0 512)">
			<stop  offset="0" style="stop-color:#00D7DF"/>
			<stop  offset="1" style="stop-color:#0188E7"/>
		</linearGradient>
		<path class="st0" d="M336.5,354H225.9c-5.1,0-10-2-13.6-5.7c-3.6-3.6-5.7-8.5-5.7-13.6v-72.1c0-5.1,2-10,5.7-13.6
			c3.6-3.6,8.5-5.7,13.6-5.7h110.6c5.1,0,10,2,13.6,5.7c3.6,3.6,5.7,8.5,5.7,13.6v72.1c0,5.1-2,10-5.7,13.6
			C346.5,352,341.6,354,336.5,354z M225.9,251c-3.1,0-6.1,1.2-8.3,3.4c-2.2,2.2-3.4,5.2-3.4,8.3v72.1c0,3.1,1.2,6.1,3.4,8.3
			c2.2,2.2,5.2,3.4,8.3,3.4h110.6c3.1,0,6.1-1.2,8.3-3.4c2.2-2.2,3.4-5.2,3.4-8.3v-72.1c0-3.1-1.2-6.1-3.4-8.3
			c-2.2-2.2-5.2-3.4-8.3-3.4H225.9z"/>
		
			<linearGradient id="SVGID_00000055703515589916710580000010964550801580016305_" gradientUnits="userSpaceOnUse" x1="65.6796" y1="293.8253" x2="435.9924" y2="298.6871" gradientTransform="matrix(1 0 0 -1 0 512)">
			<stop  offset="0" style="stop-color:#00D7DF"/>
			<stop  offset="1" style="stop-color:#0188E7"/>
		</linearGradient>
		<path style="fill:url(#SVGID_00000055703515589916710580000010964550801580016305_);" d="M309.6,251c-2.1,0-3.8-1.7-3.8-3.8v-35.7
			c0-8.8-4.7-16.9-12.3-21.3c-7.6-4.4-17-4.4-24.6,0c-7.6,4.4-12.3,12.5-12.3,21.3v35.7c0,2.1-1.7,3.8-3.8,3.8
			c-2.1,0-3.7-1.7-3.7-3.8v-35.7c0-17.7,14.4-32.2,32.2-32.2c8.5,0,16.7,3.4,22.7,9.4c6,6,9.4,14.2,9.4,22.7v35.7
			c0,1-0.4,1.9-1.1,2.7C311.5,250.6,310.6,251,309.6,251L309.6,251z"/>
		
			<linearGradient id="SVGID_00000029741197430797243090000001986555652317905813_" gradientUnits="userSpaceOnUse" x1="65.5418" y1="304.3198" x2="435.8545" y2="309.1817" gradientTransform="matrix(1 0 0 -1 0 512)">
			<stop  offset="0" style="stop-color:#00D7DF"/>
			<stop  offset="1" style="stop-color:#0188E7"/>
		</linearGradient>
		<path style="fill:url(#SVGID_00000029741197430797243090000001986555652317905813_);" d="M330.9,251c-2.1,0-3.8-1.7-3.8-3.8v-35.7
			c0-16.4-8.8-31.6-22.9-39.8c-14.2-8.2-31.7-8.2-45.9,0c-14.2,8.2-22.9,23.3-22.9,39.8v35.7c0,2.1-1.7,3.8-3.8,3.8
			c-2.1,0-3.8-1.7-3.8-3.8v-35.7c0-19.1,10.2-36.8,26.7-46.3c16.5-9.6,37-9.6,53.5,0s26.7,27.2,26.7,46.3v35.7c0,1-0.4,1.9-1.1,2.7
			C332.9,250.6,331.9,251,330.9,251L330.9,251z"/>
		
			<linearGradient id="SVGID_00000104671106440875446980000004510876899771492229_" gradientUnits="userSpaceOnUse" x1="66.7742" y1="210.4512" x2="437.087" y2="215.3131" gradientTransform="matrix(1 0 0 -1 0 512)">
			<stop  offset="0" style="stop-color:#00D7DF"/>
			<stop  offset="1" style="stop-color:#0188E7"/>
		</linearGradient>
		<path style="fill:url(#SVGID_00000104671106440875446980000004510876899771492229_);" d="M281.2,328.5c-3.2,0-6.4-1.3-8.8-3.6
			c-2.3-2.3-3.6-5.4-3.6-8.8v-15.2c-4-3.6-6.2-8.8-6-14.2c0.3-9.5,8-17.3,17.5-17.7c5-0.2,9.9,1.6,13.5,5c3.6,3.5,5.7,8.3,5.7,13.3
			c0,5.2-2.2,10.1-6,13.6v15.2c0,3.2-1.3,6.4-3.6,8.8C287.6,327.2,284.5,328.5,281.2,328.5L281.2,328.5z M281.2,276.5h-0.5
			c-3,0.2-5.8,1.5-7.7,3.8c-1.9,2.3-2.8,5.3-2.4,8.3c0.3,3,1.9,5.7,4.4,7.5c1,0.7,1.5,1.9,1.5,3.1v17c0,2.7,2.1,4.8,4.8,4.8
			c2.7,0,4.8-2.1,4.8-4.8v-17c0-1.2,0.6-2.3,1.5-3.1c2.8-2,4.5-5.3,4.5-8.8c0-2.8-1.1-5.6-3.2-7.7
			C286.8,277.7,284.1,276.5,281.2,276.5L281.2,276.5z"/>
	</g>
	<g>
		
			<linearGradient id="SVGID_00000004504842732887554580000013848427518007878547_" gradientUnits="userSpaceOnUse" x1="66.2089" y1="253.5082" x2="436.5217" y2="258.3701" gradientTransform="matrix(1 0 0 -1 0 512)">
			<stop  offset="0" style="stop-color:#00D7DF"/>
			<stop  offset="1" style="stop-color:#0188E7"/>
		</linearGradient>
		<path style="fill:url(#SVGID_00000004504842732887554580000013848427518007878547_);" d="M70.1,492.6h321.5c4.1,0,7.4-3.3,7.4-7.4
			v-42.9h42.9c4.1,0,7.4-3.3,7.4-7.4V136.3c0-1.9-0.8-3.8-2.2-5.3L337.7,21.6c-1.4-1.4-3.2-2.2-5.3-2.2H120.4
			c-4.1,0-7.4,3.3-7.4,7.4v42.9H70.1c-4.1,0-7.4,3.3-7.4,7.4v408C62.7,489.2,66,492.6,70.1,492.6L70.1,492.6z M339.2,43.9l85.8,85.8
			h-85.8V43.9z M127.8,34.3h196.6v102.8c0,4.1,3.3,7.4,7.4,7.4h102.8v283H127.8V34.3z M77.4,84.6H113v350.2c0,4.1,3.3,7.4,7.4,7.4
			h263.8v35.6H77.4V84.6z"/>
	</g>
</g>
</svg>
