<?xml version="1.0" encoding="utf-8"?>
<!-- Generator: Adobe Illustrator 26.0.0, SVG Export Plug-In . SVG Version: 6.00 Build 0)  -->
<svg version="1.1" id="Layer_1" xmlns="http://www.w3.org/2000/svg" xmlns:xlink="http://www.w3.org/1999/xlink" x="0px" y="0px"
	 viewBox="0 0 512 512" style="enable-background:new 0 0 512 512;" xml:space="preserve">
<style type="text/css">
	.st0{fill-rule:evenodd;clip-rule:evenodd;fill:url(#SVGID_1_);}
</style>
<g>
	<linearGradient id="SVGID_1_" gradientUnits="userSpaceOnUse" x1="112.0376" y1="284.4661" x2="430.4859" y2="284.4661">
		<stop  offset="4.792333e-09" style="stop-color:#00D7DF"/>
		<stop  offset="1" style="stop-color:#0188E7"/>
	</linearGradient>
	<path class="st0" d="M122,144.1c40.3-5.4,75.5-23.5,102.6-42.8h93.3c27.1,19.3,62.3,37.4,102.6,42.8c5.7,0.8,9.9,5.6,9.9,11.3
		v128.8c0,89.8-91.1,165.2-159.2,183.4C203.2,449.5,112,374,112,284.3V155.4C112,149.7,116.2,144.8,122,144.1L122,144.1z
		 M198.6,193.6c0,4.3,7.3,8.7,19.1,12.5c27.5,8.7,68.2,9,96.5,2.8L289,185l8.7-9.4c-24.9-2.9-56.4-2-80,5.5
		C205.9,184.8,198.6,189.3,198.6,193.6L198.6,193.6z M338.4,200.2c3.5-2.2,5.5-4.5,5.5-6.7c0-4.2-6.9-8.5-18.2-12.2l-3.4,3.6
		L338.4,200.2z M198.6,244c0,4.3,7.3,8.7,19.1,12.5c24,7.6,56.2,8.5,81.4,5.3l26-42.6l-1.7-1.6c-31.3,8.6-78,8.5-108.9-1.3
		c-6.3-2-11.7-4.4-15.9-7.1L198.6,244L198.6,244z M310.9,259.9c5.1-1,9.7-2.2,13.9-3.5c11.8-3.8,19.1-8.2,19.1-12.5v-12.4
		L310.9,259.9z M198.6,294.4c0,4.3,7.3,8.7,19.1,12.5c12.2,3.9,28.7,6.4,47.2,6.9l12.1-9.4l-6.4,9.5c17.5,0,37.4-1.7,54.1-7
		c11.8-3.8,19.1-8.2,19.1-12.5v-34.9c-4.2,2.7-9.6,5.1-15.9,7.1c-9,2.9-20,5-32.2,6.3l-7.1,6.1l3.5-5.8c-24.7,2.1-54.2,0.8-77.7-6.6
		c-6.3-2-11.7-4.4-15.9-7.1L198.6,294.4L198.6,294.4z M343.9,309.9c-4.2,2.7-9.6,5.1-15.9,7.1c-19.9,6.3-43.6,8.1-64.5,7.4l-23,33.9
		l5.4,4.6c24.6,2.7,55.5,1.8,78.8-5.6c11.8-3.8,19.1-8.2,19.1-12.5L343.9,309.9z M252,323.8c-14.4-1.1-27.3-3.5-37.5-6.8
		c-6.3-2-11.7-4.4-15.9-7.1v34.9c0,3.5,4.8,7,12.9,10.3l13.1-10.1c-2.8-0.6-5.5-1.3-8-2.1c-2.8-0.8-4.4-3.8-3.6-6.6
		c0.8-2.8,3.8-4.4,6.6-3.6c5.5,1.6,10.6,2.6,16.1,3.6L252,323.8z M216.7,242.1c2.6,0.8,5.3,1.5,8.3,2.1c2.9,0.7,5.9,1.3,9,1.8
		c2.9,0.5,5.7-1.5,6.1-4.4c0.5-2.9-1.5-5.7-4.4-6.1c-3-0.5-5.8-1.1-8.4-1.6c-2.6-0.6-5.2-1.3-7.6-2c-2.8-0.8-5.8,0.8-6.6,3.6
		C212.2,238.3,213.9,241.2,216.7,242.1L216.7,242.1z M216.7,292.5c2.6,0.8,5.3,1.5,8.3,2.1c2.9,0.7,5.9,1.3,9,1.8
		c2.9,0.5,5.7-1.5,6.1-4.4c0.5-2.9-1.5-5.7-4.4-6.1c-3-0.5-5.8-1.1-8.4-1.6c-2.6-0.6-5.2-1.3-7.6-2c-2.8-0.8-5.8,0.8-6.6,3.6
		C212.2,288.7,213.9,291.7,216.7,292.5L216.7,292.5z M354.6,193.6v22l3.8,3.6l-3.8,3.3v122.4c0,9.4-10.2,17.4-26.6,22.6
		c-20.9,6.7-46.2,8.3-68.2,7.3l16.9,14.4l-37.5,36.5c10.5,5.8,21.3,10.7,32.1,14.2c62.2-20.1,132.5-86.5,132.5-155.6V168.4
		c-17.5-3.5-34.5-9.1-50.8-16.3l-19.4,20.8C346.7,178.1,354.6,185.2,354.6,193.6L354.6,193.6z M330.1,140.6
		c-7-3.9-13.9-8.2-20.6-12.7h-76.6c-28.5,19.2-60.4,33.7-94.2,40.4v115.9c0,52.6,38.9,99.6,80.2,128.6l24.5-23.7L219.8,369
		c-1.8-0.5-3.6-1-5.3-1.5c-16.4-5.2-26.6-13.2-26.6-22.6l0-50.4V193.6c0-9.4,10.2-17.4,26.6-22.6c27.1-8.6,63.8-9.4,92.1-4.9
		L330.1,140.6z M128.1,284.3c0,74.3,74.3,145.3,141.6,166.3c1.1,0.3,2.2,0.3,3.2,0c67.2-21,141.5-92,141.5-166.2V163.9
		c0-2.7-2-4.9-4.6-5.3c-34.5-6.1-66.8-20.8-95.6-40.4c-0.9-0.6-2-0.9-3-0.9l-79.9,0c-1.2,0-2.4,0.4-3.3,1.1
		c-28.8,19.6-61.1,34.2-95.5,40.3c-2.6,0.5-4.4,2.7-4.4,5.3L128.1,284.3z"/>
</g>
</svg>
