<?xml version="1.0" encoding="utf-8"?>
<!-- Generator: Adobe Illustrator 26.0.0, SVG Export Plug-In . SVG Version: 6.00 Build 0)  -->
<svg version="1.1" id="Layer_1" xmlns="http://www.w3.org/2000/svg" xmlns:xlink="http://www.w3.org/1999/xlink" x="0px" y="0px"
	 viewBox="0 0 512 512" style="enable-background:new 0 0 512 512;" xml:space="preserve">
<style type="text/css">
	.st0{fill:url(#SVGID_1_);}
	.st1{fill:url(#SVGID_00000030474993906815989810000009111797407577525415_);}
	.st2{fill:url(#SVGID_00000001631054477983489900000016496246264722935712_);}
	.st3{fill:url(#SVGID_00000142892778801673827640000015596494482841808790_);}
	.st4{fill:url(#SVGID_00000138538409949638983180000004636250943485780918_);}
	.st5{fill:url(#SVGID_00000056416883388752930780000001814813265988716970_);}
	.st6{fill:url(#SVGID_00000038386120612554791140000018347557374272674735_);}
	.st7{fill:url(#SVGID_00000142871694564028897930000005221851072059526530_);}
	.st8{fill:url(#SVGID_00000178190983924361793440000004747245908320642474_);}
	.st9{fill:url(#SVGID_00000065760333588671729150000000159640098220125884_);}
	.st10{fill:url(#SVGID_00000000909988088434693530000004995295254570234526_);}
</style>
<g>
	<linearGradient id="SVGID_1_" gradientUnits="userSpaceOnUse" x1="201.8096" y1="388.7738" x2="510.8096" y2="381.7738">
		<stop  offset="1.246007e-07" style="stop-color:#00D7DF"/>
		<stop  offset="1" style="stop-color:#1E84F0"/>
	</linearGradient>
	<path class="st0" d="M23.1,313.3h70v157.5h-70V313.3z"/>
	
		<linearGradient id="SVGID_00000008828862858496617880000017045421093107294857_" gradientUnits="userSpaceOnUse" x1="201.9331" y1="394.2277" x2="510.9331" y2="387.2277">
		<stop  offset="1.246007e-07" style="stop-color:#00D7DF"/>
		<stop  offset="1" style="stop-color:#1E84F0"/>
	</linearGradient>
	<path style="fill:url(#SVGID_00000008828862858496617880000017045421093107294857_);" d="M145.6,439.1l19.1,9.5
		c6.1,3.1,12.8,4.7,19.6,4.6h131c7.7,0,15.2-2,21.9-5.9l147-84.9c4-2.3,6.9-6.2,8.1-10.6c1.2-4.5,0.5-9.2-1.8-13.2
		c-2.4-3.9-6.2-6.8-10.6-8c-4.4-1.2-9.2-0.6-13.2,1.6l-88.1,50.8c0.3,4,0,8-1,11.8c-2.4,9-8.3,16.6-16.4,21.3
		c-5.3,3.1-11.3,4.7-17.4,4.7c-3.1,0-6.1-0.4-9.1-1.2l-104.4-27.9c-4.7-1.3-7.5-6.1-6.2-10.8c1.3-4.7,6.1-7.5,10.8-6.2l104.4,28
		c4.5,1.2,9.2,0.6,13.2-1.8c4-2.3,7-6.1,8.2-10.6c1.2-4.5,0.6-9.3-1.7-13.3c-2.3-4-6.2-6.9-10.7-8.1l-130.6-35h0
		c-7.2-1.9-14.8-2-22-0.2l-50.1,12.5L145.6,439.1z"/>
	
		<linearGradient id="SVGID_00000072977509934475585620000003227351842628287163_" gradientUnits="userSpaceOnUse" x1="201.841" y1="390.1606" x2="510.841" y2="383.1606">
		<stop  offset="1.246007e-07" style="stop-color:#00D7DF"/>
		<stop  offset="1" style="stop-color:#1E84F0"/>
	</linearGradient>
	<path style="fill:url(#SVGID_00000072977509934475585620000003227351842628287163_);" d="M110.6,330.8h17.5v122.5h-17.5V330.8z"/>
	
		<linearGradient id="SVGID_00000042717876358863472780000005831322863096882589_" gradientUnits="userSpaceOnUse" x1="194.7961" y1="79.1794" x2="503.7961" y2="72.1794">
		<stop  offset="1.246007e-07" style="stop-color:#00D7DF"/>
		<stop  offset="1" style="stop-color:#1E84F0"/>
	</linearGradient>
	<path style="fill:url(#SVGID_00000042717876358863472780000005831322863096882589_);" d="M324.6,37.5l-38.5,76.6h76.7L324.6,37.5z"
		/>
	
		<linearGradient id="SVGID_00000039120177486764345510000014577663932883514513_" gradientUnits="userSpaceOnUse" x1="194.5038" y1="66.2774" x2="503.5038" y2="59.2774">
		<stop  offset="1.246007e-07" style="stop-color:#00D7DF"/>
		<stop  offset="1" style="stop-color:#1E84F0"/>
	</linearGradient>
	<path style="fill:url(#SVGID_00000039120177486764345510000014577663932883514513_);" d="M271.9,103.3l38.5-76.6h-76.6L271.9,103.3
		z"/>
	
		<linearGradient id="SVGID_00000073681878981802485020000008472013331745275838_" gradientUnits="userSpaceOnUse" x1="197.9098" y1="216.6279" x2="506.9099" y2="209.6279">
		<stop  offset="1.246007e-07" style="stop-color:#00D7DF"/>
		<stop  offset="1" style="stop-color:#1E84F0"/>
	</linearGradient>
	<path style="fill:url(#SVGID_00000073681878981802485020000008472013331745275838_);" d="M283.1,131.6l41.3,165.2l41.3-165.2
		L283.1,131.6z"/>
	
		<linearGradient id="SVGID_00000029038853073123011160000007375033702132914607_" gradientUnits="userSpaceOnUse" x1="194.5576" y1="68.6528" x2="503.5576" y2="61.6528">
		<stop  offset="1.246007e-07" style="stop-color:#00D7DF"/>
		<stop  offset="1" style="stop-color:#1E84F0"/>
	</linearGradient>
	<path style="fill:url(#SVGID_00000029038853073123011160000007375033702132914607_);" d="M415.4,26.6h-76.6l38.1,76.6L415.4,26.6z"
		/>
	
		<linearGradient id="SVGID_00000021103135812314291270000003811759376256356497_" gradientUnits="userSpaceOnUse" x1="194.7423" y1="76.8018" x2="503.7422" y2="69.8018">
		<stop  offset="1.246007e-07" style="stop-color:#00D7DF"/>
		<stop  offset="1" style="stop-color:#1E84F0"/>
	</linearGradient>
	<path style="fill:url(#SVGID_00000021103135812314291270000003811759376256356497_);" d="M257.8,114.1l-38.2-76.6l-38.5,76.6H257.8
		z"/>
	
		<linearGradient id="SVGID_00000073712535070562833110000010583213149726368156_" gradientUnits="userSpaceOnUse" x1="197.9009" y1="216.2318" x2="506.9009" y2="209.2318">
		<stop  offset="1.246007e-07" style="stop-color:#00D7DF"/>
		<stop  offset="1" style="stop-color:#1E84F0"/>
	</linearGradient>
	<path style="fill:url(#SVGID_00000073712535070562833110000010583213149726368156_);" d="M383.7,131.6l-40.4,161.7l121.1-161.7
		L383.7,131.6z"/>
	
		<linearGradient id="SVGID_00000025423883128395527570000016158976786798085797_" gradientUnits="userSpaceOnUse" x1="194.85" y1="81.5568" x2="503.85" y2="74.5568">
		<stop  offset="1.246007e-07" style="stop-color:#00D7DF"/>
		<stop  offset="1" style="stop-color:#1E84F0"/>
	</linearGradient>
	<path style="fill:url(#SVGID_00000025423883128395527570000016158976786798085797_);" d="M429.6,37.5l-38.5,76.6h76.7L429.6,37.5z"
		/>
	
		<linearGradient id="SVGID_00000090282547300714277150000016246227897299270079_" gradientUnits="userSpaceOnUse" x1="197.8321" y1="213.1958" x2="506.8321" y2="206.1958">
		<stop  offset="1.246007e-07" style="stop-color:#00D7DF"/>
		<stop  offset="1" style="stop-color:#1E84F0"/>
	</linearGradient>
	<path style="fill:url(#SVGID_00000090282547300714277150000016246227897299270079_);" d="M265.1,131.6h-80.7l120.9,161L265.1,131.6
		z"/>
</g>
</svg>
