<?xml version="1.0" encoding="utf-8"?>
<!-- Generator: Adobe Illustrator 26.0.0, SVG Export Plug-In . SVG Version: 6.00 Build 0)  -->
<svg version="1.1" id="Layer_1" xmlns="http://www.w3.org/2000/svg" xmlns:xlink="http://www.w3.org/1999/xlink" x="0px" y="0px"
	 viewBox="0 0 700 700" style="enable-background:new 0 0 700 700;" xml:space="preserve">
<style type="text/css">
	.st0{fill:url(#SVGID_1_);}
	.st1{fill:url(#SVGID_00000022550556246346484290000008557988875965009050_);}
</style>
<g>
	<g>
		<linearGradient id="SVGID_1_" gradientUnits="userSpaceOnUse" x1="178.2278" y1="337.3434" x2="488.2278" y2="341.3434">
			<stop  offset="2.492013e-07" style="stop-color:#00D7DF"/>
			<stop  offset="1" style="stop-color:#0188E7"/>
		</linearGradient>
		<path class="st0" d="M627.5,508.4L488.9,369.9l-30,30l-30.5-30.5c26.2-31.5,41.9-71.9,41.9-115.9c0-100.1-81.4-181.5-181.5-181.5
			c-100.1,0-181.6,81.4-181.6,181.5c0,100.1,81.4,181.5,181.6,181.5c44,0,84.4-15.7,115.9-41.9l30.5,30.5l-30,30l138.6,138.6
			c11.6,11.5,26.7,17.3,41.9,17.3s30.3-5.8,41.9-17.3C650.6,569.1,650.6,531.5,627.5,508.4L627.5,508.4z M288.7,401.4
			c-81.6,0-147.9-66.4-147.9-147.9c0-81.6,66.4-147.9,147.9-147.9c81.6,0,147.9,66.4,147.9,147.9C436.7,335,370.3,401.4,288.7,401.4
			z M603.7,568.4c-10,10-26.2,10-36.2,0L452.7,453.6l36.2-36.2l114.8,114.8C613.7,542.2,613.7,558.4,603.7,568.4L603.7,568.4z"/>
	</g>
	
		<linearGradient id="SVGID_00000041256814548442531670000007018235999191477168_" gradientUnits="userSpaceOnUse" x1="179.6619" y1="226.2028" x2="489.6619" y2="230.2028">
		<stop  offset="2.492013e-07" style="stop-color:#00D7DF"/>
		<stop  offset="1" style="stop-color:#0188E7"/>
	</linearGradient>
	<path style="fill:url(#SVGID_00000041256814548442531670000007018235999191477168_);" d="M306.6,138.6c-3.6-6.3-9.8-10-16.5-10
		c-6.7,0-12.9,3.8-16.5,10l-88.3,153.3c-4.2,7.3-4.2,16.3,0,23.6c3.7,6.4,9.7,10,16.5,10h176.7c6.8,0,12.8-3.6,16.5-10
		c4.2-7.3,4.2-16.3,0-23.6L306.6,138.6z M287.9,299.7c-6,0-10.8-4.9-10.8-10.8S282,278,287.9,278c6,0,10.8,4.9,10.8,10.8
		C298.7,294.8,293.9,299.7,287.9,299.7z M303.6,175.9L290,264.5c-0.4,2.4-3.8,2.4-4.1,0l-13.6-88.6c-0.4-3.3,2.1-6.3,5.5-6.3h20.3
		C301.4,169.6,304,172.6,303.6,175.9L303.6,175.9z"/>
</g>
</svg>
