<?xml version="1.0" encoding="utf-8"?>
<!-- Generator: Adobe Illustrator 26.0.0, SVG Export Plug-In . SVG Version: 6.00 Build 0)  -->
<svg version="1.1" id="Layer_1" xmlns="http://www.w3.org/2000/svg" xmlns:xlink="http://www.w3.org/1999/xlink" x="0px" y="0px"
	 viewBox="0 0 512 512" style="enable-background:new 0 0 512 512;" xml:space="preserve">
<style type="text/css">
	.st0{fill:url(#SVGID_1_);}
	.st1{fill:url(#SVGID_00000017479421304953231570000001991685325257785020_);}
	.st2{fill:url(#SVGID_00000160163254313200049530000018196169776431978627_);}
	.st3{fill:url(#SVGID_00000158000941191656871750000004876561092017947548_);}
	.st4{fill:url(#SVGID_00000053536580824162278640000007445493699175010490_);}
	.st5{fill:url(#SVGID_00000087370280217452446520000018100802590622276771_);}
	.st6{fill:url(#SVGID_00000120555692722230378980000011177859839183355036_);}
	.st7{fill:url(#SVGID_00000032640935668237439860000016212620580549417888_);}
</style>
<g>
	<g>
		<g>
			
				<linearGradient id="SVGID_1_" gradientUnits="userSpaceOnUse" x1="72.609" y1="291.7452" x2="400.1893" y2="293.3088" gradientTransform="matrix(1 0 0 -1 0 512)">
				<stop  offset="0" style="stop-color:#00D7DF"/>
				<stop  offset="1" style="stop-color:#0188E7"/>
			</linearGradient>
			<path class="st0" d="M256.1,140.6c-1.6-2.7-3.9-4.8-6.8-6.3c-2.8-1.5-6.1-2.3-9.6-2.3c-7,0-13.3,3.3-16.5,8.6l-85,143.3
				c-2.9,4.8-2.6,10.5,0.8,15.1s9.2,7.3,15.6,7.3h170c6.4,0,12.3-2.7,15.6-7.3c3.4-4.6,3.7-10.2,0.8-15.1L256.1,140.6z M254.3,289.5
				c0,2-1.9,3.5-4.1,3.5h-21c-2.3,0-4.1-1.6-4.1-3.5v-17.7c0-2,1.9-3.5,4.1-3.5h21c2.3,0,4.1,1.6,4.1,3.5V289.5z M254.1,254.6
				c-0.1,1.9-1.9,3.4-4.1,3.4h-20.7c-2.3,0-4.1-1.5-4.1-3.4l-3-75.8c-0.1-0.9,0.4-1.9,1.2-2.6s1.9-1.1,3-1.1h26.9
				c1.1,0,2.2,0.4,3,1.1c0.8,0.7,1.2,1.6,1.2,2.6L254.1,254.6z"/>
		</g>
		<g>
			
				<linearGradient id="SVGID_00000165917237202657411060000013065597542216971920_" gradientUnits="userSpaceOnUse" x1="73.7581" y1="107.7271" x2="401.3385" y2="109.2907" gradientTransform="matrix(1 0 0 -1 0 512)">
				<stop  offset="0" style="stop-color:#00D7DF"/>
				<stop  offset="1" style="stop-color:#0188E7"/>
			</linearGradient>
			<path style="fill:url(#SVGID_00000165917237202657411060000013065597542216971920_);" d="M405.8,350.2V323h-95.1
				c-2.3,37.3-33.2,66.8-71.1,66.8s-68.8-29.5-71.1-66.8H73.5v27.2l41.5,7.5c2.3,7.3,5.4,14.4,8.9,21.1l-24.2,34.7l44.7,44.8
				l34.7-24c6.7,3.5,13.9,6.5,21.3,8.8l7.6,41.5h63.3l7.6-41.5c7.3-2.3,14.4-5.2,21.1-8.8l34.7,24l44.7-44.8l-24.1-34.6
				c3.5-6.7,6.5-13.7,8.8-21L405.8,350.2z"/>
		</g>
		
			<linearGradient id="SVGID_00000158735561605487170350000014033428133428318138_" gradientUnits="userSpaceOnUse" x1="73.2092" y1="165.9998" x2="400.7895" y2="167.5634" gradientTransform="matrix(1 0 0 -1 0 512)">
			<stop  offset="0" style="stop-color:#00D7DF"/>
			<stop  offset="1" style="stop-color:#0188E7"/>
		</linearGradient>
		<path style="fill:url(#SVGID_00000158735561605487170350000014033428133428318138_);" d="M288.6,323c-2.3,25-23.3,44.6-48.9,44.6
			c-25.6,0-46.7-19.6-48.9-44.6H288.6z"/>
	</g>
	<g>
		
			<linearGradient id="SVGID_00000141418069871173790630000002319671801796623796_" gradientUnits="userSpaceOnUse" x1="72.1666" y1="384.4103" x2="399.7469" y2="385.9739" gradientTransform="matrix(1 0 0 -1 0 512)">
			<stop  offset="0" style="stop-color:#00D7DF"/>
			<stop  offset="1" style="stop-color:#0188E7"/>
		</linearGradient>
		<path style="fill:url(#SVGID_00000141418069871173790630000002319671801796623796_);" d="M167.3,137.2l-29.2-31.7
			c-3.2-3.5-8.7-3.8-12.1-0.5l0,0c-3.5,3.2-3.8,8.7-0.5,12.1l29.2,31.7c3.2,3.5,8.7,3.8,12.1,0.5l0,0
			C170.3,146.2,170.5,140.8,167.3,137.2z"/>
		
			<linearGradient id="SVGID_00000167370523527230970850000006347819707967809930_" gradientUnits="userSpaceOnUse" x1="71.9535" y1="429.0591" x2="399.5338" y2="430.6227" gradientTransform="matrix(1 0 0 -1 0 512)">
			<stop  offset="0" style="stop-color:#00D7DF"/>
			<stop  offset="1" style="stop-color:#0188E7"/>
		</linearGradient>
		<path style="fill:url(#SVGID_00000167370523527230970850000006347819707967809930_);" d="M198.4,92.4l-29.2-31.7
			c-3.2-3.5-8.7-3.8-12.1-0.5l0,0c-3.5,3.2-3.8,8.7-0.5,12.1l29.2,31.7c3.2,3.5,8.7,3.8,12.1,0.5l0,0
			C201.3,101.4,201.6,96,198.4,92.4z"/>
		
			<linearGradient id="SVGID_00000116933320218286499270000003438057077760834207_" gradientUnits="userSpaceOnUse" x1="71.9565" y1="428.4262" x2="399.5368" y2="429.9898" gradientTransform="matrix(1 0 0 -1 0 512)">
			<stop  offset="0" style="stop-color:#00D7DF"/>
			<stop  offset="1" style="stop-color:#0188E7"/>
		</linearGradient>
		<path style="fill:url(#SVGID_00000116933320218286499270000003438057077760834207_);" d="M289.2,92.4l29.2-31.7
			c3.2-3.5,8.7-3.8,12.1-0.5l0,0c3.5,3.2,3.8,8.7,0.5,12.1l-29.2,31.7c-3.2,3.5-8.7,3.8-12.1,0.5l0,0
			C286.2,101.4,285.9,96,289.2,92.4z"/>
		
			<linearGradient id="SVGID_00000154395837470332787190000005053613928399724171_" gradientUnits="userSpaceOnUse" x1="71.8359" y1="453.6939" x2="399.4162" y2="455.2576" gradientTransform="matrix(1 0 0 -1 0 512)">
			<stop  offset="0" style="stop-color:#00D7DF"/>
			<stop  offset="1" style="stop-color:#0188E7"/>
		</linearGradient>
		<path style="fill:url(#SVGID_00000154395837470332787190000005053613928399724171_);" d="M232.7,79V36c0-4.8,3.8-8.6,8.6-8.6l0,0
			c4.8,0,8.6,3.8,8.6,8.6v43c0,4.8-3.8,8.6-8.6,8.6l0,0C236.6,87.6,232.7,83.8,232.7,79z"/>
		
			<linearGradient id="SVGID_00000120529177217515857800000017059911679830040200_" gradientUnits="userSpaceOnUse" x1="72.194" y1="378.6873" x2="399.7743" y2="380.251" gradientTransform="matrix(1 0 0 -1 0 512)">
			<stop  offset="0" style="stop-color:#00D7DF"/>
			<stop  offset="1" style="stop-color:#0188E7"/>
		</linearGradient>
		<path style="fill:url(#SVGID_00000120529177217515857800000017059911679830040200_);" d="M325.4,142l29.2-31.7
			c3.2-3.5,8.7-3.8,12.1-0.5l0,0c3.5,3.2,3.8,8.7,0.5,12.1l-29.1,31.7c-3.2,3.5-8.7,3.8-12.1,0.5l0,0
			C322.4,150.9,322.2,145.5,325.4,142z"/>
	</g>
</g>
</svg>
