<?xml version="1.0" encoding="utf-8"?>
<!-- Generator: Adobe Illustrator 26.0.0, SVG Export Plug-In . SVG Version: 6.00 Build 0)  -->
<svg version="1.1" id="Layer_1" xmlns="http://www.w3.org/2000/svg" xmlns:xlink="http://www.w3.org/1999/xlink" x="0px" y="0px"
	 viewBox="0 0 512 512" style="enable-background:new 0 0 512 512;" xml:space="preserve">
<style type="text/css">
	.st0{fill:url(#SVGID_1_);}
	.st1{fill:url(#SVGID_00000077287170690358313830000005186493044844895411_);}
	.st2{fill:url(#SVGID_00000075877721327058506870000008657491467143404731_);}
	.st3{fill:url(#SVGID_00000080901203310475596940000007354943379637399206_);}
	.st4{fill:url(#SVGID_00000103253266062841572050000016358812310217881493_);}
</style>
<g>
	<linearGradient id="SVGID_1_" gradientUnits="userSpaceOnUse" x1="188.4914" y1="348.9677" x2="341.6829" y2="347.4357">
		<stop  offset="0" style="stop-color:#00D7DF"/>
		<stop  offset="1" style="stop-color:#0188E7"/>
	</linearGradient>
	<path class="st0" d="M286.5,348.3c0,16.8-13.7,30.5-30.5,30.5c-16.8,0-30.5-13.7-30.5-30.5s13.7-30.5,30.5-30.5
		C272.8,317.8,286.5,331.5,286.5,348.3z"/>
	
		<linearGradient id="SVGID_00000058569921501955458470000011994430777904113305_" gradientUnits="userSpaceOnUse" x1="188.4914" y1="348.9676" x2="341.6829" y2="347.4357">
		<stop  offset="0" style="stop-color:#00D7DF"/>
		<stop  offset="1" style="stop-color:#0188E7"/>
	</linearGradient>
	<path style="fill:url(#SVGID_00000058569921501955458470000011994430777904113305_);" d="M256,299.8c-26.7,0-48.5,21.7-48.5,48.5
		s21.7,48.5,48.5,48.5c26.7,0,48.5-21.7,48.5-48.5S282.7,299.8,256,299.8z M256,384.6c-20,0-36.3-16.3-36.3-36.3S236,312,256,312
		c20,0,36.3,16.3,36.3,36.3S276,384.6,256,384.6z"/>
	
		<linearGradient id="SVGID_00000047044211646063297110000011371207312690075825_" gradientUnits="userSpaceOnUse" x1="187.6322" y1="263.0543" x2="340.8237" y2="261.5223">
		<stop  offset="0" style="stop-color:#00D7DF"/>
		<stop  offset="1" style="stop-color:#0188E7"/>
	</linearGradient>
	<path style="fill:url(#SVGID_00000047044211646063297110000011371207312690075825_);" d="M261.2,208.4c-1.4-1.4-3.2-2.1-5.2-2.1
		h-0.4c-2,0.1-3.9,1-5.2,2.6c-1.3,1.6-1.9,3.6-1.7,5.6c0.2,2,1.3,3.8,3,5c0.7,0.5,1,1.2,1,2.1V233c0,1.8,1.4,3.2,3.2,3.2
		c1.8,0,3.2-1.4,3.2-3.2v-11.5c0-0.8,0.4-1.6,1.1-2.1c1.9-1.4,3-3.6,3-5.9C263.3,211.7,262.5,209.8,261.2,208.4z M261.2,208.4
		c-1.4-1.4-3.2-2.1-5.2-2.1h-0.4c-2,0.1-3.9,1-5.2,2.6c-1.3,1.6-1.9,3.6-1.7,5.6c0.2,2,1.3,3.8,3,5c0.7,0.5,1,1.2,1,2.1V233
		c0,1.8,1.4,3.2,3.2,3.2c1.8,0,3.2-1.4,3.2-3.2v-11.5c0-0.8,0.4-1.6,1.1-2.1c1.9-1.4,3-3.6,3-5.9
		C263.3,211.7,262.5,209.8,261.2,208.4z M310.2,107H201.8c-7.2,0-13,5.8-13,13v284.8c0,7.2,5.8,13,13,13h108.4c7.2,0,13-5.8,13-13
		V120C323.2,112.8,317.4,107,310.2,107z M205.8,197c0-3.4,1.4-6.7,3.8-9.2c2.4-2.4,5.7-3.8,9.2-3.8h1.2v-21.5
		c0-12.9,6.9-24.8,18-31.2c11.1-6.4,24.9-6.4,36.1,0c11.1,6.4,18,18.3,18,31.2V184h1.2c3.4,0,6.7,1.4,9.2,3.8s3.8,5.7,3.8,9.2v48.6
		c0,3.4-1.4,6.7-3.8,9.2c-2.4,2.4-5.7,3.8-9.2,3.8h-74.6c-3.4,0-6.7-1.4-9.2-3.8c-2.4-2.4-3.8-5.7-3.8-9.2V197z M256,402.5
		c-29.9,0-54.2-24.3-54.2-54.3S226.1,294,256,294c29.9,0,54.3,24.3,54.3,54.3S285.9,402.5,256,402.5z M218.7,253.5h74.6
		c2.1,0,4.1-0.8,5.6-2.3c1.5-1.5,2.3-3.5,2.3-5.6V197c0-2.1-0.8-4.1-2.3-5.6c-1.5-1.5-3.5-2.3-5.6-2.3h-74.6c-2.1,0-4.1,0.8-5.6,2.3
		c-1.5,1.5-2.3,3.5-2.3,5.6v48.6c0,2.1,0.8,4.1,2.3,5.6C214.6,252.6,216.6,253.5,218.7,253.5z M255.4,201.2c3.4-0.2,6.7,1.1,9.1,3.4
		c2.5,2.3,3.8,5.6,3.8,9c0,3.5-1.5,6.8-4.1,9.2V233c0,2.2-0.9,4.3-2.4,5.9c-1.6,1.6-3.7,2.4-5.9,2.4c-2.2,0-4.3-0.9-5.9-2.4
		s-2.4-3.7-2.4-5.9v-10.3c-2.7-2.4-4.2-5.9-4.1-9.6C243.8,206.8,249,201.5,255.4,201.2z M234.3,162.5c0-12,9.7-21.7,21.7-21.7
		c5.7,0,11.2,2.3,15.3,6.3c4.1,4.1,6.3,9.6,6.3,15.3V184h9.3v-21.5c0-11.1-5.9-21.3-15.5-26.8c-9.6-5.5-21.4-5.5-31,0
		c-9.6,5.5-15.5,15.8-15.5,26.8V184h9.3V162.5z M264.3,148.1c-5.1-3-11.4-3-16.6,0c-5.1,3-8.3,8.4-8.3,14.4V184h33.2v-21.5
		C272.6,156.5,269.4,151.1,264.3,148.1z M251.7,219.5c0.7,0.5,1,1.2,1,2.1V233c0,1.8,1.4,3.2,3.2,3.2c1.8,0,3.2-1.4,3.2-3.2v-11.5
		c0-0.8,0.4-1.6,1.1-2.1c1.9-1.4,3-3.6,3-5.9c0-1.9-0.8-3.8-2.1-5.2c-1.4-1.4-3.2-2.1-5.2-2.1h-0.4c-2,0.1-3.9,1-5.2,2.6
		c-1.3,1.6-1.9,3.6-1.7,5.6C249,216.5,250.1,218.3,251.7,219.5z"/>
</g>
<linearGradient id="SVGID_00000081640945345220197640000007898022966624675723_" gradientUnits="userSpaceOnUse" x1="185.7401" y1="73.8387" x2="338.9316" y2="72.3068">
	<stop  offset="0" style="stop-color:#00D7DF"/>
	<stop  offset="1" style="stop-color:#0188E7"/>
</linearGradient>
<path style="fill:url(#SVGID_00000081640945345220197640000007898022966624675723_);" d="M283.2,49.7h-54.3c-7.4,0-13.5,6-13.5,13.5
	v33.4h81.2V63.1C296.6,55.7,290.6,49.7,283.2,49.7z"/>
<linearGradient id="SVGID_00000182495459038450585100000016955046583236678533_" gradientUnits="userSpaceOnUse" x1="189.5244" y1="452.2698" x2="342.7159" y2="450.7379">
	<stop  offset="0" style="stop-color:#00D7DF"/>
	<stop  offset="1" style="stop-color:#0188E7"/>
</linearGradient>
<path style="fill:url(#SVGID_00000182495459038450585100000016955046583236678533_);" d="M283.2,475.1h-54.3
	c-7.4,0-13.5-6-13.5-13.5v-33.4h81.2v33.4C296.6,469.1,290.6,475.1,283.2,475.1z"/>
</svg>
