<?xml version="1.0" encoding="utf-8"?>
<!-- Generator: Adobe Illustrator 26.0.0, SVG Export Plug-In . SVG Version: 6.00 Build 0)  -->
<svg version="1.1" id="Layer_1" xmlns="http://www.w3.org/2000/svg" xmlns:xlink="http://www.w3.org/1999/xlink" x="0px" y="0px"
	 viewBox="0 0 512 512" style="enable-background:new 0 0 512 512;" xml:space="preserve">
<style type="text/css">
	.st0{fill:url(#SVGID_1_);}
	.st1{fill:url(#SVGID_00000122711237833143026300000009292694017597627020_);}
	.st2{fill:url(#SVGID_00000082349984633627316470000001796254785743321023_);}
	.st3{fill:url(#SVGID_00000116221706023490674500000012347895757065159836_);}
	.st4{fill:url(#SVGID_00000030468559718352969190000011351725299885075855_);}
	.st5{fill:url(#SVGID_00000158024527546977642560000008555925040129808781_);}
	.st6{fill:url(#SVGID_00000097494884524173471460000013618777124873317308_);}
	.st7{fill:url(#SVGID_00000141438532157192496230000002923967468600179126_);}
	.st8{fill:url(#SVGID_00000162327752710773911070000016928719576862077865_);}
</style>
<g>
	<g>
		
			<linearGradient id="SVGID_1_" gradientUnits="userSpaceOnUse" x1="128.4562" y1="254.1242" x2="381.6091" y2="254.1242" gradientTransform="matrix(1 0 0 -1 0 512)">
			<stop  offset="0" style="stop-color:#00D7DF"/>
			<stop  offset="1" style="stop-color:#0188E7"/>
		</linearGradient>
		<path class="st0" d="M122.1,379.4l0.6,4.1l91.4-1l-1-45.6c-0.2-7.8-3.3-15.1-8.8-20.6l-27-27c-4.3-4.3-10.1-7.3-16.2-8.4
			l-16.1-2.8c-0.2,0-0.3-0.2-0.5-0.2c-0.3-0.1-0.7-0.2-1-0.4c-0.3-0.2-0.6-0.3-0.9-0.6c-0.2-0.1-0.3-0.2-0.5-0.3l-41.1-41.1
			c-5.5-5.5-15.2-5.5-20.6,0c-5.7,5.7-5.7,14.9,0,20.6l47.2,47.2c2,2,2,5.4,0,7.5c-1.1,1.1-2.4,1.6-3.8,1.6c-1.4,0-2.7-0.5-3.8-1.6
			l-47.2-47.2c-9.8-9.8-9.8-25.8,0-35.6c1.6-1.6,3.4-2.9,5.4-4l-7-28.1c-0.1-0.2,0-0.5,0-0.7s-0.2-0.5-0.2-0.7l1.1-36.4
			c0.4-13.8-10.4-25.3-24.2-25.8c-2.2-0.2-4.4,0.8-6.1,2.4c-1.5,1.5-2.4,3.4-2.5,5.6L37.1,214l5.4,51c1.4,13.3,7.4,25.8,16.9,35.3
			l45.6,45.6C114.4,355,120.3,366.5,122.1,379.4L122.1,379.4z"/>
		
			<linearGradient id="SVGID_00000092422742570354865490000009885352294014454674_" gradientUnits="userSpaceOnUse" x1="128.4562" y1="70.4788" x2="381.6091" y2="70.4788" gradientTransform="matrix(1 0 0 -1 0 512)">
			<stop  offset="0" style="stop-color:#00D7DF"/>
			<stop  offset="1" style="stop-color:#0188E7"/>
		</linearGradient>
		<path style="fill:url(#SVGID_00000092422742570354865490000009885352294014454674_);" d="M230.4,398.4c-3.5-3.5-8-5.3-13.2-5.3
			l-97.3,1.1c-10.2,0.1-18.5,8.5-18.4,18.8l0.7,58.7c0.1,4.9,2,9.6,5.6,13c3.5,3.5,8.1,5.3,13.2,5.3l97.3-1.1c4.9-0.1,9.6-2,13-5.6
			c3.5-3.5,5.4-8.3,5.3-13.2l-0.7-58.7C236,406.5,234,401.9,230.4,398.4L230.4,398.4z M123.7,434.1c-7.6,0.1-13.8-6.1-13.9-13.7
			c-0.1-7.6,6.1-13.8,13.7-13.9c7.6-0.1,13.8,6.1,13.9,13.7S131.3,434,123.7,434.1z"/>
		
			<linearGradient id="SVGID_00000093136433702610870390000013734649992585987505_" gradientUnits="userSpaceOnUse" x1="128.4562" y1="254.1998" x2="381.6091" y2="254.1998" gradientTransform="matrix(1 0 0 -1 0 512)">
			<stop  offset="0" style="stop-color:#00D7DF"/>
			<stop  offset="1" style="stop-color:#0188E7"/>
		</linearGradient>
		<path style="fill:url(#SVGID_00000093136433702610870390000013734649992585987505_);" d="M475.9,134.6c-1.6-1.6-3.8-2.5-6.1-2.5
			c-13.7,0.5-24.5,12-24.1,25.8l1.1,36.4c0,0.2-0.1,0.5-0.1,0.7c0,0.2,0,0.5,0,0.7l-7,28.1c2,1.1,3.8,2.4,5.4,4
			c9.8,9.8,9.8,25.8,0,35.6L398,310.8c-1.1,1.1-2.4,1.6-3.8,1.6c-1.4,0-2.7-0.5-3.8-1.6c-2-2-2-5.4,0-7.5l47.2-47.2
			c5.7-5.7,5.7-14.9,0-20.6c-5.5-5.5-15.2-5.5-20.6,0L376,276.5c-0.2,0.2-0.3,0.2-0.5,0.3c-0.2,0.2-0.6,0.4-0.9,0.6
			c-0.3,0.2-0.7,0.3-1,0.4c-0.2,0.1-0.3,0.2-0.5,0.2l-16.1,2.8c-6.1,1.1-11.8,4-16.2,8.4l-27,27c-5.5,5.5-8.7,12.9-8.8,20.6l-1,45.6
			l91.4,1l0.6-4c1.9-12.9,7.8-24.5,17-33.6l45.6-45.6c9.5-9.5,15.5-22,16.9-35.3l5.4-51l-2.4-73.7
			C478.2,138.1,477.4,136.1,475.9,134.6L475.9,134.6z"/>
		
			<linearGradient id="SVGID_00000005249856232778682920000009987403727158378670_" gradientUnits="userSpaceOnUse" x1="128.4562" y1="70.4788" x2="381.6091" y2="70.4788" gradientTransform="matrix(1 0 0 -1 0 512)">
			<stop  offset="0" style="stop-color:#00D7DF"/>
			<stop  offset="1" style="stop-color:#0188E7"/>
		</linearGradient>
		<path style="fill:url(#SVGID_00000005249856232778682920000009987403727158378670_);" d="M398,394.2l-97.3-1.1h-0.2
			c-4.8,0-9.4,1.9-12.9,5.3c-3.5,3.5-5.6,8.1-5.6,13l-0.7,58.7c-0.1,4.9,1.8,9.6,5.3,13.2c3.5,3.5,8.1,5.6,13,5.6l97.3,1.1
			c4.8,0,9.6-1.8,13.2-5.3c3.5-3.5,5.6-8.1,5.6-13l0.7-58.7C416.5,402.7,408.3,394.2,398,394.2L398,394.2z M394.2,434.1
			c-7.6-0.1-13.8-6.3-13.7-13.9c0.1-7.6,6.3-13.8,13.9-13.7c7.6,0.1,13.8,6.3,13.7,13.9C408,428.1,401.8,434.1,394.2,434.1z"/>
		
			<linearGradient id="SVGID_00000157271552723030790780000018340700052499517846_" gradientUnits="userSpaceOnUse" x1="128.4546" y1="367.157" x2="381.6062" y2="367.157" gradientTransform="matrix(1 0 0 -1 0 512)">
			<stop  offset="0" style="stop-color:#00D7DF"/>
			<stop  offset="1" style="stop-color:#0188E7"/>
		</linearGradient>
		<path style="fill:url(#SVGID_00000157271552723030790780000018340700052499517846_);" d="M367.5,120h-17.3
			c-2.1-7.8-5.2-15.2-9.1-22l12.2-12.2c5.6-5.6,5.6-14.6,0-20.2l-15.1-15.1c-5.6-5.6-14.6-5.6-20.2,0l-12.2,12.2
			c-6.9-4-14.3-7-22-9.1V36.3c0-7.9-6.4-14.3-14.3-14.3h-21.2c-7.9,0-14.3,6.4-14.3,14.3v17.3c-7.8,2-15.2,5.2-22,9.1l-12.2-12.2
			c-5.6-5.6-14.6-5.6-20.2,0l-15.1,15.1c-5.6,5.6-5.6,14.6,0,20.2l12.2,12.2c-4,6.9-7,14.3-9.1,22h-17.3c-7.9,0-14.3,6.4-14.3,14.3
			v21.2c0,7.9,6.4,14.3,14.3,14.3h17.3c2.1,7.8,5.2,15.2,9.1,22L164.6,204c-5.6,5.6-5.6,14.6,0,20.2l15.1,15.1
			c2.8,2.8,6.4,4.2,10.1,4.2c3.7,0,7.3-1.4,10.1-4.2L212,227c6.9,3.9,14.3,7,22,9.1v17.3c0,7.9,6.4,14.3,14.3,14.3h21.2
			c7.9,0,14.3-6.4,14.3-14.3v-17.3c7.8-2.1,15.2-5.2,22-9.1l12.2,12.2c2.8,2.8,6.4,4.2,10.1,4.2s7.3-1.4,10.1-4.2l15.1-15.1
			c5.6-5.6,5.6-14.6,0-20.2l-12.2-12.2c4-6.9,7-14.3,9.1-22h17.3c7.9,0,14.3-6.4,14.3-14.3v-21.2C381.7,126.4,375.3,120,367.5,120z
			 M231.9,217.7c-29.4-11.1-50.3-39.5-50.3-72.8c0-40.5,30.8-73.7,70.3-77.5V56.8l19.1,11l5.9,3.4l-9.8,5.7l-15.2,8.8V77
			c-34.2,3.8-60.8,32.7-60.8,67.9c0,29.1,18.1,53.9,43.8,63.8L231.9,217.7z M202.4,144.9c0-31.2,25.4-56.6,56.6-56.6
			s56.6,25.4,56.6,56.6s-25.4,56.6-56.6,56.6S202.4,176.1,202.4,144.9z M271.9,221.7v10.6l-16.8-9.7l0,0l-8.2-4.8l8.3-4.8l16.6-9.6
			v8.7c31.8-5.9,55.9-33.7,55.9-67.2c0-27.5-16.3-51.3-39.8-62.1l2.9-9.1c27.3,12,46.4,39.4,46.4,71.2
			C337.2,183.6,309,215.7,271.9,221.7z"/>
	</g>
	<g>
		
			<linearGradient id="SVGID_00000004510571977658180920000015190567058899770042_" gradientUnits="userSpaceOnUse" x1="128.4562" y1="367.8126" x2="381.6091" y2="367.8126" gradientTransform="matrix(1 0 0 -1 0 512)">
			<stop  offset="0" style="stop-color:#00D7DF"/>
			<stop  offset="1" style="stop-color:#0188E7"/>
		</linearGradient>
		<path style="fill:url(#SVGID_00000004510571977658180920000015190567058899770042_);" d="M211.8,139.9c0-3.3,0.9-6.1,2.8-8.7
			s4.4-3.9,7.7-3.9c3.4,0,6,1.1,8,3.4c2,2.2,3,5.2,3,8.8c0,2.2-0.7,4.4-1.9,6.7c-1.2,2.3-3,4.3-5.4,6.2h7.9v8.6h-22.1l11.1-14.8
			c2-2.7,3-4.8,3-6.2c0-1.2-0.3-2.1-0.9-2.9c-0.6-0.7-1.4-1.1-2.4-1.1c-1,0-1.8,0.4-2.5,1.3c-0.7,0.8-1.1,2-1.1,3.4L211.8,139.9z"/>
		
			<linearGradient id="SVGID_00000102521608627921260260000015346295339588642453_" gradientUnits="userSpaceOnUse" x1="128.4562" y1="367.4029" x2="381.6091" y2="367.4029" gradientTransform="matrix(1 0 0 -1 0 512)">
			<stop  offset="0" style="stop-color:#00D7DF"/>
			<stop  offset="1" style="stop-color:#0188E7"/>
		</linearGradient>
		<path style="fill:url(#SVGID_00000102521608627921260260000015346295339588642453_);" d="M257.3,147.7h3v7.9h-3v5.5h-7.4v-5.5H237
			v-7l11.1-20.3h9.2V147.7z M249.9,147.7v-10.2l-4.9,10.2H249.9z"/>
		
			<linearGradient id="SVGID_00000020376373161955399630000013763632037380874160_" gradientUnits="userSpaceOnUse" x1="128.4562" y1="367.4029" x2="381.6091" y2="367.4029" gradientTransform="matrix(1 0 0 -1 0 512)">
			<stop  offset="0" style="stop-color:#00D7DF"/>
			<stop  offset="1" style="stop-color:#0188E7"/>
		</linearGradient>
		<path style="fill:url(#SVGID_00000020376373161955399630000013763632037380874160_);" d="M268.3,164.9l-4.9,0.1l12.3-40.6l4.9-0.1
			L268.3,164.9z"/>
		
			<linearGradient id="SVGID_00000010300471391917977950000015433136241059728542_" gradientUnits="userSpaceOnUse" x1="128.4562" y1="367.4848" x2="381.6091" y2="367.4848" gradientTransform="matrix(1 0 0 -1 0 512)">
			<stop  offset="0" style="stop-color:#00D7DF"/>
			<stop  offset="1" style="stop-color:#0188E7"/>
		</linearGradient>
		<path style="fill:url(#SVGID_00000010300471391917977950000015433136241059728542_);" d="M283.7,128.1h22.7l-11.6,32.9h-8.6
			l9.2-24.3h-11.6V128.1z"/>
	</g>
</g>
</svg>
