<?xml version="1.0" encoding="utf-8"?>
<!-- Generator: Adobe Illustrator 26.0.0, SVG Export Plug-In . SVG Version: 6.00 Build 0)  -->
<svg version="1.1" id="Layer_1" xmlns="http://www.w3.org/2000/svg" xmlns:xlink="http://www.w3.org/1999/xlink" x="0px" y="0px"
	 viewBox="0 0 512 512" style="enable-background:new 0 0 512 512;" xml:space="preserve">
<style type="text/css">
	.st0{fill:url(#SVGID_1_);}
	.st1{fill:url(#SVGID_00000003103978989018007630000014874699125386123959_);}
	.st2{fill:url(#SVGID_00000151510764407730911540000013002932931254311311_);}
	.st3{fill:url(#SVGID_00000077322871455291278340000006061675265802219138_);}
</style>
<g>
	<g>
		
			<linearGradient id="SVGID_1_" gradientUnits="userSpaceOnUse" x1="72.0141" y1="151.5604" x2="434.9634" y2="150.7782" gradientTransform="matrix(1 0 0 -1 0 512)">
			<stop  offset="0" style="stop-color:#00D7DF"/>
			<stop  offset="1" style="stop-color:#0188E7"/>
		</linearGradient>
		<path class="st0" d="M391.8,496.5H120.2c-12.5,0-24.5-5-33.4-13.8C78,473.8,73,461.8,73,449.3V272.3c0-12.5,5-24.5,13.8-33.4
			c8.8-8.8,20.9-13.8,33.4-13.8h271.5c12.5,0,24.5,5,33.4,13.8c8.8,8.8,13.8,20.9,13.8,33.4v176.9c0,12.5-5,24.5-13.8,33.4
			C416.3,491.5,404.3,496.5,391.8,496.5z M120.2,243.6c-7.6,0-14.9,3.1-20.3,8.4c-5.4,5.4-8.4,12.7-8.4,20.3v176.9
			c0,7.6,3.1,14.9,8.4,20.3c5.4,5.4,12.7,8.4,20.3,8.4h271.5c7.6,0,14.9-3.1,20.3-8.4c5.4-5.4,8.4-12.7,8.4-20.3V272.3
			c0-7.6-3.1-14.9-8.4-20.3c-5.4-5.4-12.7-8.4-20.3-8.4H120.2z"/>
		
			<linearGradient id="SVGID_00000160189135700191601300000002713216822887389617_" gradientUnits="userSpaceOnUse" x1="72.4559" y1="356.5819" x2="435.4052" y2="355.7997" gradientTransform="matrix(1 0 0 -1 0 512)">
			<stop  offset="0" style="stop-color:#00D7DF"/>
			<stop  offset="1" style="stop-color:#0188E7"/>
		</linearGradient>
		<path style="fill:url(#SVGID_00000160189135700191601300000002713216822887389617_);" d="M325.7,243.6c-5.1,0-9.2-4.1-9.2-9.2
			v-87.7c0-21.6-11.5-41.5-30.2-52.3c-18.7-10.8-41.7-10.8-60.4,0s-30.2,30.7-30.2,52.3v87.7c0,5.1-4.1,9.2-9.2,9.2
			c-5.1,0-9.2-4.1-9.2-9.2v-87.7c0-43.5,35.4-78.9,78.9-78.9c21,0,41,8.3,55.8,23.1c14.8,14.8,23.2,34.9,23.1,55.8v87.7
			c0,2.4-0.9,4.8-2.7,6.6C330.5,242.7,328.2,243.6,325.7,243.6L325.7,243.6z"/>
		
			<linearGradient id="SVGID_00000173150496108690492790000010563739509627956356_" gradientUnits="userSpaceOnUse" x1="72.5121" y1="382.6905" x2="435.4615" y2="381.9083" gradientTransform="matrix(1 0 0 -1 0 512)">
			<stop  offset="0" style="stop-color:#00D7DF"/>
			<stop  offset="1" style="stop-color:#0188E7"/>
		</linearGradient>
		<path style="fill:url(#SVGID_00000173150496108690492790000010563739509627956356_);" d="M378.1,243.6c-5.1,0-9.2-4.1-9.2-9.2
			v-87.7c0-40.3-21.5-77.5-56.4-97.6s-77.8-20.1-112.7,0s-56.4,57.3-56.4,97.6v87.7c0,5.1-4.1,9.2-9.2,9.2c-5.1,0-9.2-4.1-9.2-9.2
			v-87.7c0-46.9,25-90.2,65.6-113.7c40.5-23.5,90.6-23.5,131.2,0s65.6,66.8,65.6,113.7v87.7c0,2.4-0.9,4.8-2.7,6.6
			C382.8,242.7,380.5,243.6,378.1,243.6L378.1,243.6z"/>
	</g>
	
		<linearGradient id="SVGID_00000143586290389238165350000000359640607787448474_" gradientUnits="userSpaceOnUse" x1="187.7961" y1="162.1078" x2="324.2747" y2="162.1078" gradientTransform="matrix(1 0 0 -1 0 512)">
		<stop  offset="0" style="stop-color:#00D7DF"/>
		<stop  offset="1" style="stop-color:#0188E7"/>
	</linearGradient>
	<path style="fill:url(#SVGID_00000143586290389238165350000000359640607787448474_);" d="M206.4,341.4c-4.7-4.1-11.7-3.6-15.8,1
		c-4.1,4.7-3.6,11.7,1,15.8l45.1,39.5c2,1.8,4.7,2.8,7.4,2.8c0.2,0,0.5,0,0.7,0c3-0.2,5.7-1.6,7.7-3.8l69.1-78.9
		c4.1-4.7,3.6-11.7-1.1-15.8c-4.7-4.1-11.7-3.6-15.8,1.1l-61.7,70.5L206.4,341.4z"/>
</g>
</svg>
