<?xml version="1.0" encoding="utf-8"?>
<!-- Generator: Adobe Illustrator 26.0.0, SVG Export Plug-In . SVG Version: 6.00 Build 0)  -->
<svg version="1.1" id="Layer_1" xmlns="http://www.w3.org/2000/svg" xmlns:xlink="http://www.w3.org/1999/xlink" x="0px" y="0px"
	 viewBox="0 0 512 512" style="enable-background:new 0 0 512 512;" xml:space="preserve">
<style type="text/css">
	.st0{fill:url(#SVGID_1_);}
	.st1{fill:url(#SVGID_00000110462448980944243410000007299341700189410179_);}
	.st2{fill:url(#SVGID_00000021077835875602208110000014449465655794903482_);}
	.st3{fill:url(#SVGID_00000091726302762617567590000005657068120787190683_);}
	.st4{fill:url(#SVGID_00000121973634975114507440000011721928943873742767_);}
	.st5{fill:url(#SVGID_00000162332813101643599120000013403364173610655662_);}
	.st6{fill:url(#SVGID_00000019647632415915904440000010782524952164682418_);}
	.st7{fill:url(#SVGID_00000127015425910607942270000001633623467401206659_);}
	.st8{fill:url(#SVGID_00000170256606925560452950000010767300452750616735_);}
	.st9{fill:url(#SVGID_00000038407218766299353160000004186978469067034513_);}
	.st10{fill:url(#SVGID_00000083811370612511636110000011093396822902163123_);}
	.st11{fill:url(#SVGID_00000012460424019931690850000008883540023607484597_);}
	.st12{fill:url(#SVGID_00000074435405348077336070000005206163154688571048_);}
	.st13{fill:url(#SVGID_00000105389058904393854480000009792267839023535751_);}
	.st14{fill:url(#SVGID_00000176756714336260471960000013814583183462158979_);}
	.st15{fill:url(#SVGID_00000054946243765202169800000003452468998231598262_);}
	.st16{fill:url(#SVGID_00000154396438406071329060000007310253295637783733_);}
</style>
<g>
	
		<linearGradient id="SVGID_1_" gradientUnits="userSpaceOnUse" x1="18.7002" y1="57.967" x2="492.636" y2="52.4239" gradientTransform="matrix(1 0 0 -1 0 512)">
		<stop  offset="0" style="stop-color:#00D7DF"/>
		<stop  offset="1" style="stop-color:#0188E7"/>
	</linearGradient>
	<circle class="st0" cx="49.1" cy="454.4" r="29.6"/>
	
		<linearGradient id="SVGID_00000018927883415772091990000000597295077281377684_" gradientUnits="userSpaceOnUse" x1="18.7571" y1="62.8335" x2="492.693" y2="57.2904" gradientTransform="matrix(1 0 0 -1 0 512)">
		<stop  offset="0" style="stop-color:#00D7DF"/>
		<stop  offset="1" style="stop-color:#0188E7"/>
	</linearGradient>
	<circle style="fill:url(#SVGID_00000018927883415772091990000000597295077281377684_);" cx="465.2" cy="454.4" r="29.6"/>
	<g>
		
			<linearGradient id="SVGID_00000127740939178171960800000013919035249904234886_" gradientUnits="userSpaceOnUse" x1="21.1069" y1="263.7465" x2="495.0428" y2="258.2034" gradientTransform="matrix(1 0 0 -1 0 512)">
			<stop  offset="0" style="stop-color:#00D7DF"/>
			<stop  offset="1" style="stop-color:#0188E7"/>
		</linearGradient>
		<path style="fill:url(#SVGID_00000127740939178171960800000013919035249904234886_);" d="M256,194.3c-14.2,0-27.3,5.1-37.6,13.5
			l38.7,36.8l37.6-35.8C284.3,199.7,270.8,194.3,256,194.3z M303.8,218.4c-2.6-3.6-5.7-6.8-9-9.7c-10.4-9-24-14.5-38.7-14.5
			c-14.2,0-27.3,5.1-37.6,13.5c-3.4,2.8-6.5,6-9.3,9.5c-7.9,10-12.5,22.7-12.5,36.4c0,13.7,4.7,26.4,12.5,36.5l21.5-20.4l-12.8-11.1
			c-2.7-2.4-3-6.5-0.6-9.3c2.3-2.7,6.5-3,9.3-0.6l13.5,11.9l7.9,6.9l6.5-7.3l8.7-10l20.8-23.9c2.4-2.7,6.5-3,9.3-0.6
			c0.5,0.5,0.9,1,1.2,1.6c1.5,2.4,1.2,5.5-0.7,7.7l-21.2,24.3l-8.6,10L253.5,281c-1.2,1.3-2.7,2.1-4.5,2.3c-0.2,0-0.3,0-0.5,0
			c-1.6,0-3.1-0.5-4.3-1.6l-3.7-3.2l-22.2,21.1c10.3,8.4,23.3,13.5,37.6,13.5c14.9,0,28.4-5.4,38.8-14.5c3.3-2.9,6.4-6.1,9-9.7
			c7.2-9.9,11.6-22,11.6-35.2C315.3,240.5,311.1,228.3,303.8,218.4z M303.8,218.4c-2.6-3.6-5.7-6.8-9-9.7c-10.4-9-24-14.5-38.7-14.5
			c-14.2,0-27.3,5.1-37.6,13.5c-3.4,2.8-6.5,6-9.3,9.5c-7.9,10-12.5,22.7-12.5,36.4c0,13.7,4.7,26.4,12.5,36.5
			c2.7,3.5,5.8,6.7,9.3,9.5c10.3,8.4,23.3,13.5,37.6,13.5c14.9,0,28.4-5.4,38.8-14.5c3.3-2.9,6.4-6.1,9-9.7
			c7.2-9.9,11.6-22,11.6-35.2C315.3,240.5,311.1,228.3,303.8,218.4z M263.9,269.2L253.5,281c-1.2,1.3-2.7,2.1-4.5,2.3
			c-0.2,0-0.3,0-0.5,0c-1.6,0-3.1-0.5-4.3-1.6l-3.7-3.2l-10-8.8l-12.7-11.1c-2.7-2.4-3-6.5-0.6-9.3c2.3-2.7,6.5-3,9.3-0.6l13.5,11.9
			l7.9,6.9l6.5-7.3l8.7-10l20.8-23.9c2.4-2.7,6.5-3,9.3-0.6c0.5,0.5,0.9,1,1.2,1.6c1.5,2.4,1.2,5.5-0.7,7.7l-21.2,24.3L263.9,269.2z
			 M199.6,208.2l-49.4-46.9v107.6c0,14.8,11.1,33.7,26.5,52l22.9-21.7c-10-12.4-16.1-28.2-16.1-45.5S189.6,220.6,199.6,208.2z
			 M303.8,218.4c-2.6-3.6-5.7-6.8-9-9.7c-10.4-9-24-14.5-38.7-14.5c-14.2,0-27.3,5.1-37.6,13.5c-3.4,2.8-6.5,6-9.3,9.5
			c-7.9,10-12.5,22.7-12.5,36.4c0,13.7,4.7,26.4,12.5,36.5c2.7,3.5,5.8,6.7,9.3,9.5c10.3,8.4,23.3,13.5,37.6,13.5
			c14.9,0,28.4-5.4,38.8-14.5c3.3-2.9,6.4-6.1,9-9.7c7.2-9.9,11.6-22,11.6-35.2C315.3,240.5,311.1,228.3,303.8,218.4z M263.9,269.2
			L253.5,281c-1.2,1.3-2.7,2.1-4.5,2.3c-0.2,0-0.3,0-0.5,0c-1.6,0-3.1-0.5-4.3-1.6l-3.7-3.2l-10-8.8l-12.7-11.1
			c-2.7-2.4-3-6.5-0.6-9.3c2.3-2.7,6.5-3,9.3-0.6l13.5,11.9l7.9,6.9l6.5-7.3l8.7-10l20.8-23.9c2.4-2.7,6.5-3,9.3-0.6
			c0.5,0.5,0.9,1,1.2,1.6c1.5,2.4,1.2,5.5-0.7,7.7l-21.2,24.3L263.9,269.2z M303.8,218.4c-2.6-3.6-5.7-6.8-9-9.7
			c-10.4-9-24-14.5-38.7-14.5c-14.2,0-27.3,5.1-37.6,13.5c-3.4,2.8-6.5,6-9.3,9.5c-7.9,10-12.5,22.7-12.5,36.4
			c0,13.7,4.7,26.4,12.5,36.5c2.7,3.5,5.8,6.7,9.3,9.5c10.3,8.4,23.3,13.5,37.6,13.5c14.9,0,28.4-5.4,38.8-14.5
			c3.3-2.9,6.4-6.1,9-9.7c7.2-9.9,11.6-22,11.6-35.2C315.3,240.5,311.1,228.3,303.8,218.4z M263.9,269.2L253.5,281
			c-1.2,1.3-2.7,2.1-4.5,2.3c-0.2,0-0.3,0-0.5,0c-1.6,0-3.1-0.5-4.3-1.6l-3.7-3.2l-10-8.8l-12.7-11.1c-2.7-2.4-3-6.5-0.6-9.3
			c2.3-2.7,6.5-3,9.3-0.6l13.5,11.9l7.9,6.9l6.5-7.3l8.7-10l20.8-23.9c2.4-2.7,6.5-3,9.3-0.6c0.5,0.5,0.9,1,1.2,1.6
			c1.5,2.4,1.2,5.5-0.7,7.7l-21.2,24.3L263.9,269.2z M303.8,218.4c-2.6-3.6-5.7-6.8-9-9.7c-10.4-9-24-14.5-38.7-14.5
			c-14.2,0-27.3,5.1-37.6,13.5c-3.4,2.8-6.5,6-9.3,9.5c-7.9,10-12.5,22.7-12.5,36.4c0,13.7,4.7,26.4,12.5,36.5
			c2.7,3.5,5.8,6.7,9.3,9.5c10.3,8.4,23.3,13.5,37.6,13.5c14.9,0,28.4-5.4,38.8-14.5c3.3-2.9,6.4-6.1,9-9.7
			c7.2-9.9,11.6-22,11.6-35.2C315.3,240.5,311.1,228.3,303.8,218.4z M263.9,269.2L253.5,281c-1.2,1.3-2.7,2.1-4.5,2.3
			c-0.2,0-0.3,0-0.5,0c-1.6,0-3.1-0.5-4.3-1.6l-3.7-3.2l-10-8.8l-12.7-11.1c-2.7-2.4-3-6.5-0.6-9.3c2.3-2.7,6.5-3,9.3-0.6l13.5,11.9
			l7.9,6.9l6.5-7.3l8.7-10l20.8-23.9c2.4-2.7,6.5-3,9.3-0.6c0.5,0.5,0.9,1,1.2,1.6c1.5,2.4,1.2,5.5-0.7,7.7l-21.2,24.3L263.9,269.2z
			 M345.6,160.4c-54.6-4-79.6-21.8-89.6-32c-9.9,10.1-34.4,27.6-87.5,31.8c-5.8,0.5-11.8,0.8-18.3,0.9v107.6
			c0,14.8,11.1,33.7,26.5,52l22.9-21.7c-10-12.4-16.1-28.2-16.1-45.5c0-17.2,6.1-33.1,16.1-45.5c2.8-3.4,5.9-6.6,9.3-9.6
			c12.7-10.9,29.2-17.4,47.1-17.4c18.5,0,35.5,7,48.3,18.5c3.3,3,6.3,6.2,9,9.7c9.5,12.2,15.1,27.6,15.1,44.3s-5.7,32-15.1,44.3
			c-2.7,3.5-5.8,6.8-9,9.7c-12.8,11.5-29.8,18.5-48.3,18.5c-18,0-34.5-6.6-47.1-17.5l-23.3,22.2c24.2,26.1,54.6,49.5,70.5,55.9
			c16.1-6.5,47.2-30.4,71.5-57c3-3.3,5.9-6.7,8.7-10c14.9-18,25.5-36.4,25.5-50.9V161.2C356.1,161,350.7,160.8,345.6,160.4z
			 M218.4,299.6c10.3,8.4,23.3,13.5,37.6,13.5c14.9,0,28.4-5.4,38.8-14.5c3.3-2.9,6.4-6.1,9-9.7c7.2-9.9,11.6-22,11.6-35.2
			c0-13.1-4.3-25.4-11.6-35.2c-2.6-3.6-5.7-6.8-9-9.7c-10.4-9-24-14.5-38.7-14.5c-14.2,0-27.3,5.1-37.6,13.5c-3.4,2.8-6.5,6-9.3,9.5
			c-7.9,10-12.5,22.7-12.5,36.4c0,13.7,4.7,26.4,12.5,36.5C211.8,293.6,214.9,296.8,218.4,299.6z M217.9,258.6
			c-2.7-2.4-3-6.5-0.6-9.3c2.3-2.7,6.5-3,9.3-0.6l13.5,11.9l7.9,6.9l6.5-7.3l8.7-10l20.8-23.9c2.4-2.7,6.5-3,9.3-0.6
			c0.5,0.5,0.9,1,1.2,1.6c1.5,2.4,1.2,5.5-0.7,7.7l-21.2,24.3l-8.6,10L253.5,281c-1.2,1.3-2.7,2.1-4.5,2.3c-0.2,0-0.3,0-0.5,0
			c-1.6,0-3.1-0.5-4.3-1.6l-3.7-3.2l-10-8.8L217.9,258.6z M408,119.4c-3-3.3-6-6.5-9.2-9.6c-35.5-34.6-84.1-56-137.7-56
			c-55.6,0-105.8,23-141.6,60c-3.1,3.2-6.1,6.5-8.9,9.8C81.6,158,64,202.5,64,251c0,49.9,18.5,95.5,49.1,130.3c3,3.3,6,6.5,9.1,9.6
			c35.6,35.5,84.8,57.3,139,57.3c52.2,0,99.7-20.3,134.9-53.4c3.3-3,6.4-6.1,9.4-9.4c32.8-35.2,52.9-82.5,52.9-134.4
			C458.4,200.5,439.4,154.3,408,119.4z M336.8,338.5c-27,29.7-61.5,55.6-78.8,61.4c-0.7,0.2-1.4,0.3-2.1,0.3s-1.4-0.1-2.1-0.3
			c-17.1-5.7-50.9-31-77.8-60.2c-3-3.3-5.9-6.6-8.8-10c-17.5-20.9-30.3-43-30.3-60.9V154.7c0-1.6,0.6-3.1,1.6-4.3
			c1.2-1.4,3-2.3,4.9-2.3c4,0,8-0.1,11.7-0.2c75.8-2.8,94.6-32.7,94.8-33c2.3-4.2,9.2-4.2,11.4,0c0.2,0.2,19,30.7,97,33.1
			c3.1,0.1,6.3,0.2,9.6,0.2l0,0c2.5,0,4.7,1.4,5.8,3.5c0.5,0.9,0.8,1.9,0.8,3v114.1c0,17.6-12.3,39.1-29.2,59.7
			C342.7,331.9,339.8,335.2,336.8,338.5z M256,128.5c-9.9,10.1-34.4,27.6-87.5,31.8c-5.8,0.5-11.8,0.8-18.3,0.9v107.6
			c0,14.8,11.1,33.7,26.5,52c2.8,3.3,5.8,6.7,8.8,10c24.2,26.1,54.6,49.5,70.5,55.9c16.1-6.5,47.2-30.4,71.5-57
			c3-3.3,5.9-6.7,8.7-10c14.9-18,25.5-36.4,25.5-50.9V161.2c-5.7-0.1-11-0.4-16.1-0.7C291,156.5,266,138.6,256,128.5z M328.4,253.7
			c0,16.6-5.7,32-15.1,44.3c-2.7,3.5-5.8,6.8-9,9.7c-12.8,11.5-29.8,18.5-48.3,18.5c-18,0-34.5-6.6-47.1-17.5
			c-3.3-2.9-6.5-6.1-9.3-9.6c-10-12.4-16.1-28.2-16.1-45.5c0-17.2,6.1-33.1,16.1-45.5c2.8-3.4,5.9-6.6,9.3-9.6
			c12.7-10.9,29.2-17.4,47.1-17.4c18.5,0,35.5,7,48.3,18.5c3.3,3,6.3,6.2,9,9.7C322.8,221.6,328.4,237,328.4,253.7z M294.7,208.7
			c-10.4-9-24-14.5-38.7-14.5c-14.2,0-27.3,5.1-37.6,13.5c-3.4,2.8-6.5,6-9.3,9.5c-7.9,10-12.5,22.7-12.5,36.4
			c0,13.7,4.7,26.4,12.5,36.5c2.7,3.5,5.8,6.7,9.3,9.5c10.3,8.4,23.3,13.5,37.6,13.5c14.9,0,28.4-5.4,38.8-14.5
			c3.3-2.9,6.4-6.1,9-9.7c7.2-9.9,11.6-22,11.6-35.2c0-13.1-4.3-25.4-11.6-35.2C301.1,214.9,298.1,211.6,294.7,208.7z M263.9,269.2
			L253.5,281c-1.2,1.3-2.7,2.1-4.5,2.3c-0.2,0-0.3,0-0.5,0c-1.6,0-3.1-0.5-4.3-1.6l-3.7-3.2l-10-8.8l-12.7-11.1
			c-2.7-2.4-3-6.5-0.6-9.3c2.3-2.7,6.5-3,9.3-0.6l13.5,11.9l7.9,6.9l6.5-7.3l8.7-10l20.8-23.9c2.4-2.7,6.5-3,9.3-0.6
			c0.5,0.5,0.9,1,1.2,1.6c1.5,2.4,1.2,5.5-0.7,7.7l-21.2,24.3L263.9,269.2z M303.8,218.4c-2.6-3.6-5.7-6.8-9-9.7
			c-10.4-9-24-14.5-38.7-14.5c-14.2,0-27.3,5.1-37.6,13.5c-3.4,2.8-6.5,6-9.3,9.5c-7.9,10-12.5,22.7-12.5,36.4
			c0,13.7,4.7,26.4,12.5,36.5c2.7,3.5,5.8,6.7,9.3,9.5c10.3,8.4,23.3,13.5,37.6,13.5c14.9,0,28.4-5.4,38.8-14.5
			c3.3-2.9,6.4-6.1,9-9.7c7.2-9.9,11.6-22,11.6-35.2C315.3,240.5,311.1,228.3,303.8,218.4z M263.9,269.2L253.5,281
			c-1.2,1.3-2.7,2.1-4.5,2.3c-0.2,0-0.3,0-0.5,0c-1.6,0-3.1-0.5-4.3-1.6l-3.7-3.2l-10-8.8l-12.7-11.1c-2.7-2.4-3-6.5-0.6-9.3
			c2.3-2.7,6.5-3,9.3-0.6l13.5,11.9l7.9,6.9l6.5-7.3l8.7-10l20.8-23.9c2.4-2.7,6.5-3,9.3-0.6c0.5,0.5,0.9,1,1.2,1.6
			c1.5,2.4,1.2,5.5-0.7,7.7l-21.2,24.3L263.9,269.2z M256,128.5c-9.9,10.1-34.4,27.6-87.5,31.8c-5.8,0.5-11.8,0.8-18.3,0.9v107.6
			c0,14.8,11.1,33.7,26.5,52l22.9-21.7c-10-12.4-16.1-28.2-16.1-45.5c0-17.2,6.1-33.1,16.1-45.5c2.8-3.4,5.9-6.6,9.3-9.6
			c12.7-10.9,29.2-17.4,47.1-17.4c18.5,0,35.5,7,48.3,18.5l41.3-39.3C291,156.5,266,138.6,256,128.5z M303.8,218.4
			c-2.6-3.6-5.7-6.8-9-9.7c-10.4-9-24-14.5-38.7-14.5c-14.2,0-27.3,5.1-37.6,13.5c-3.4,2.8-6.5,6-9.3,9.5
			c-7.9,10-12.5,22.7-12.5,36.4c0,13.7,4.7,26.4,12.5,36.5c2.7,3.5,5.8,6.7,9.3,9.5c10.3,8.4,23.3,13.5,37.6,13.5
			c14.9,0,28.4-5.4,38.8-14.5c3.3-2.9,6.4-6.1,9-9.7c7.2-9.9,11.6-22,11.6-35.2C315.3,240.5,311.1,228.3,303.8,218.4z M263.9,269.2
			L253.5,281c-1.2,1.3-2.7,2.1-4.5,2.3c-0.2,0-0.3,0-0.5,0c-1.6,0-3.1-0.5-4.3-1.6l-3.7-3.2l-10-8.8l-12.7-11.1
			c-2.7-2.4-3-6.5-0.6-9.3c2.3-2.7,6.5-3,9.3-0.6l13.5,11.9l7.9,6.9l6.5-7.3l8.7-10l20.8-23.9c2.4-2.7,6.5-3,9.3-0.6
			c0.5,0.5,0.9,1,1.2,1.6c1.5,2.4,1.2,5.5-0.7,7.7l-21.2,24.3L263.9,269.2z M303.8,218.4c-2.6-3.6-5.7-6.8-9-9.7
			c-10.4-9-24-14.5-38.7-14.5c-14.2,0-27.3,5.1-37.6,13.5c-3.4,2.8-6.5,6-9.3,9.5c-7.9,10-12.5,22.7-12.5,36.4
			c0,13.7,4.7,26.4,12.5,36.5c2.7,3.5,5.8,6.7,9.3,9.5c10.3,8.4,23.3,13.5,37.6,13.5c14.9,0,28.4-5.4,38.8-14.5
			c3.3-2.9,6.4-6.1,9-9.7c7.2-9.9,11.6-22,11.6-35.2C315.3,240.5,311.1,228.3,303.8,218.4z M263.9,269.2L253.5,281
			c-1.2,1.3-2.7,2.1-4.5,2.3c-0.2,0-0.3,0-0.5,0c-1.6,0-3.1-0.5-4.3-1.6l-3.7-3.2l-10-8.8l-12.7-11.1c-2.7-2.4-3-6.5-0.6-9.3
			c2.3-2.7,6.5-3,9.3-0.6l13.5,11.9l7.9,6.9l6.5-7.3l8.7-10l20.8-23.9c2.4-2.7,6.5-3,9.3-0.6c0.5,0.5,0.9,1,1.2,1.6
			c1.5,2.4,1.2,5.5-0.7,7.7l-21.2,24.3L263.9,269.2z M303.8,218.4c-2.6-3.6-5.7-6.8-9-9.7c-10.4-9-24-14.5-38.7-14.5
			c-14.2,0-27.3,5.1-37.6,13.5c-3.4,2.8-6.5,6-9.3,9.5c-7.9,10-12.5,22.7-12.5,36.4c0,13.7,4.7,26.4,12.5,36.5
			c2.7,3.5,5.8,6.7,9.3,9.5c10.3,8.4,23.3,13.5,37.6,13.5c14.9,0,28.4-5.4,38.8-14.5c3.3-2.9,6.4-6.1,9-9.7
			c7.2-9.9,11.6-22,11.6-35.2C315.3,240.5,311.1,228.3,303.8,218.4z M263.9,269.2L253.5,281c-1.2,1.3-2.7,2.1-4.5,2.3
			c-0.2,0-0.3,0-0.5,0c-1.6,0-3.1-0.5-4.3-1.6l-3.7-3.2l-10-8.8l-12.7-11.1c-2.7-2.4-3-6.5-0.6-9.3c2.3-2.7,6.5-3,9.3-0.6l13.5,11.9
			l7.9,6.9l6.5-7.3l8.7-10l20.8-23.9c2.4-2.7,6.5-3,9.3-0.6c0.5,0.5,0.9,1,1.2,1.6c1.5,2.4,1.2,5.5-0.7,7.7l-21.2,24.3L263.9,269.2z
			 M294.7,208.7c-10.4-9-24-14.5-38.7-14.5c-14.2,0-27.3,5.1-37.6,13.5c-3.4,2.8-6.5,6-9.3,9.5c-7.9,10-12.5,22.7-12.5,36.4
			c0,13.7,4.7,26.4,12.5,36.5l21.5-20.4l-12.8-11.1c-2.7-2.4-3-6.5-0.6-9.3c2.3-2.7,6.5-3,9.3-0.6l13.5,11.9l7.9,6.9l6.5-7.3
			l-6.9-6.5l9.6-9.2L294.7,208.7z"/>
		
			<linearGradient id="SVGID_00000083062890942703745210000014296827237130059434_" gradientUnits="userSpaceOnUse" x1="23.3399" y1="454.6624" x2="497.2757" y2="449.1193" gradientTransform="matrix(1 0 0 -1 0 512)">
			<stop  offset="0" style="stop-color:#00D7DF"/>
			<stop  offset="1" style="stop-color:#0188E7"/>
		</linearGradient>
		<circle style="fill:url(#SVGID_00000083062890942703745210000014296827237130059434_);" cx="46.8" cy="57.6" r="29.6"/>
		
			<linearGradient id="SVGID_00000049209555041973113800000002658898901314730415_" gradientUnits="userSpaceOnUse" x1="23.3968" y1="459.5289" x2="497.3326" y2="453.9858" gradientTransform="matrix(1 0 0 -1 0 512)">
			<stop  offset="0" style="stop-color:#00D7DF"/>
			<stop  offset="1" style="stop-color:#0188E7"/>
		</linearGradient>
		<circle style="fill:url(#SVGID_00000049209555041973113800000002658898901314730415_);" cx="462.9" cy="57.6" r="29.6"/>
		<g>
			
				<linearGradient id="SVGID_00000143576318153980942100000018388966490059056023_" gradientUnits="userSpaceOnUse" x1="22.8051" y1="408.9361" x2="496.7409" y2="403.393" gradientTransform="matrix(1 0 0 -1 0 512)">
				<stop  offset="0" style="stop-color:#00D7DF"/>
				<stop  offset="1" style="stop-color:#0188E7"/>
			</linearGradient>
			<path style="fill:url(#SVGID_00000143576318153980942100000018388966490059056023_);" d="M155.4,147.9c-3.8,0.2-7.7,0.2-11.7,0.2
				c-1.9,0-3.7,0.9-4.9,2.3l-28.2-26.8L65.3,80.6L51.2,67.2l9.2-9.6l13.2,12.5l46,43.7L155.4,147.9z"/>
			
				<linearGradient id="SVGID_00000078042440318409946330000005635993485273700224_" gradientUnits="userSpaceOnUse" x1="21.8771" y1="329.5997" x2="495.813" y2="324.0566" gradientTransform="matrix(1 0 0 -1 0 512)">
				<stop  offset="0" style="stop-color:#00D7DF"/>
				<stop  offset="1" style="stop-color:#0188E7"/>
			</linearGradient>
			<path style="fill:url(#SVGID_00000078042440318409946330000005635993485273700224_);" d="M208.9,198.7c-3.3,2.9-6.5,6.1-9.3,9.6
				l-49.4-47v-0.1c6.5-0.2,12.5-0.5,18.3-0.9L208.9,198.7z"/>
			
				<linearGradient id="SVGID_00000109733137347760984880000010967462531212638595_" gradientUnits="userSpaceOnUse" x1="21.3041" y1="280.6025" x2="495.2399" y2="275.0594" gradientTransform="matrix(1 0 0 -1 0 512)">
				<stop  offset="0" style="stop-color:#00D7DF"/>
				<stop  offset="1" style="stop-color:#0188E7"/>
			</linearGradient>
			<path style="fill:url(#SVGID_00000109733137347760984880000010967462531212638595_);" d="M263.2,250.2l-8.7,10l-6.9-6.5
				l-38.3-36.4c2.7-3.5,5.8-6.7,9.3-9.5l38.7,36.8L263.2,250.2z"/>
			
				<linearGradient id="SVGID_00000049942631541174133630000003270367637775662748_" gradientUnits="userSpaceOnUse" x1="20.7845" y1="236.1715" x2="494.7202" y2="230.6284" gradientTransform="matrix(1 0 0 -1 0 512)">
				<stop  offset="0" style="stop-color:#00D7DF"/>
				<stop  offset="1" style="stop-color:#0188E7"/>
			</linearGradient>
			<path style="fill:url(#SVGID_00000049942631541174133630000003270367637775662748_);" d="M303.8,288.8c-2.6,3.6-5.7,6.8-9,9.7
				l-30.9-29.3l8.7-10L303.8,288.8z"/>
			
				<linearGradient id="SVGID_00000178892213544792869830000001032412814498314146_" gradientUnits="userSpaceOnUse" x1="20.382" y1="201.7656" x2="494.3179" y2="196.2225" gradientTransform="matrix(1 0 0 -1 0 512)">
				<stop  offset="0" style="stop-color:#00D7DF"/>
				<stop  offset="1" style="stop-color:#0188E7"/>
			</linearGradient>
			<path style="fill:url(#SVGID_00000178892213544792869830000001032412814498314146_);" d="M336.2,319.6c-2.8,3.3-5.7,6.7-8.7,10
				l-23.2-22.1c3.3-3,6.3-6.2,9-9.7L336.2,319.6z"/>
			
				<linearGradient id="SVGID_00000071526149260910769940000004659762009314345089_" gradientUnits="userSpaceOnUse" x1="19.5121" y1="127.3849" x2="493.4479" y2="121.8419" gradientTransform="matrix(1 0 0 -1 0 512)">
				<stop  offset="0" style="stop-color:#00D7DF"/>
				<stop  offset="1" style="stop-color:#0188E7"/>
			</linearGradient>
			<path style="fill:url(#SVGID_00000071526149260910769940000004659762009314345089_);" d="M462.9,440.1l-9.1,9.6L441,437.4
				l-44.8-42.6L337,338.5c3-3.3,5.9-6.7,8.7-10l60,57l45.3,43.1L462.9,440.1z"/>
		</g>
		<g>
			
				<linearGradient id="SVGID_00000086693502808207107860000002519709299086687921_" gradientUnits="userSpaceOnUse" x1="19.4662" y1="123.4591" x2="493.402" y2="117.916" gradientTransform="matrix(1 0 0 -1 0 512)">
				<stop  offset="0" style="stop-color:#00D7DF"/>
				<stop  offset="1" style="stop-color:#0188E7"/>
			</linearGradient>
			<path style="fill:url(#SVGID_00000086693502808207107860000002519709299086687921_);" d="M167.4,329.6c2.8,3.3,5.8,6.7,8.8,10
				l-54,51.3l-49,46.5l-12.8,12.2l-9.2-9.6l12.1-11.5l49.8-47.3L167.4,329.6z"/>
			
				<linearGradient id="SVGID_00000062192733168839967170000015574323734177351838_" gradientUnits="userSpaceOnUse" x1="20.35" y1="199.0268" x2="494.2858" y2="193.4837" gradientTransform="matrix(1 0 0 -1 0 512)">
				<stop  offset="0" style="stop-color:#00D7DF"/>
				<stop  offset="1" style="stop-color:#0188E7"/>
			</linearGradient>
			<path style="fill:url(#SVGID_00000062192733168839967170000015574323734177351838_);" d="M208.9,308.6l-23.3,22.2
				c-3-3.3-6-6.6-8.8-10l22.9-21.7C202.4,302.6,205.5,305.8,208.9,308.6z"/>
			
				<linearGradient id="SVGID_00000177450932696607569610000016639635163066644152_" gradientUnits="userSpaceOnUse" x1="20.7095" y1="229.7642" x2="494.6454" y2="224.2211" gradientTransform="matrix(1 0 0 -1 0 512)">
				<stop  offset="0" style="stop-color:#00D7DF"/>
				<stop  offset="1" style="stop-color:#0188E7"/>
			</linearGradient>
			<path style="fill:url(#SVGID_00000177450932696607569610000016639635163066644152_);" d="M240.6,278.5l-22.2,21.1
				c-3.4-2.8-6.5-6-9.3-9.5l21.5-20.4L240.6,278.5z"/>
			
				<linearGradient id="SVGID_00000029036147517564400790000003406191048862057131_" gradientUnits="userSpaceOnUse" x1="21.2611" y1="276.929" x2="495.197" y2="271.386" gradientTransform="matrix(1 0 0 -1 0 512)">
				<stop  offset="0" style="stop-color:#00D7DF"/>
				<stop  offset="1" style="stop-color:#0188E7"/>
			</linearGradient>
			<path style="fill:url(#SVGID_00000029036147517564400790000003406191048862057131_);" d="M303.8,218.4l-9.3,8.8
				c-0.3-0.5-0.8-1.1-1.2-1.6c-2.7-2.4-6.8-2.1-9.3,0.6l-20.8,23.9l-8.7,10l-6.5,7.3l-7.9-6.9l7.4-7l9.6-9.2l37.6-35.8
				C298.1,211.6,301.1,214.9,303.8,218.4z"/>
			
				<linearGradient id="SVGID_00000133499288803119767380000017758105065968238988_" gradientUnits="userSpaceOnUse" x1="21.8898" y1="330.6779" x2="495.8256" y2="325.1347" gradientTransform="matrix(1 0 0 -1 0 512)">
				<stop  offset="0" style="stop-color:#00D7DF"/>
				<stop  offset="1" style="stop-color:#0188E7"/>
			</linearGradient>
			<path style="fill:url(#SVGID_00000133499288803119767380000017758105065968238988_);" d="M361.7,161.2v2.3l-48.4,46
				c-2.7-3.5-5.8-6.8-9-9.7l41.3-39.3C350.7,160.8,356.1,161,361.7,161.2z"/>
			
				<linearGradient id="SVGID_00000171689649179223747970000007166256173642515123_" gradientUnits="userSpaceOnUse" x1="22.8399" y1="411.9123" x2="496.7757" y2="406.3692" gradientTransform="matrix(1 0 0 -1 0 512)">
				<stop  offset="0" style="stop-color:#00D7DF"/>
				<stop  offset="1" style="stop-color:#0188E7"/>
			</linearGradient>
			<path style="fill:url(#SVGID_00000171689649179223747970000007166256173642515123_);" d="M462.9,67.2l-16,15.2l-38.9,37l-34,32.3
				c-1.1-2.1-3.3-3.5-5.8-3.5l0,0c-3.3,0-6.5-0.1-9.6-0.2l40.2-38.2l38.8-36.9l16.2-15.3L462.9,67.2z"/>
		</g>
	</g>
</g>
</svg>
